<mxfile host="app.diagrams.net" modified="2020-09-03T13:22:22.445Z" agent="5.0 (Windows NT 10.0; Win64; x64) AppleWebKit/537.36 (KHTML, like Gecko) Chrome/84.0.4147.135 Safari/537.36" etag="iEsMU4T4Mecowaw0lH8t" version="13.6.5" type="github">
  <diagram id="fZnBgOjcjsLAM-tmU1mn" name="Page-1">
    <mxGraphModel dx="2076" dy="1096" grid="1" gridSize="10" guides="1" tooltips="1" connect="1" arrows="1" fold="1" page="1" pageScale="1" pageWidth="850" pageHeight="1100" math="0" shadow="0" extFonts="Old Standard TT^https://fonts.googleapis.com/css?family=Old+Standard+TT">
      <root>
        <mxCell id="0" />
        <mxCell id="1" parent="0" />
        <mxCell id="48J_HxQhAaGGOyNuxUYL-1" value="" style="shape=image;verticalLabelPosition=bottom;verticalAlign=top;imageAspect=0;aspect=fixed;image=data:image/png,iVBORw0KGgoAAAANSUhEUgAAB2kAAAN9CAYAAAC5FkKpAAAAAXNSR0IArs4c6QAAAARnQU1BAACxjwv8YQUAAAAJcEhZcwAAEnQAABJ0Ad5mH3gAAP+lSURBVHhe7P0JfFTV/f+Pf/+/79J+2lqtO+573Xfrvu9aFato64prtS4VrVRLqcUWFQEValQUCigoiAhEghBkiyRkDyQkgSQkEEiAJGQjewLv/znn3ju5M7mTzIQEMvB8Ph7PRzJ3OeducydzXznn/C8BAAiT8uPPRkRERERERERERERExG5KSAsAYeN1M0FERERERERERERERMTQJKQFgLDxupkgIiIiIiIiIiIiIiJiaBLSAkDYeN1MEBERERERERERERERMTQJaQEgbLxuJoiIiIiIiIiIiIiIiBiahLQAEDZeNxNEREREREREREREREQMTUJaAAgbr5sJIiIiIiIiIiIiIiIihiYhLQCEjdfNBBEREREREREREREREUOTkBYAwsbrZoKIiIiIiIiIiIiIiIihSUgLAGHjdTNBRERERERERERERETE0CSkBYCw8bqZICIiIiIiIiIiIiIiYmgS0gJA2HjdTBARERERERERERERETE0CWkBIGy8bibYPStOPEfKT7tQKs76jeXp6nc9zWPZvmCkbS8iIiIiIiIiIiIiYl+UkBYAwsbrZoJhevJ5UnHOxVJx7iWy7bxLO6jnlZ9ynve6e8JI215ERERERERERERExD7sHg9pd9bVSeuatdK8cLE0fT1TGqd8JY2fT5XGL76SpunfSPOCH6R1dY7sqKmx1wCAPY3XzQTD8NTzpeI877DTbblapuK0C7zL2J1G2vYiIiIiIiIiIiIiIvZx91hIu7OxUVpz1kjTt3Nk+19el6orb5CKo06S8v0Pl/JfHGJ+VvQ7Xqouu1a2v/CyNH71tbSuzpYdtbV2Cb3Lzh07ZUdLq7Q1N0tbU5P5uaOtTXbu3Gkv0bPocne0tFh1KXeo+nbq+uz5vYEu39k/U19r7+2fxl2f/mnVZ8/sBXbu2OF3TE2dalpvVWrqa3adQ1W3Pp69tYvONbPDqU/V3dvn0MHrZoIhqlukBgSeFWdfLOVnXiTlZyjV7+75+vc92kI10rYXERERERERERERETFEy868VEofeEI2RH0qRTNny7rl8ZJfUCD56wokryBf8vLzpWD5cimcOUvWfzhOStSyeh2vssJ1j4S0ulVsc8IKqb73D1J+0JFS/vODpeLgo6Ti8OOk4ogTpOLIE62f+rWaXr6fDm0Pk+rb75amefNlR2WlXVLPoYOuhnWFUrVkqZR+NkEKX31d1vzhUcm+7S5ZfePtkn3HPZL/xDOyccRoKf92tmxPy5CW8gor9OsGur7GwiKpXLBQSj9RJ/6vQ2Tt7x+26rvpdsm5614p+OPzsmnUe1KuTnxtapq0VFTYa4fPjtZWad66VWriV8jWKV9K8b/ekrwnnpacO35n1ffbuyVv4FOyfugw2TJxslQvXiJNm0qs4K8boZ8OD5u3lknNcl3fV1L85nDJf1zXd4+q77eSrepb+8gTsn7IG7Jl0ufquC+TphJdX7NdQnjobWytrZXtmVlSEf2dlHzwH1n351ck957fm/pW33yn5A54QArVtJIxH0rdqkxpq6u31+4erVVVppyK6LlSMvZDWff8IMnpf585nqtv/q2sUdf3ukGD1bwo2TY3RurX5klbQ6O9dvi0NTZK4/r1Uh33ozlmhX9R1+j9D0n2LeqaUfXl3DVA8h5/RopHjJLyWXOkNjlFWnrhvaLxuplgaOpugd2BpmfL01PPN61S25frmRt+d4y07UVERERERERERERE7Mqtl9wgGz/6TNatWycFBQU+TUDrUoe0Jqy1XZufJ2vz8mT9h5/Ilkuu9yw7VPdISFv/wYdS0e84E7zq1rLbjjqpS3Vo6yy//fV/2CXtGqYlYlubbE/PkM2f/lfyn35eVl17g6SedqakHH2SJB9xnCQfdrQkHXq0+nmspBx5gqSedKpkXPAbyek/QDb8403ZNuc7aSxab1qJhkJbQ4PUpqTJ5nETpODp52TVlddJyqmnS8oxJ0uyOiZJhx1j6ks6XNd3olXfhaq+O++Ror8NlW3fzZOm0s0mdA0FHbI25K+T8q9nStGrr8vqW+6QtDPPltTjT5FktT/Jpr5jzE/9OkVNTzvjLMm8+npZ99wg2fLfyVK/Js8EhKGwQweJ6wql4ptZsm7QX01gmXbWOaq+X5vjp4+j2T/1M1md05TjTpbUM86UzGtvloLnXpKtX3wp9Tm50lYfWoCqQ/LWqmqpWrpMiv/9juQOeFAyfnOJpJ5ymjqHJ0qyOo6mPr2P6vgmH3m8JJ/8a9k09kNp2rhJXwRWa1t1XvS10BX6PLds2yZVi5ZI8bDhsubeB2TlxZdJmq7vKHd96prR5/CokyVFzVt56ZWy9pEnpWRMlFQvj5fW7dvtErtGH9O6jFWyZfxEKfjTi5J1w83qmJ0tyfoa1deM2jenPn1Mfdfob38nG9Q2bov53grc1X72FF43E+zaihPP8RvTteL0C6VSvdeq7rpTqu7pb9Svy088V8p/fV77cmqd8pPUNI8ye9NI215ERERERERERERExM7UrWA3vvuBCWfdFjgWdAxrnRa1+U5Qm2cFtWvy1krx0H91u2Xtbg1pd+iWh8PekvID+kn5ocf4Ws16hbKB+lrX6vUOPVaqBzxgxrPtLjpsay4rk61ffW1ayK665GpJPfbXknTIkZJ44OGSdPBRVsh2xPE+TcB4cD9JUvP1vPTTz5XsW++UosF/k+ply03r2GDoMLF582Yp+2q6Vd/FV6r6TpFEXd9BqryA+pL7KXX4puvT8w8/RlJPOUOyb7nThMM6WO4qyGyrrZWqhT/I+tf/IatvuFVSTzzNhLGJBx6qyj3C/J6i6knRYamuU9Vv9l/Vl3TwkZJ6zK9l1aVXS+GgwSYcbt6yxS7Zm9bKKqmKXSTrXxsq2Tf+VlKOO1Xtw1GqvMMC6rP30Vefmn/IUZJyzCmSddWNUvjnv0jF7GjTErczdLBavzpHSj/6RHJ+d5+k/focSVblJppj1s/UndLvOF99+nd97uJ/8StZ/6/hVri+c6c0lZZK1aLFUpuUbJfsjWltvTbPtKbOuft+ST/tXCskdc6RDkpd9SUffpwkH3K02r9+apuOMMH/ygsulbUPPiqbJ0yUxg0bZGcnYbu+ZnS4qls+5z/1J3UurpHU40+VJHNMnWvUVZ+q24Tuqi49P0X9bq7R2/vLhn/+W10Li6R1W8+0rPW6mWDXVpx2YXuQefbFUnn9jb6w023lNfZ/35z9m/blT7+oQ3m9baRtLyIiIiIiIiIiIiJiMHWYuj72ByksLDR2FtL6h7X5kq9DWjuodVrTOkFt/vfzuxXU7raQdkdVtTR9M8uEs+EGtD6doPawY6X8wCOkYexHsqNim11D6Ojwq3H9Bil+e6SsuvJ6ST7qRBNK6oAr9eiTJO24Xwf3+F+bcNWEYoccZUK41BNOk9z7HjKtK3UwGogO4nTYtund0SYs1a1mTX2HHm2Cu7TjT/Wuy9apT4dver20k8+Ugudfkkp1IbUECd10a89ydbzXPvCopJ96jglB9bq6NaspV+1HYD2OqUrTkvjgoyXpwH7W/vW/z7TkbNpQbNfgj66vbNoMWfuHR9X2nWWOjVOfLs+rHp9q/1PV+dX16bA69YRTTXfPWz6dYI6bF601NVK97EfTTfSq31xh7d+v+pnjpI+XVz1mv9T26GU3jhgljWpfdEfO27OypGjI3yX/mT9JfXaOZ6votu3bpTYx2QTQ6aefZwXoBx1hgtFUdT696vOp90+3lNahtH1MMi+/VtYP/aepT7eUDUS3etVdG2948y3JvOoGcz6sa+YY02LXsx6X7dfMkaaVbfpp50ju3fdL+dffSEsX4XcoeN1MsGsrzmoPMfWYrl6Bp/GuO63lT3eFpGrdwPJ620jbXkREREREREREREREL7fccJcUZWb5Alq37rDWrQlpXeGs/ul0f+wOabVr09Jl8/XWs/JQ3W0hbWt6hlRedKWU/6qf1So23IDWpV63/OCjZNuvz5GW5FTZGUY3rjqU0+Gcbg2puxReccBhJjzzC9p0yOfoCr7ap1uvTRCmu/A95ChZsd/Bknvv76Xqh0UmQHSjW+yuH/GuCTtNSOcO9nxlugycbtdvhYwnSvJBR5ptX3P/w6aFa2t1e32mC+fmJtn65XRZfdMdVuvKQ472D/Y8yg42XYfWVuvMIyXzimuk5MOoDmPj6ha95TNmmrF7dYioj0eHILGz+lzTTH26RaoqY9UlV0rpx592GFdV11e54AfJe/yP5pgkHXiECSTd5fjKts+VKVu91sslHnSEbHzHCmk1tenpkvvoo5Jw0CFSOOgVaSxc79c1sK6vZnmCFDz7oukS2qrvBP8w2FdfkGn2dF94qgNedQ7X/WWwNBSs8xvbWNfdoN78xe+8a7ovTjywX+fXqF222deAaaY+3Q2zugZW7HeIGbtWt+YOFu6HitfNBEPwzIvaQ88zOgk9lWb50y7Ys6FnpG0vIiIiIiIiIiIiIva6dcNHSdvafBGnEVpbm+zYWiaN02bKtktv8FxnT6pbuQYLaB2DhbRZKzMkMyVJslely9q1a3xj05qgNr89pLWC2rSwWtTulpC2bVOJ1I/6QMp/ftAuB7RapwxdXt3f/ylthUV2TZ2jA8yWim2yadT7kvirfrJCtxLVQZY79LKDLR2IGY8+ydZ+rec5y7qXP+pEif/pLyX3vgetFrV2V8Qt1dWyZfp0WfaTn0qSbnWrynLW862r7VCf0l2fvbyjDk4TDzhM1qj6dIvatgbrjaBbZVYnJEjGBZeofTzcaunpVZ+20/rc/toEfSsOOFjSL75Etn493bQYNoFwa6tULV4qmdfcaOrTAbTn/mm96vOs02rxqs9R+jkXSdm0r81+OfXVJqdI7u8fMmGrbhXrrk//HrQ+pd4+3fWwO6TdvmqlrHniCYn7//1vSdj/AFn/1rtWK9tWdVNpbpba1DTTclmHpaY+py5bv/q89tGe71vHXlaPP7zspz+TjVEfSfPWrWZbdKvrxqIiKflgrAlytbrltVnfLsOvPnddgfUFaM7hLw6S1TfeJhWzv1PnMPRxcQPxuplg17pbmpaffbFn2Kmt7H+HtbyrJWvFGXugu+MI215ERERERERERERE7D0rb+wvLYkpIq2t0ro6R+r+9a5U3fuI1L4wWJrn/yDS0CA7tmyV2kGve66/Jwzs4rgrnYB2Tc4aWTTra1k2daKsnDtLcpf9IGuS4mVtzmrJy8/zDGnXrF0refO+Dzmo3S0hbfPipVJ13a1SftCRnqFrd9Xj02474zxTfii0NTVLycefStLhx0nir45o72bYDrF84dfRJ5nWjrr1ohmHVrcOVT/NeKNHnegLwnyhm61eL+Gn+8maBx6WmoQVZgzTzV99JT/8v5+2h8Fas257fborW6c+Hdzp7mnNTz2m6ZEnWOGbvay7vuTDj5YVvzpIcn//B6lNy5CdbTtMq0y9jQn/938k5cjj7X30rk+3xrXqs9X7G1Cfb5uV+veEg/tJyoUXyra5MVaguH6DZJx+vqz42UGmTLOs3k5nfaUOGXW5vjFTzf4pdX1qHb09zrJOXVoTKv7yYEnqd7TUpqab49lYUiL5zz0viYfpwNR1Dm1NObo+ta5ffVp7f3XYWuwOaVeulLVPPCnx/7OfpBx3msT+7/8jJZ+Ol5aycnM8C156WVbo+g4NEtDq+tQ+6H0x59CuT9dtrhnXMQ1cP+2E02Xx//xcij/+2ATCetzf0g8/VmUdJ0kHHN6+nF5X12XqswJXHTib/bN16rPOoSvYdVTl6H8mSPzlIZJ9211SuWChXwvecPC6meDZUv3IM+Y/hZq+jfa08auvpf79MbYfSM2zz3iHnnqM11POk4rzLmkPSU8+17POXvWkc9tDV70tN3YyJm1f2F5ERERERERERERE7BUrr7tD2nLWmNazDZ9OkoozL+mwTM1TL8qO4k0mqK0e+GyH+XvCjSPHSFFRUVC9Qtq8NWvku/FREvP+O7Jq5peydkGMrItbIuvil0p+ygpZm5tjglpnbFp3SJu7Jlc2/P1fntsSaK+HtDubm6Xhv59L+a+OkIp+x3uGrd1Vt6Yt+8n+0jhhkuzc3nWrwG1zvpPVN99uQjq/wMz+XQdfurWr1XrxJFl58RWSfXt/ybnjXsm64TZJO+Us05Iy6aAj2wPJAPV8HUpu+Mebsvmz/0r6WReY7nH9ljP1WeFeig5/DzzShHyrLrtWcvvfL2vuf0iy77xXVl54mQnrfN3dBm7z8aeaVqEpJ50q69/4pzQWqovp1b/Jkv/1vyTVhJdKuy6rvlNUOceZcWZ1uSt/c4WsvuMeyVX15dw1QFZdfKXZbz0/5dCjJUWt6w5ptTrkSz74SFl16dUmoNXrJe5/mCT3O1Ztj2vb9LpKHVzqsWL19mec+xvJvvUOWTPgAcm5+z7JuvoGqwvoXx1uulPWQaa7Lq0+zok/+5VZt7mkRDZ/Ol7SzjpbEg86zApozf65lj/yBHN+dEiafvo5pgvm3AEPSu49vzdju+qgNuGn+8uGYcOlsWi9uS7cIW3qCaebfVnxy0OkInqulHwyTtLOvUBW7H9Ih0BYa8Yz1qGsumZSTzxdMq+7Vdbc+4A5h6tvvVPSz7zACm7VfB2gBq5vylDr659bJ34u1YuXSc6dA0z32X7n29a6RtU1qLtcVvNXq+tS75tuUa2v1YyzLzTnOFHN1/UGrq/V/3CQdtKZUvSX16SpeIM5BuHidTPpaevHfiLSHHpX5n6o9er/86lnub1pW26evQHBaUlJlpb45camxYtk+z+HStX9A/wDz1MvkIpz2wPPCh16etS3O6w45+L24PX8y6TyhhtNy9k9sb2Nk79S9/q6Durpnc3zKgsRERERERERERERQ1c/a5WmJmmYNNVzvuP2If+SnTW1pqWtV5C7O916yQ2ewayXvla0Bevkx+/nyuS33pDvx7wrq2d9LblzZ0vB4lgpXBEnBQnLZO3KdMnLyzNj1HYMadcYt1x8vec2ue31kHZHWZnUvTVSyv7nQNm2i90ce1n+i0Nk+1//Lq1rOw9HGvLXSeFfXpfUk84w4VVgAJbS73hJ1C0XTz5T8p94RsqmfCXVy36UhnWF0rShWOqysqV85mxZP3SYZF5+rTX26mHHmKDVrxy1TclqP3XgmXXNTZJipgWMB2svp8PQtBNPl/zH/iibJ34uNSsSpalkszTrfrvXb5CqJctk0+gPJHfAHyT1uFOsIFOtb7bdLkfXn3TwEbLywkukaPDfJEm33FT1+ZZxltMtPQ852rSyXPvgQNk87r9SHfejaU2qx8zV9VX/uFxKPxoneQOfkpRjVbk6rFXl+7WmVeWZlqEnnS65v39EUtXxSjlCj7FrB6x2naZ1qQ4nDzlKsm+9Sza++55Uzl8oDXn5Zv+aNm6S2rR02aqO87rnX5K00841Ya4ec9epy6lPh5srfnagrP/7G7Lqiuus+p1j6uyf3i693IGHS9a1N8v6IW9IxbezpD4nR1p0fZtKpDYlTTZ/NtEEqCUffmz2WeMLaX+qQ9rTzP4mHnioZP/2bll5yVUmaPY7h7amNfLBR0nGBZdKwZ9elK1Tp0ndqiyzfy3qmNavzZfKefNl04jRpothfSx04B4YLutzo1sT56j6dNiafvp5Jrg159BVnz4OieoaSD/jPFn33J+l7Muv1XW52rS+1fvYUFAglQtipfhtddO45U4rzFXqctxlmWtPXb9Z190iFTNn6X7AzXEIB6+bSU8bkSFtXoG9AcHR98RmO6R1rBvzoVScdqEZ01V3Gexukap/Lz/1fM/6dsXqB56UHep92BWB29scHS1V6r2/u7dXq1spe6GndzbPqyxEREREREREREREDE0dtuoxaNsK15suj72Wcds8b6HsrKuX7YP/4Tl/d7npkwmegayXTkibnZoiX48ZKSNeek5GPvuUrJo2RVZ9/aWsjomWgqQEKVjxo6xJXiF5a9d4h7RqurbwP594bpPbXg9pW7Oypfb5l6X8l4d5hqy7avkB/aTmwcekZUWiXWNHdu5okwrdivbWu0w4FdhiU4eMejzV1dfdKiXvjZHtaenSsm2btKkLSHfpq7uE1V3RtlZVm1CzfMa3kvfQYybMc8I0JwTTP013wlrdUlb9dAdkJsBU6paZGedfLBvfHin1q7OlpbxC2hoaVF07zdirO9vaVP110ly6WWriE2TD0H9K2kmnm1aifuUpTWh57MlWK0rTKtMOAc1yVmCaeFA/STvtbCl+a4TUZawyXfma/VP16IjO1Fdfb8ZG3a7m6+1KO+VMa//U+u5t16/N/um6dSCsXvu2yZ5vuvk94ngpePYFqY5bbkJZPY6tHlNW7Z11TBsbzRjBukvhLZ9PlczLrpWkQ44xgbmzb059OgxNP/siSTn+VBMyuo+B/l1vz4oDDpK8gU/Itu/mmVbFrVVV5rxZ14Bdn9rv2uRUqcvJlVa1PRp3SJt2/GlmH1KOUsdUHTvdUtYXetv1mTrVMdfHJvuWO6X0k/FSp8+humZ2NDWb46nZ0dIqrTW10lxSKpULfpD8Pz4nyceeaJ0LJ6hVmn1U2592oqr75DNMC1m9P+76TCB8yFGm5awO0uv19m+rNPunrxeNvlb1MdaBtK6v4NkXTSivj13g8dKtf1NVXbo1rQ6Vw8XrZoKhhbSaHcUb/ELa+pGjfSGnWxN46jDUo65dtfblv5mWpjs2bzXjB3SG2d64ZdIcEyPNixZJzR+f3+3bqyWkRURERERERERERNz91jz5guws3ybNi5Z5zg+0/r0o0y1y4+fTPOfvDvW4sF5hbGeuKyiQxOhvZf5/RknUoBfl45eel+zZMyV+wieSMG2KrF4cK2uXL5WcxOXBQ1rTkjZXcpRdjU3b6yFtS1KK1Dz2tJQfcLhnyLqrVhx4pFTfOaDTcWl1UKZDR931rNMa1QmrTGB1YD/Tfe+W8RNNuKfHPtXoUK8+Z41sT02XNjXNhJk7d5owbtt3MbL2wcdMa1EdoAWGYDrYcwJMZ7rx+FNlxQEHS/p5F8nGkaNNfSYI1vWpn9szVkr1sjhpUNPbVP1mOxoapC4zS4r/9bYkHXakaanrq8/eBxOc6vp0uKfnOapl9D7rwFW3tDX1tVitE3eonzogrtEthvPyzWszXXdRXbDObJ8eh1W3JDWtae3ynPrM2KfqZ/u2qHnqZ/Lhx5julHWL3bpVmXb4vMMEwbqL4ZqERKnPXC1t6ryYQFof0/Jy2frFl7LqoitM18B6X0yZTn1HW/vnC70d1XzdRXPiAYdKdv97TCDcWl1t6tM0lZSaFsI1ScnSoqeruvT51edWb4/GK6TVdfjVZ2+LU6/ubnjVZVfL1s+nmlDUOXat1TUmVNfHVAfvTh1ttdvNec1/5jlJPFSdw8P9uz721ad1H1M9T22DPodZ19+qrtFJVn12qKavnVq1b3ofWypUffo4q33UAXTN8gTJf/IZE9Lq4Nt9LepgX7cE161p9fkIF6+bCYYe0mraNm+WlhUJ0rz8R8+Q1nQZ3EstUrVOSNv0zRzZ/tc3ZMf6Yn2Ds7fOhX7PqHk1g14zY+k2/fCDZ0jb29urJaRFRERERERERERE3P26nyd7zQ803OV7w80PPeULX9evX++pO6AtLCqU3FUZsmTKRPno5Rfki8F/kcTP/ysFyxbLqm9nSOJXUyQ9ZrbkxC2SnNQkyctb22VIu+kPj3tum+M+EdI2rMmTvEefMoGbe5xOHYTpoEqHkBv+McwEk6Zl6Y6dUp+dI+uHDJX8p58z6xYN+bvpPle3bNXoQKx82gzJ0uOc/qqff1hpl21eu6ZpU/SYsEccI4WDXzOtITUmDF6dIxvfflfV9YQZs7Xgmedl86cTpFFtk1mmudkEtZlXXGMFzTpwc8q36wqcZupT+5y4/2GS+7v7TXe/mp0trSas1a2GdYhn6lP7uXnceNOts1lmxw5p3LBB1j78mCQdc4IkH3m8Xze9Oox1NPt2rL1/puXmkZJ52TVSvTTOlKWpjU+Q4vffl7VPPy3Zv7tHch58WAqH/kPKvv1W7X+TFdRWbJN1zw8yLUl1d9KmXJfOMfYdZ/t3ff50N8CVCxaaQFijQ99t0XOlcNCrknvfg7L2wUdlw5A3pCp2kbQFjF/sFdKasnWdtr5tUNPNPh55nJT85yN1PZSaMnQwXBX7gxQNHiJrfv+wOqYPyrpBg2XbvAUm1NfoVq463F919Q2y4hcHe5YduH9ac83++mwpHv6u6X7blFXfINszMqRo6FBZ8+Bjpgvnwpf/ImVfTpOmIqsbZ72f2+bNt8bi1S1ndfBtl63r0N1kp/76dBM0h4vXzQTDC2kN6n6zQ107DVHjrG6DtWdcJOUnn+tZfk/qfEjqVrQtP66QqnsfkaZZc82YAj7U73qanqeX0a/bSkql9rlBu317tYS0iIiIiIiIiIiIiLvfmudekZ1V1SG3pK17+z2R+gZpnDLdc/7u0Onq2CucdesOatMS4mTY80/Ls7+9Vf54x63y1VtvStKk/0rSxAmSv3Sx5C1fKplLFkjOqlWSl5/vEdKuMeGs47qxH3lum2Pvd3ecuVpqnx/U+90dd9IasGrhIsm8WgdVR/lampowTLdQPLCfGTO1eslS02JVU5O1Wta8OEgSf3GgaYWYdMjRkrDfgZJx5dVS+smnpvtajQ46N7zxL0k67Gi7y2E7XPPQCeRW/OIQ02Vt5fcLTDiruxyuTUyW/D+9YFqQGg8+UhL3P1TSz7lAit9514THGh3ybRk3QRIPPMy0uDT1uXXV55h4cD/JuPASE8Dqrnh12KsD6MLBfzUBrm4Rmqzq00Fz+unnSuGrr5lxTh2ql/4oaedfpI6d3QI5SD1OK1oTBp5wmhS9+jezvg57mzZskPVD/iErr71eUs87X9LOu0D9vEDSLrlcch8ZKNtTM0zrVh3U6qA1+/a7zXHX2+dZl9beDtOd71HHydqHHre6UtZh79Yy2TJpsmTdcIsZA1YfT+fYrr79TqmYM1daa2p83RIHC2k71KfUQfEKdaxWXX+jGQNWo7tQLv92lmT/tr8JX019Bx8tK/Y7RFbdeoeUzZhpQmNNU/FGKR4xyhwn3SV0p9eMXZ8OoHXIXvXDYtO6Wl83VSsSJeepP0r8fgeYY6Wv0RX7HyTpF18mG8d+aLqX1v9soFsSb3jzLauFrr5GdZBvl29aSR91rBS9NsScp3Dwupn0tHvrmLRe7Ikg0RfS2uzcVil177wv1Y88I61ZOUb9u56m5znodfS6XmX2toS0iIiIiIiIiIiIiLvfyuvukLZ1RdJWtMH87rWM26Y588yYtHX/fMdz/u6wePZ3nqFsMPWYtP/9z/vyu2uvkkevv1pmvzNcvhw6RN7/87MSM3a05P6wQPJ/XGTMS0mS/Lw8O6S1A1qlMx6tDmizc3Mkb/o3ntvm2Osh7Y4tW6V++Agp+9mBsu3IEz2D1l2xfL9DZfurf5PWNWvtGjuydepXknrWWZJ40GHijNeqwyrT5euhR8umUR/4Wsg2FhVJ7qCXZdEvDpC0o9tbpqYef6rE7fcrSbvoUqmYNcca/7OuTqp+WCQZ515kWsimHtN54KaDssRfHibrXx9quhfW6J+Fg1+XZf/f/zGtek0wp5c//tey4sBDJO3s86Xkgw/NeLEOySedLEk64HMFbl7qcuJ/tp/kv/iiNBSuMwGmHn90w7/ekjhVn2lJaQehul4d/iYff6IUDf2nr4vitoZGWXv/w2b/UlSdgXW41d306rBQd6Grx4XV6ONU8+NyKX57pJRGfWJabZZ9/qWUffGVbPl0omx8612pmDnLHEu9fdriYcNN+Opu9dxB+zglHnaUJJ18suny19Sn1t8W/Z2svOIqSdj/IHWOrW6T9f7pFrc//t+fyOrb+sv2VVmddndsDKjP1Kn2Mf4nvzTbrcNgXUbVoiWmq+X4X+xvttu37LG/lmU//6WsuvlWqVz4g6lLh9F6W1ddcqUkHnBYp+fQuWaS1HVRPOzf0rjOCusb1qo3/QsvySJVtt/2qt/jDjxUUi+5TLZM+twsa12ji2Xlub+xQlpX8K27QNYtlrNvvVN2tFhj94aK182kpyWk7V0DQ1qDev844awT1uppbvZkSIuIiIiIiIiIiIiIe8bGyV+J6OEyJ07xnO9Y88eXzPi1+vnytktv8Fxmd1icmGTC1w0bNgTVHdKuW7dOot4fLX+672754Pnn5I/XXytLZn8tk4b+VUb/+RlJ+/ZLyV4QLXlLF0pBVqYU+FrSOq1ona6O20PaNd/FeG6bY6+HtDvVCWucMFnKf9VPKvod7xm0dteKI0+Usp/sLw2fTpAdNTV2jR3Z/N+Jknr6GVZIa3fZa0LaI4436uBQd7WrWT/0DdNqNEUHhK7ufU2odbQOIY+S4n+9Jc12y8iG/HWSde3NVsDaReCmA+G0E0+XLRMmSvPWrWb9qoU/yMpLrpD4//czM88XuKl1UtQ+Jqtjpsd2rc9dY5bXZN9yp2mJqbfdlO/aRre6JWrCzw+Qwpdflcb1G2RHW5tsz8qWjAsvlxU/O0htr/96JrQ++gRZfcddUpuYYlpj6hag61/7u6SedIbZd/fygepAUQereQOfkqaSEit03bHDjNfamXqMXEfd0rfkg/9IxunnSfIh6nh51OOoj7cOmtPOONuM4avZ0dwi6155RVKOtwJjE8o7y6vjlPSrw81xKZ/9nbTaAVU4Ia0e//bH/+//SV1Ortn21u3bTbfHGeddbJ1f55qx19dj6f74Pz+X4vfeM8dDt/aty1Zvztv6ywod0urQNLAuWxPS6jD+1HNk65SvrDFn23ZI2dRpknSYDs3t8++oy1H1r/jVoZL78CNWy2m1jbrFb3b/e822my6P7eVNAKyOUcb5F0tbQ/s/AYSC180E94KQ1kFdp0YP9mRIW//+R9KWu7aDenpn87zKQkRERERERERERMTQrbyxv3nmqp8R1434wHOZ6t8/Lm3562Rnba1s//u/PZfZXXqFssHUIa3u7njCuI/lqfvvkb8/84R8+upLsuS/E2T4c8/KawMfkjljR0nqvNmSv2qlFOTnSUFBgWdI63R1rEPa1Tk5ntvm2Oshrab5h8VSddWNUn7QkZ5ha3etOPQY2fbrs6R50WK7Jm82vT9WUk86TZIO6meFaMdZAZ8JOU85S8q/+VZaq6rMsutefkVW/OoQSbVb3PoCMO3RJ5lwNG/gk1K7Isks74S0urVjVyGt7gY3/YzzpHzmbDOGqUYHxCt+cZCkHNax1agOE5MPP05y775fauyWopqiv75udZfrtDQNEvLp7nR1y87i4e9I8+YtJrSrUdudfsb5ZpzawO3Voa1ueaq7K86+7S5Z+/Djkv/kn8z+pZ5wqglx3csHmnKE1fq14PmXpK252YSSukVufV6e1K9ZKw1r80zL4UAb8wuU66SxoFAa1xVJ6YcfmzFtk7sIhVN1qKyOQ+bVN0rzVrs74Y0lsnbgEyaQDGz5a0JPdc6T1HW48Z1R0rih2KyzfdUqWfvkUyGEtGof1TH78af/z3e96CC76C+vmVa9vtDcvc6JZ8jSn/9Sit55xxp7t63N7Ke+hnT3y6nqOg52/sz2qusi/byLpTL2B3MsWyurpPTjT9V26HPlfT70ccu54x6pTctQ52CHtKht1fUFrmO6+1bXZOrJZ0hrXZCwLgheNxPci0LaTtiTIW1nXRp3Ns+rLEREREREREREREQMz6q7H5TWlVkiLa3SkpQqtX/+qzX9rj9I0zdzTDiruznWvV22xCdJxZmXdChjd+kVxnamDmqXLlkkf3/lJXnhkQflzReelSGPPyR/e/oxefLeu+W9oa9LWvyPpsWt1glpna6O9Xi07la0JqTNzvbcNsfdEtK2bSiW+rdHma6JdetXrVfoGqpOGeW/OFi2D/6btNljtgZj0wf/kdSTOwlpZ85qD2kHvSwrDugkpD3saMl77Gkzjqwm3JA27fRzpWzmt9LihLRTvzItKk0rzIB1rJD2GDMeaW1Kqlleo0NB3cq0y5D2sGMlWR0n3TVv85at0lbfIFVLl0nGGed6drWrt9E5LisOOFxW/Pxga4xVVZfeFj0/WF1avZ4JaZ97yYydulO9SetX50juvX+QzGtuktXX3WLG4119w62WN+rfb5PMK66R1HPPl5SzzlE/z5PU09VPdZ50nV71OOpWobq73swrb5DmzVbLZL2feU/9UVKO062Q/YNvE3r2O860CN44eowJWDXb09NlzaMD7ZDWvyWsTzPNCmnjfvJ/20PaTaVSNHiICbaDhbRLnJBWj7vb1qaumQITgJuQVu9jYF22Tkibce5vpHL+QtPltRmXePx/JVlth+la2b2OXU7ywUdJ7l0DpD4717RkbtlWKXmPPqGOp3dIm3bKmYS0PSQhbe9KSIuIiIiIiIiIiIi4Z9XBa8P4z2XHplKRNmtYST1s3s7qGmmet9C0pjVdIzc17dGg1iuIDabT5XFq/HIZ/85weeCO2+T+22+R/jdeJw/efacM/8tLEv3VVxKfkGjGrnVC2jwnpNWtaE1I69+KdnX2HmhJu6O21jRnbklNl5bEZGnNWCVNs6Jl2xnnS8Xhx+1yUGsC2kOOlorjTpWWpGTTTW5nbJ7QSXfHR50gZV986evueMOwf5lwL+XQY3yBrqMODRMPPlKK//2OtGyzltddyWZde5MJRLsKaU2XyCecLps/myDNW7aY9auXxknm9TfJ8p/+TNJOOsMK2uywTQdqevvyn/ijqqc9iM6+4TZTli9ws5cP1AppdUvaEVZI29AgVct+lIwzzjPd/prQNWAdPc2Eg2pfdXe4RvW72Te9fJC6tHp7dJ15jz5lAlAdEOpundcOfFxWHN7PBNymS+Qjj5dktV9620wArNbNe/ZPsu7VwVL0zzcl+/b+ajmrfq96HPV26q6p084827TA1ehguOg1HZqeasJKv+XV+Uzc/3BJOfZkqZgzV9q218kOtXzV4mVW98M/P7CLkFYdF9Pd8U+kLmu16ZpZt47d8ul/ZeWFl5nQ1be+Xkf9rrurXv4/+8um98dYXT+b7o5zTEvlpP0PDa2741POlC2TpkhLWbkJecunfa2Onx6rNqD1tS5H1am7O17z0MNq2xqt7o7z8iT7znvMtgd2d6xb3a684BIT4IeD182kp43oMWn1OK7qmOpAsyt3lGyW7YP/4Vleb0pIi4iIiIiIiIiIiIi95Z4OaouTkj0DWbe6i+PE5BR5b8zH8upf/yF/ffZPMuVfQ+WT116R//x9sEwd/bZ88947krJooURHfy+fTf7aBLK+kLbAFdIGdnWcnS1rvpvnuW2OPR7S7thaJk2q0tqnn5PK8y+VihPPkMorrpfa516S7X/9u1QcdKRUHHFCt4JaZx0d9Jb/8lCpHz1WdpRX2DUHp+zL6ZJ21tkeIa3VXe6m9/5jugPWNKxZKznPvSCLfr6/FWjZ4aQO+Jb98kDJuPwaqZz7vQnLdMtGHbKuPP9iSVHbFDjGq1sTuKl9WKG2u+j1v5tufjU6zCx++10zzmnifger5az69Pi38QccIum/uVS2fDrB1OWQdLwVdPqCU4/6tE5Iu1GHtJvtkDbuR1l5xvlBQ1ovdVe+ZtkultetTJMOPkqyrr5JKmZF+7o73vrFVEk64QSJ3+9XpsWxCX51a90DD5fl+x8oBU89I7XqTVCvu0NeVyiFLw+WZB2gB7ZMdau2RW9X0mFHSfJJJ0n18gT76IhUL14qWTfeIgnqfJnWxnrZo08y5zru//5U1j7yuBnjV5/D1spKKf34M9MVsK8187G2AfWZctQ+Jvzkl7Lhn/82wbfex+0p6bL24YES/z/7mWNulrWvr2U/208yb7tDqhYtMdumWxjXrEiUlRdfYZ0DfQ7d9bi0rhkdxh4jG4b9WxrVsdE0byqRwmH/kh9+9ksrQLe3Tbv0wEMl/Y67pDI21izbVlcnVT8slvRzLzIhugmF7fL1mLZ6n3Nuu8uM5RsOXjeTnjZiQ1p1TbTExe/RbhxC0QzeXmm1CA8HvY5e16vM3paQFhERERERERERETFy3JNB7cY5cz2DWa1uNfv1zNny6JMvyi2/vV+uuv5OeWHQX+Wvf3pWPnvtZVk8bowkT/2v/Pjxf2RNRpokJqfLoL+NkPseHyyffT5DcnJzJd8V0lqtaDt2dbz2qxme2+bY4yFt9YAHpPyXh0n5fodIhW7tetixUnHwUVLxq37m57ajT5aKfsf7glqvMDaYevnyQ4+R8gP6SfU9v5edIXbRqkOqzGtvlORDj/K1XNTBlunu9cAjJOeuAVLzY7xpeWiWT0+X7D8+a7oE1q0xdfCWsP9BsvKmm6V0wkRpLt1slmvaUCzFb71rxn41AZgOylwhm1sTdCpX7HewZF13i2ybO092NDSYLnDrsrKl8LW/m5aOuvtZPd6sHjN21dXXS+kn43zhnO7qdvMnn8mKAw+zWpnawZxPV33angppQ1Xvnw79dNe/hX95TW3xTtN6VAfRmz4YI6suv0qSDj/GtJ7VXQ6nnnym5D33omxPTjbHQVO1YKHk/PZua74TKHrto/27bmmcdNTxsuaBgdKmytChaWtVtZTPniO59/7eHANzTFV5uoX02ieeMoGpbkWr0S1i8//0vMT/bH+/sNNXj7s+pQ5VEw/sJyuvvEbqc6zuhFura6RqyVJZ++jj6po53OyfbqGqA+vVf3hYyudES0u5PWZusbpm3nnXalV8xPGdXzN2fXoM3Zz+90mlOjZOWF+n3vxrBr9mxjPW9VjXzKGy6ncDZOt3c9W1st1sW2PxRtnwz3+Z4xR4jSap90Py0cfJ+teHmGXDwetmgmdL29r8iAhoHfU4AbpVbDjqdbzK2h0S0iIiIiIiIiIiIiJGlr6gNjFFtl16g+cyvWHppxOlWGcyAW4o3iALf1gs199yj1x9/V1yxTW/lUuvvEXuue8RGTjgPhn9zOMy9+1/yqKJ42VdXp7p3vib2d/Lbfc9K9f/9mG57e7H5C9D3pElPyZIdm6uL6B1ujpenZNtAtqs1dlS8MFHntvm2GMhrW7RWvvUn6T8wCOtYNbVWtanntbveNl2/qVSfvBRUq5b1erXHoFsoHrd8v0PUz+Pl+2Dh5iAVgdyoVCfVyB5j/3RtDrU3QS7QzAdKlpdAr8jjes3+MIqHd4VDnpV8p98RtY+/IQUvPCiVERHS0tZmZmvxyStmDVHsm64TRJ14Hn0yX4BmAnY9GvXNK3uvjbx0KNMiFmfnWPq0y06m7ZskU0j31f1DJL8p/8k654fJOXTv/GFe7pb3e0paZJxwW9M6OgOMJ26dKCng1KnLiekNd0dOyHtsjjJOD14d8ch6a4zoAzT8vOQI2XV5VdLzY/LzTnStlRWSdnUL6Vw8OuS/8fnzf5tGj3GjFnr0Lx5sxSoa8h0w6vOi1OXo9k/d53277rVbeIvD5WKufN8Iabuxrh68TJZ/9pQU1/Bn140rVHrMlebY6nRXVyXfPSxpF/4G0k8sL2VtVGV79TlPqb6tdnHI46WkrFR0rSpxHcdbk9NM+MF5z/7oqmz6K9DpGZFsrRt327mt9bUSsXsaHVsrjHhqlOm0anL3kdnmjbl8GMl9aQzZMM/h/taYGuaNm2Swj+/YsYA1nWue3GQ+YcE5xjoevU/A+j6kg49xvcPCs5+JB1yhKSedoZsVeclXLxuJni21I/5OGICWkRERERERERERETE3WHDp5Ok8fNpuzWk3fLw0yaU3bhxo9EJaXUXx8++OFiuufEeufLaO4yXXHGLXHHVTfLco4/KB88/LT9+N0dWZqyUH5ctNePQDnjsz3LtHY/IFTfdJ1crb//dE/LQk6/KBx9NlEXLlsvKrEzXWLRWSJuZlS0bf/+457Y59khIu1Mn4CmpUv6rw6VcB7RHnijbtO6Q1QlqdSva409TJ2Oq1Nz3kJQffLSU/+IQq7WtHq/WCXftQFe3xi3f71BVdj+pvv1uaZo1R3bYLVlDpbV2u2x8e6Skn3WBFXC6giqnZWTWNTdJ2VfTTeimxxrV6J86uNUtXZ1pOo4zLScXLpK8J56xuuUNaKGof3fGdNXlO9ONeszQAw6W9PMvko2j3pPGwiLZ2dpqla1bgVZXS1PxRl/Qpqfp3+tWrpINQ9+UxEP6mVaRvvrsfTDd3uo69U+9DUorpD3R7HvL1jJpa2yS6vgVkqFb0h5wWMdtC1HnuDnd57r3Pe14Ve/hxxjX3P+ICbv19jvhd+v27dKkzp8zpq8JcdvaTNfBW8ZPlJXnXyLJB9khtC5X12XXp7ufdrr3NcGpM19N062es265Xap/XC6tlVWmTI0ea7Vp8xZTvoPelpbKSin/eqZk3XSrOR+pAd0b69f6/Dn1uedpk9T1uPI3l8vWyV+YsNR9zehxeJtKSv3Pa02tVC9ZJnlPPmO6eTZdOdvbb+pz9s++Ztx16v3TLb6zrr1ZHaNJfteo3pfmbZVmH53WyKYb55oaqV2RKPlP/UkSDzrCXKfuMvW5011Br77+VtP9crh43UwQERERERERERERERH7hGdd5gto3UFtTs4aua3/A3L1jb+TK6+/y4S0F19+s9xxxz3y71dekveefkzSlsdLXl6+JCcny9sj3pMb+z8m19z2oFx18/1y1Y33yfW3PSS33/OUDHj4z/LUi/+QTydNkx8TkuyANkeyVueYkNZzu1z2SEi7Y/NmqR/1gZT9z698Ias7oA0ManV3yE3fzDLdgjZ+8aVsf/EVqbriBqk4+mQpP/AIO5Q9wixbdek1UvvMC9IwYZIJgndU19i1ho4OsrZ9FyPZt/c33cyasWaPaw+sdHfFujVs9u13yebPJpjxSnXXwrrFpWnpqoPE1lbTRW5zWbls+36B5D/1rKSeeJrp1taEhk7Ypn/XAabaF22HENP+fcX+B0naOeebFry6vpZtlSbM3NHSYkI2/VO3hGzeskVq4hNk/Wt/N+Xorm3dLTv12KkmKD72ZMk45yLT7W2Kmu4LaVX9G/79jgmDdctRPXarCat1S1q1nb5yQtS3f+p8puggU4+NG7CP+ncz3unBR0v+43+U6rjlJrQ0x7Sp2ezfzhZ1PBsapFXtd2PBOnXcJ8rKCy4zx9M3Fq2uy1Z3V7zy3N9I6vGqTq/61LSE/Q6Q3AceNq1VG4vWm8DbnENdX6s6po2NJmDXIXj5N99K1vW3mABTB5Z+9anfTUCrfibrn+o6dNdn6lT16cA/6/pbpeTDj6VudbZpXa3r0NeKOYdNTdKq9ll3j105f6HkPfFHSep3rCQefIRfq11TpyovTV1PaSef6dsfd336mJj6rr3ZtOCtW73a7IvuMru9vmZzzejupSvVNapbD+uW4+YadZWly9ddMuvupov++jd1XXQ9rnMgXjcTRERERERERERERETEvqLu8jgwqE3PWCk3//Y+ueqGu5X95fJrfiu/uexGefSRx+Wzd/4tUYNekNSEFZK5KlNSkpPljgFPyjW3/kEuv2mAXH79PXLljffJtbc+KDfe+Zjccd8z8rsHX5QH//i6vPHORzIvdokvoM3voqtjbY+EtG15+VL72B+l/IDDgwa0bst/dqDUvzdW2nRrw+3bpXV1tjRFx0jjhMnS8NE4aRj7kTREjZPG8ROlaVa0tGas6lY466axcL0UvTZEUk85w7TyDAzdTFC7/2GSfvp5piveitnfyXZVrw42W2prTfBVFbtINr4zWrKuu9kOv47uEHTqsE0HfKsuu8Z0hWwCPydw03Xa9er6dTCcfMxJsubBgbL50wlSvTTOhKlNW7ZKfX6+VM6PlY1vvys5d/zOBLGmFbBeV5dlh8ypx5wiSXqM1IsulQ3/GCZJaruS7FaTKUecYELatQ8+JqUffiJbJn4uxW++LWm/PtsaO7abIa1plXni6bL20Set46mOnQkZ3cupsnVLzcRf9ZPMa2+SDf96S7ZFzzVhZlNJidnPmvhEtU1fSP6Tz0qaKk8vq4+dKcN1nHT58T/dXzYOf0cyr7zedOHstZwOjFfocVkvvlKKXn1Nyr76Wp3DlSYgbtpYItvT0k0X0kWvvG4F1YfocWrVtjvlKE05x50qK351sGT3HyArL7naLKODWlOfSz1Njxebfub5JoDdOnmKbE9OkcZNm0y4Xp+5Wir0wNT//LdkXnGdabGdpAPaE07zbbfWhNxHnyg5d90ra/7wiLoGz7XOj2sZU5++Bg48whz7vMefVvsyQ2oTk6WpeJM0lZaaFt+V8xZI8T/fkqwrbzBBvN5HdxmmHHXs9PTV198i2+Z8Z79DwsPrZoKIiIiIiIiIiIiIiNhXLLv0Rtm0aZNPHdImrEiSG387wIS0V994t1xy1W1yyeU3yYsvDpKZn30sC2dMN10dp6WkyvvvfyhX3/6gXHpdf7n4mrtMSHvFjffLlcob7hgoN9z5iPzu0VdkwJOvy90D/yJvjhonSSnpJqTdfPH1ntvktkdC2ta1eVLz8BNScUC/0ELanx8sdW+NlLbijXYJu4fKud9Lzm39raDLHYDZvzvhlQ7SUo47RTIvu0Zy77xHcn93v2Tfcoek//psSTrUmp/cTweh/uGX1nTVe/ypJlAs+3KarLz4ChP++o13atdnAsjDjzNd5yYdfqykn3WhrL7xNsm+/W7JvO5mST3tHElU25OotlcHhf51qTJ018m669xTTpfit96R5k0lJgxd/L/+l9mG1ONONS1BTcB7+DGmFbEOTvV+6roDQ8BQ1K1OdWvd1TfebsLktQ88KkkHHG7KDVzW7J9e/qAjrHDylDMl84rrJfu2uyRL7efKCy41+6XDWV2mDpyt8Ll9u3TwmvizA2XVxVdJc2mplH01TdIvuFASD3IdU3ed+hwefKSpU4evqy65SlbfeqfkqPOnf9eBuen+Vx1XHYz61tXl6GOiftehd8qRx0nV/FjZ/Nlnkn7uBbLilwdZ9TnL2+rydGCvA1i9rysvulxdK6q+394tq664Vp0Hq7V1stomHZr76nKVoa+ZtJPOlLKpX0nN8gTJGfCAJPziIM/zY1rwHqrq08dUXYMrL7xCVt/8W8m+VR3TK683LXF1K1l9DPR5D1xfm6zWTz/tXNnwjzeleas1xnK4eN1MEBERERERERERERER+5Kb3xzhF9QuXhon19/6OxPQ6qD20itvlauvu13eGPoPWTjrW0lLTJSUlBRJiI+X239njUN70VV3yG+UV9/6oFx6/T1y6bW/k0uv+51cf9dA6f/oy3LvE4PlrodflpeGjJBFS5dL4evDPLcl0J5pSVu8UeqGvinlPzvIdHfsFcxqne6Oy36yvzR+/qXs2FZpl7B70OOTbv7oUzNO64oDDm8P3ZyATmu68j3Raq15hB5v9nirO2Gl+ammm5aP9vLuwC1V7Xv8T/aTtQ8/JjUrkkz3yKWTJsvi//dTSVX7b7WADahPq8rTrTJ1nX7qOtVPHQRadel1bVU5SYcfLSsO7SdrHntc6rKyTLe3DWvzJPXM8yT+f36u9kNtr1pO74/ebqMOaNU++rbf2aZgmnqt5fTyKw7uJykXXGi6FN6h68vLl/RzLpYVvzjIHCP3uk4d1v5Z+6SDSnMs9XHV0/QxdW2TO6TV0xPtcusyV1vjvZaVSeHfhkjSMcdL4kH91Dk8zVefU6c+XmafdUtip64jjjPlBB4Dv3WVev4P//v/Ssmnn0mLqquxqEjWDX5NVhx5jNVNsWt5s47eP12Wrs+1j7o+67pRr9W5da4Zs56rXl3n4v/5hWz44ANzveiuh7dMmKSmnyor9jtE0k7wD4ad+vQ+JJt6nGOqta8XvX++a8alWl/P0+MRr+l/n1QvXmq6Se4OXjcTRERERERERERERETEPuVZl0np0jgpKSkxLlq8TG767X1y3S33yeVX3y6XKW+5/V75YNRISU1JkVWrsiQ1NVWGDf2nXHnLH+Tiq++Qcy+5US6/4V657q7H5OJr+8tFV99lpt1w1+Ny5x+ek7sf+rP89vd/kj8OGiaLP/tctp5xqfe2BNgzY9LW1JruinUL2Yp+xwdtTaunlx92rJQfeoy0pKZ3OyDaFZo3bzFdCCceeqQkHnCY6Nab/mGWK3jTQZcOvIzqdzvYs5a3wzb7tQ7HVvz0ANNdbdUPi83YoKa+8nIpGT9B4n7yM9HjybYHrra+4M1Vp6O7Ph3SuUJaqzVlP1n76ONSvSzOjO+q0eOg1iSnSuaVVve6uoVr6rHt5fiVF0w9P0AdQK444GBJv+g3svnzyWb8VT1Wrx47t1rt7+rrbrHrO669fNf6pt7A/QvcR629ng4cdXkZF11mBcLNzdbYwOqa2b4yU9Y++UdJOuJYq8WsKsO97U55fvU5wWXgMbXV03Xr0xX7/0rWvztSGouLTeit69VdJq975VVJOky3oj7St08d6jT1KfW10kl9+vcUNV13lx33P7+Q4jFjpGnzZnP+dJ1NG4plc9QnkmRaGR9ulvUF/Pb67fXZ++fori9AfUxX7HeorL7lTtk2Z6601nS/C3GvmwkiIiIiIiIiIiIiImKfUwe1eXlSWloqixYvlRtvv1euu+Ve09XxZdf8Vgb8fqBMmfRf04I2LTVNfoyLk5vveEAuv+53ct4lt8iFl98mV938BxPS/uba/nLBZbfJ+Wra9Xc9Lr/9w5+k/yMvye1/eF4eefBPUnrab7y3wcMeCWk1O0o3S9Xl10nFIUf7glonrHV+rzj8OCnf/zCp/ePz0rZxk73m7ke3jtz49ggxXekeYAWZVnjaHrp1qissM60n1T7rlrlr7ntQqhYu6hB+6dafG0aOktRTzjJd0abo4FTV55TjWYdbp77jrPpMd8vqeK595AmpWrBQ2mqtQFhjgkxl+bdzJPu3d1vdHR+q6lTLB7bkDaqznNJ056vW113kZl5zo5REfSzNW7fatVnsaGyU8m9myeqb7pAk3X3zIUeZ7XSX41mPo2s500LUrm+Vup62/HeyaWHqRtdXtWSZ5D/7gqSedLoJanWrVXc5nvW4tZfToWZKv+NMnemnniPrBr0ijes3mPDZQdenx35d9+eXJeXYk0331HodE4R2sz4d2OtzWPj6EGncsMGuycIJaje9N8a0hNbdQesulc01Gmp9ts41qsNlHfhm33a3lH01Q1q2bbNr6x5eNxNERERERERERERERMS+aNlNd5ug9utvZsstd94vV15/lwlpL7/uDnnqTy/LwtjvJSUlWVYkxMu4j8bJ1TcPkAsvv13OufhGufCK2+SqWx+Uq29/WC69YYCcft5Vcu5l1rSbf/eU3PGH52TAvU9L8qkXe9YdzB4LaXfu2CE7amqk4qCjpHy/Q6Xi0GPaQ9ojTpTyQ45R0w+RbSeebpbb0+jxWzeNGCVZV91ogjAdnpowU7eANEFYx/FHHXVrSRO06bFGDztW0n99juQOeNB0H9tWW2vX0I4+Ni2VlbJx1Puy+qbfWuOUHqrW9asvuCbY0+HnwUeasVvTTztH1r34igkqW6ur7Vr8ad2+XSqi58rahx+X9DPOMyGfCU+P0GPpnuI5vqqjDqtNt7gH2y1HTzlT1tzze9k68XNp2lhi1+BPa1W1lH053bQkTjvtXLOdel1Tn0cdgZr61Pbp9fS4qjn975Mtn02UlrJyuwZ/2urqpCYhUdYPeUMyL71aktT+6bFdTcth3ZrUow63OiRPPkxtoz4m6nhkXnm9FP/z31Kfs8azhXdbfb1sT02Xor8NlYyzL7LG+FX7Z+pzB+5BNGG3cw7U9un61v99mDSuK/ILhB10UGtafb87WrKuvdlsowmvdVgbGIB72B4G62vmGHUNnC+59z0oFd/MCnpMw8HrZoKIiIiIiIiIiIiIiNhnPesymfLm23LTHfebFrQXX3GLXHlDf3nlr0Nl2dJFkhD/o/q5WB594nm55Oo75MwLrpPzLr1JLrjidrn8pt/LlTf/QS67foCcdNpFctZvbpQrb3lAbrr7CXnm9odk/YnnedfZiT0X0totOHdUV8v2QYOl4thTpPz//lLK/s9+UvaTA2TbKWdJ3bDhJqDVy/UFdNBXPu1ryX/6T5J52TWSevypknTY0Wbs0SQdoh52rCT3O85qaak1waOap4O2I0+Q9NPPk+zb75YNQ96Qmh+Xm66Gg+EEteVffyP5f3xeVl12taSeYI0rm3hwP1XmkVYA59R3uLs+NU+HnSefKatv7y8b3hwudauzTQvPzjAtThcvlfV//6esvul2tf4ZZj90y9OkQ44w9el6fPtnQsQjzTwdQqYc+2vJvOI6KfzL61L5/QIzRmtntKr90109m/puuVPt32l2UGjvg6nv2I71qf23umU+xQSShS8Plm3RMdJSXmGX7M2OpmZpyCuQzePGS87vfm9awpqwV50709pYn0O7PuuYHqvqU/P0/qljm3LMibLygktk7cNPyJbxE6VxXaFdsje66+OGwiLZNPoDydX1nXGeuQ6SdZnONdOhPn081flV15UOWldeeJnkPfy4aSHcVLpZdrYG7/Jbv090CF8+XV0zTz2rrtGrJe3E01S5OiBWZR6qj6l1jRqda0bXqebpgDz99HNl9W39pfhf70j1sh9NmN4TeN1MEBERERERERERERER+7KbTrlQPjz/KhPQXnT5jXL1Tb+ToW+8KYsXxUrcsqXyXXS03H73Q3LmBdfKGRdcLWdddJ2cffGNpnvj31zdXy699h459sSz5bTzrpJLb7hPPrr45m4FtNoeC2ndtJWUSmt2jjQv+1Ga5y+Ulh/jpTVnjezY4t9Nbl+hLivbtBJd9/wgybzqBkk5+VRJOuZ4q+teHYI56hDshJMk48KLJfeeP5jgq3LBQmnWYduOHXZpnaNbTW7PzJItkyar+v4smVdfLyknnSzJx+jybe0wM/nI4yRF13f+RZJz9/2m5WXlosXSUlER8ni+O1papXHDRqmY/Z0UvfZ30wVy2q/PlOTjjjfBr7Vvdn066DvmREk97QzJuvYmWffnV6Xsq+nSWLTeBJShsKO5xbS23RbzvRS9+jfJvq2/pJ12liQfe6KqT5XvO5ZOfcdL6q9PldU33CrrXnjZhNgNBeukrYsA2sfOnb5WtRuHj5A1f3hUMi64WB03dUyPUuU7x9Pso3qtjmnyiSfLyouvkLzH/yilH35sujLWZYSCPs96vOGa+BWy8S1V3+8flpW/uUxSVJmmbOd4GtX1o7Yh5cSTZNVlV0neE89I6UfjZHtSSpcBuxtdZ52+ZiZMUsdokGRdf7O6Rn8tyUer86f2L0nrOocpx1nXjA6SN/zrbamM/cEE3j05BrTXzQQRERERERERERERETESzDrxXHntnMvlqhv7y5DX/y4/xMbKkkU/yL/+/bZcfv0dcsJpF8oZF1xj1EHtOZfcJBdddZcJaY885hR5/sRzVBndC2cdeyWkddjZ3Cw7Gxpkp0d3rn0NHWbqsLUmbrls/XyKbBj+juQ9+YxpoZlz572y5v6HZd2f/yKlH4+Tbd/Pl/rV2dLq0bVxqOzQ446WlEr10jjZMnGybHxL1ff4M5J7j6qv/72y9g8PS+FfXpOSj8ZJxdx5puVs4Fi34aC7z9UtebevXCXl02fIpvfHSsGLr5j9yrlL7d+AB6Tg+Zdk44hRUjZtulTHJ0izCfZCC58D0YFga1WVbE9facarLVH16S6a1/7+Ecntf5/perfg2Rd89dUkJpuxe726/g0F3eq0raFR6vPWybZ530vpuM+kaMg/THfPuXcNkNy775O8R5+U9UP/KZs/+68J1xs3FJvwubstu9vq61R9eVIZu1CVOUHWvz5U1j4w0BxPvY+mvn/+SzZ/OkGqYn+ww+7uvxdMAK6uGR0Q62u0+N/qmnnsackx18wA09X0upf+IiVjP5RtMeqayVLXTIjhc7h43UwQEREREREREREREREjyaITzpWEy2+Q5KFvSsJ/ouSv9z4kp593hZx42oXy67MulVPPvULuOucKefi8a+T1C2+Q7864VNYde5ZnWeHaqyFtJKODO92CUYebPrsZ5oWCqa9N1dfWZtWlf/ZifRqrTld9IbYG7i7W8dT12fZ2fc4xdc6frr/Xz6F9PPX+9fI59NXnPoe9WJ8br5sJIiIiIiIiIiIiIiIihiYhLQCEjdfNBBEREREREREREREREUOTkBYAwsbrZoKIiIiIiIiIiIiIiIihSUgLAGHjdTNBRERERERERERERETE0CSkBYCw8bqZICIiIiIiIiIiIiIiYmgS0gJA2HjdTBARERERERERERERETE0CWkBIGy8biaIiIiIiIiIiIiIiIgYmoS0ABA2XjcTREREREREREREREREDE1CWgAIG6+bCSIiIiIiIiIiIiIiIoYmIS0AhI3XzQQRERERERERERERERFDk5AWAMLG62aCiIiIiIiIiIiIiIiIoUlICwBh43UzQURERERERERERERExNAkpAWAsPG6mSAiIiIiIiIiIiIiImJoEtICQNh43UwQERERERERERERERExNAlpASBsvG4miIiIiIiIiIiIiIiIGJqEtAAQNl43E0RERERERERERERERAxNQloACJtN5VVSUlFtLN1WI5sra41bqrbL1uo6Y1lNvbG8tsFYsb3R57a6Jj8r65sRERERERERERERERH3GQlpASBsCGkRERERERERERERERG7LyEtAIQNIS0iIiIiIiIiIiIiImL3JaQFgLAhpEVEREREREREREREROy+hLQAEDaEtIiIiIiIiIiIiIiIiN2XkBYAwoaQFhERERERERERERERsfsS0gJA2BDSIiIiIiIiIiIiIiIidl9CWgAIG0JaRERERERERERERETE7ktICwBhQ0iLiIiIiIiIiIiIiIjYfQlpASBsCGkRERERERERERERERG7LyEtAITN3hTSBm4LIiIiIiIiIiIiIiL2bb2e90eahLQAEDaRFNIG1oWIiIiIiIiIiIiIiHu3XnlBX5OQFgDCpi+HtIFlIyIiIiIiIiIiIiLivq1XnrCnJaQFgLDpayFtYHmIiIiIiIiIiIiIiIheeuUMe0JCWgAIm74S0gaWg4iIiIiIiIiIiIiIGIpeucPulJAWAMJmT4e0geuHo3s7EBEREREREREREREx8vXKA0LVK4fYHRLSAkDY7MmQNnDdznTXiYiIiIiIiIiIiIiI+45euUEwvfKI3paQFgDCZk+EtIHrBNNdDyIiIiIiIiIiIiIiolee4KVXPtFbEtICQNjs7pA2cHkv3eV3pbNNiIiIiIiIiIiIiIgY2XrlAMH0yhcC9copekNCWgAIm90Z0gYuG6i73GC6b9aIiIiIiIiIiIiIiLj36pUTBOqVN7j1yit6WkJaAAib3RXSBi7nZW1dozTUNyEiIiIiIiIiIiIiInapzhW2Gb1zB0ev3KInJaQFgLDZHSFt4DJunXLqPG6uiIiIiIiIiIiIiIiInbldGSyzcOuVX/SUhLQAEDZ7MqR1l9PQ4H1zRUREREREREREREREDGqDf97glUdovfKLnpKQFgDCprdD2sD5ju4ytJ43VkRERERERERERERExC4MzBy8cgltYIbRUxLSAkDY9IWQdpvS66aKiIiIiIiIiIiIiIjYle7MweQOHrmENjDD6CkJaQEgbHozpA2c5+heX6vL9LqpIiIiIiIiIiIiIiIidmVgdqH1yie07hyjpySkBYCw6a2QNnC6o3tdrVOm100VERERERERERERERGxK73yC61XTqF1B6w9ISEtAITN7gxp3es5OmV63VQRERERERERERERERG70iu/cPTKK9wBa09ISAsAYbMnQ1qnPK3XTRUREREREREREREREbEr3XlDYBbhlVe4A9aekJAWAMKmN0LawGla9zpa9w1T63VTRURERERERERERERE7MrAzCEwk/DKLQKD1l2RkBYAwqYvhLS6bK+bKiIiIiIiIiIiIiIiYle6MwxtYCbhlVsEBq27IiEtAITNnghp3TdKp2yvmyoiIiIiIiIiIiIiImJXBuYYWncu4ZVbBAatuyIhLQCETU+HtF66l9e6b5JO2V43VURERERERERERERExK4MzDG0gdmEV37hFbh2R0JaAAib3R3Sum+QTrlar5sqIiIiIiIiIiIiIiJiV7rzBncO4c4nvPILr8C1OxLSAkDYENIiIiIiIiIiIiIiImIk684b3DmEO5/wyi+8AtfuSEgLAGHT2yGte1mt++bolKvr8LqpIiIiIiIiIiIiIiIidqVXlqENzCgCMwyvwLU7EtICQNjszpDWfWN0ytQS0iIiIiIiIiIiIiIiYnd1Zxladx7hzikCMwyvwLU7EtICQNj0ZEjrdYNzL+u+KbpvloS0iIiIiIiIiIiIiIjYXbsb0mq9QtdwJaQFgLDZ0yGtU4fXTbVn3C5l5WXK7R7zLKvN/DKp9phnWWmVUR28jF0zSUY98KTcOCRaijzn72E3RMtzevs+SfKev5t1zpd1TryXQURERERERERERMR9x2B5htadUwRmGFqv0DVcCWkBIGz2REjrlKd16vC6qfaI1fEy7JEn5cYnPpMMr/n1WTL2CTX/gSdl8JIyj/lNUjRvSKfzd11C2q4tk9XzRstAfS71trjs//Jo+Ta3t85NBFm6UP7+wiB58PN07/mIiIiIiIiIiIiIe6mBeYa2q0zD0St0DVdCWgAIm70+pK3fLovf12HeEPl2g8f8ginyoBP4vb/UozVtmSwY3sn6PSIhbaeWq+PzgnWObntiiAz75ntZnhSv/F6+eH+I9LeD26cnpEuZ1/r7in2sxTMiIiIiIiIiIiLi7jIwz9B2lWk4eoWu4UpICwBh05shrXs5rbO++ybp1OF1U+0py5b824R4Xi1hnVayt+mg75GxkhQwv6E+Xt7WwdcLUySvwzztdlf3u5Ue84NYrbtQdpbvbkjbE3X761leCOGfe73g3UYHWK2X76oL6fXy7RBV9wPPyKA5ud4hbOlSGfaMXuZJeW7e+o7zHU19lqFvo93VtTakrpWd7rW1oXaPbZ9Hz/Ld9XdRXsghbc9fN4iIiIiIiIiIiIh70sA8Q+uVaWjdOYbWK3QNV0JaAAib3RXSOutqnfKc8rVeN9Ue0wmvOrSUtVvJPvGZfPvNILnxgRdkbJZ7vjLrM+mv1n3wm1z/6cG6331kkAyb1zFMdMLgUemVkvH5ELnNLO+Ewt4hbVn6WBlgynxDphW4A7qerNuyLDdahr38TEB5Q2RsUkmn4V9J0mfynN1ddPt6z8hzE+KlJGDZpE/0fN0ieb0seHeQtR1dBNPOtg/scPwD3DDd2sZH/i0LSv3nee7bA8/IwPejZXW5/7K+Y6X2e/kE51i51vlwaYf9srSWd1r1OuqWv+YY+i3rOt8bdBfF1rL+AbN3ef2HTzHb3H4sreWt1x31L7PnrxtERERERERERETEvqA7bwjMNLTuvMKdY2i9QtdwJaQFgLDZJ0La+lz5QgdhgePSVi+VYQ88Kf0npAcNY/M8w9tKSfrkBRNg3fbyv+XjWN31rjJ2kgy2A7cBnyT5hV5O4PXckDfkNh32DR8roz5ZaLfO9QhpdTCqw7RH3pAvct2tF3u6blcYrOY9/WG0LDBdCS+Vbz+0grnnPhkrT+v5ASFt0TxdntqOF/R2pMvqDQWSkfS9fDzcCmBvCwhgrSBxkNoOtf06yH3/Ixk1p7Muiu3xgh8ZLYtDasXa0fage4i8PW+pZBSUyOr09n278ZmxkuQKap1jNeAZtY3PvGGOb0ZWlixfMsUXpgYe3/bWvur6GT5JvkvPlaICtY7rnPiHpfb5fuENee4ZK8gd9slHMi3daendXp51bAPOsdrmUe/q+e0hbUmunj/W6rr7n5Os5ZVJG5xwv+evG0RERERERERERMS+ojtvCMw0tO68wp1jaL1C13AlpAWAsOkLIa2uy+um2pNmTNAB1SD5osA1PX2sCepGpevXSTJKh6J+wWKJFZYFdINcsuTfZr0Bn8R7BIztAduw5e3hqhN4dWwVqw0IacvjZZTpvvcF04rRvWzP151uBaEedWnbA1ylO6Qt/V4G6WkBIadleyA4KLa9i2lfa0+1zvIO63gYtAV0qNr7pvbbazxhJ2Q2Ib1vmn2snvDaxlz54mW9D4PVcWyfXhL7hlmnY3ir1OPpmnP5hnzna+Frn2+zTsfz6JQXGHJbtp/jDuMkd9biucevG0RERERERERERMS+Y2eZhtadV7hzDK1X6BquuzmkbZOmmmopLy6U7MxcWVNcIbU1jfY8AIgU9pWQ1glkn5vX3vWsCW59rTS3y+L3dVD1b1nghHN2S1v/kNAJtNyhW4BOgOkK2ZzAyx0ItusKaX2hnldo2vN1Vy8f3SGoDNQKuFWZrvAvb85gM23Y8iDnzjl2ru1wQlp3cNup6pwF1mtZJklzPpJRnwRxSYFZztm3gXOs1x21W1i7QnjnWHXs3tp/fvv4xgUyTQe3nbT21duh12lvTeuEtF7n0S4vlHMcckjbG9csIiIiIiIiIiIiYt9xnwhpW8sKJW7RIhk/Y66M83SeTFuUJmvKWuw1AKAvs8+EtB0CVzugcwWwTpjmCx7tYLc9kHOV4wqzOrpepv1Vh2Idwz+/snzaod1fx8ooE6a9oLYhcBxTZS/UbXXn7LQmDmKHsNQJtAfJ2063uR2MlrdN2Ny+HVZI6zHubzDTPzLHv2PoWCLfvTtIHnwh0Gf8lnf2bdA3Xttn+fE/9Ta1h53OsQoaPtvHwhe4OufkhbHynUf5xnmjrdbIvv2wz3dg99vu8ro4x1boGmJI2yvXLCIiIiIiIiIiImLfce8OaZsrJCN2vmcoO3H2PM/QdmLsailvttcHgD5JT4W0Xjc393Lum6FTnlP+bglp68tkwfAn21tNFkwx43f6BVDlC2WwmnabHXJZLUhdLWu1ThAWUoj2hnxrt1x0Ai/vMNRpWWnZ//2lHl3SKnuhbqd1a6ch7YbpAWPSOnWEYmBIGxAsdmapvb/DF3ofj0CTrAC1/4Qs89rXvXKXdgxpgx6PwJDWOSehGBjSep3HkM5xkyz/UJcZYkjbK9csIiIiIiIiIiIiYt9xV0JarVfwGo69F9LW5EvMbFcAG71c4jJLpKqxzV7ApnG7bMlLk+ho17Kzl0t2TcByANBn2N0hrVOW1il/94S0TuhkjUtr/R7Y/asdVJkWjvbvHYKteHlbB15/nd5J4GW30vVoldhpSPvXSTLNHsu1vWtctz1fd5HdbfHbSR3n+bTDT3f4Z4WEg+WL3DIpK+/M9i6bww5pQ+n616XTLbPTCtbZt2FLvLbLbaWvNXWXwWRgSOs7J1NktWfZLqud67yTkDakc+y0eg0xpO2VaxYRERERERERERGx7+iVaWg7yzXcegWv4dg7IW1dvkTPdELX+RKTWSGt9qzgtEh55nL53AlqZy6XNXX2LADoU+xLIa3Teva5eVlWq1qPkMzqInewTMuyWtV2HJu0vcVh0OBQ1TNQh2KuFqAhhbRme9pbqXYManuh7qzPpL+ad1uw1ru+ro2VrvDPKTNot8DlBZKku/rNWu8LQMMPaZukZMm/TRfGA1Tdnbam1QHlI6r8l6dInjPN7q46+Ji0JbLadElcEOJ5UnYIae1z0smYtGUF6abb44wNoYS0ZfKd6YJ5sPlnAv95ts45Djmk7Y1rFhEREREREREREbHvuBeGtBUS72sVu0jiNzstYhulKG6RTIxOaA9f6/IlJnq+fJO81Z6g2LxSpjlBbfRKKbcnA0DfYZ8KaeuzZOwTT8qNQ4aYMMszvHOCXLVMsPFTy5aPNuHfbV4hW3m8jDJjsb4go9Lb9yv0kFa9Llev7TICx6bt+bpz5QvTWtV7HNwSVZ8ZT1XrDv/Kl8owHYo+M1aWu7uDNpbJ8g+tVq3u7qS7E9K2B4xPyoMfLvUINZUF38vf7f32P1/2vj3yhkwrCLzGtkveHOu4DLC7R9aGH9K2n5MBn8R3DJLVOXlbX3OP/FsW+ALSzkJa9znWrXMD5perfbKPR9CQ9sN4/3WUPX/dICIiIiIiIiIiIvYd97qQtj5jiR3QzpP5Be4ui53wVk+3ppTE2+PVRqf5h7EFCTLRDmpnZdTbE7vDVpk7ZqQMHDpBFtTak7pFrkwaMVbeTq6wX/dhKpfJ22pbJ+XZrwF6gX0rpHWPU2p1e9xxGTvI1cuYbo+9lqlU5QyyQq8nhsiwb76X5UlL5dsJ/5YHdXCppge2gg0rpNWWLpVhvuCsvcvgnq9b6bRCVcv0HzJavoiNl+WxU2TYkGdUPar+eZM8W2iWpY+1AtxHBsngz/V22Ov99RlT1oB3F/oFgt0LabXrZcG7Vuh74yPPyHPvfySjPtGOlcEv623U0wfL2Cz3cbJ19k2v92G0LNDbuCRaxg63j+FfJ0mGqwVsd0Ja65xY23fby/+Wj/XxU/V8981oedoc1xfk70vcy3ce0rrLM8d2gt5u6xwPVOXpoHWa15i0vmv3GXnaPkbT0p2QvBeuG0RERERERERERMQ+4l4W0m6WJfY4tBOXrrenuajZLEXF1VbXx23rZb7dJfLn8ZvN7HbapGjpPCvAnZ0iJfbUsCmdJ68M1SHtSBmasCsBa5aMUWW8Fudq8dtXKYuV19S2jsmxXwP0AvtaSFu9fLQVfgUNYNuD3Ns6dBvrdrsUJX0mzzmBru1tL4+Wb3PbW486hh3San0B4yAZleQusyfrti2Nl7EmlPUoL2g3uk1Slvu9vB2wnt7eYfOyOrQq7X5Iq1X7nB4tb//zhYC6XpBBE5ZKXofWvC7Vvn1sh7Lt6z0jz02I7xCSdi+k1VbK6tixIZ6TrkJarSpv3mgTyvrKc21zsGNZlhstw5zgWum/nb1w3SAiIiIiIiIiIiL2AfeukLY4xW4Bu0gSq/SEetmSuVqyN3VsDduUGWeFsL5l1dKbciUjc7NaS1HldHs8X5YUm9lhUxAzVgaOiJavZ74nA0fPkw32dIfqvHny0YIsqbZf+6jNkq+nz5NM3frW/D7JhL3PRk2Tj6bPkI+S3RvUKuU5sfLRuCh5cUSUvDl1nvxY6l+iqWd6omxoKJEf50yS10aMldfGzZC5OVulxVpCchNmyJtjxsqLYybJRwl5HbfJr54JMmrOMslV2+crWy9SmigfTR4nz6ptfUWVr7f167z2kloqs2TunCkyVNX/YtQUmZpe7FEPQNfsayFtr1hdJmXlyiBjkvaqPV53pV1euOfEXq9895zL6m7t83Z7Gz1a3PakPXxOzL6qbXbG9u0R9+Q1i4iIiIiIiIiIiNjD7lUhbVXyQit4dbov3pQin5ugdbnkmyUsWqvWyw/OuLWxudJkphZKjBPKbtKvKyTOXmZqt7oZzpPPho+UV2KKVdGz5NmhUTK11J5lUxo3TgaOiZWAyXZr1HEyt0z93mlIWyJzo3RL3bHy5vRY+THdClGfVMsOjWtv/2vqUcs8q7bntalqucxlMmncWKuFb1yuLBg3Ul7UoW16osydPkFe1HVNzbLCakOdpE21ln9tcrRabplMnTxOnhw2TsZMjVLTp0maXqyTkLY+Z5qZbtWTIQtipshrw9S2R3nsP0AXENIiIiIiIiIiIiIiImIku1eFtGsWWaHqeKer47atkrkoTqIz2rsJbspb7htvVvuNb8zZNtmSsVxmLVotW+yhbH1dHi8qtCaEQ547mC2WqSNGyos6sHURUkhr8O7u2Apf3ctZlCdMMqHsZ/ZmW8uNlFHpddYEm9yZVvD67NQMVyArUp8+RU1vD5VbMvXrsTImx3/9ltJ5pmtjX0ir8eruuCVVRuntXxDQcXRDhoxxgmyAMCCkRURERERERERERETESHavDGmnrgje8tVZxuf81XZL2o6Ur7Bb5i5yt8MNjUzdxbErgN0QEyUDh8+SXPu1ZtdC2hL5evRIeXamu0QHKxR+dmaeeWWFtNMk0bxyYVr4vucLc9vJMPWNSm9UvzfKj5N1i9dlHl0TN0qintdFSNtiQt8p8qPVt7IfuQHHCSAUCGkRERERERERERERETGS3edC2vzAkLaTVrLdDmntlqNDE1zbUTpPXtGBqJWbGnYtpPVuXeuQOHWkDJyaZX53QlpfkOrQoR4Hd9lbZe6Y9rIC6VC2R0hrLaPD3GDOkEx7WYBQIKRFRERERERERERERMRIdq8KaUPqnrguX2Jm2wHt7OWyxr8HXz+cQNfXfXKIWN0DvyevTbbGZbW0x2B1hZ0mvBztEdIWz5MXuwxprTFvA7tQtqiwxqrtkZC2WhaPU2VNThWPhrBWS9guQtrq5AlqmSnyY221VHvZoFvsAoQOIS0iIiIiIiIiIiIiIkaye1VI25SxxA5fUyRg9NNuUCJL7DB3WlrHjn6DY3cPPHqSK6C1HRdlwspEO+20wssJsqDWeu1QnaCndxXSiqTp1rKj50mB/dqHHZSOyrTCz10LaZ31J8jigO10xpTtKqT1akVssVUS58yQzxIKPQNggGAQ0iIiIiIiIiIiIiIiYiS7V4W0UrVSpumQdsY8mV/QZk/sJgUJMt6UtUgSq+xpoVC7TIbqgNSM5xqAM88OT51ukQdGzZK0UqtV6YbMGfKKbnHrF57aY8xOTpQNpuVpqzW5bJEp79kJ89rXz5knb+vgNKq9he6uhrTSkisf6TJHTJK5hVtNPeXFifKRHhN3eEBLWnufXpuTpy6gaqk36WujZE4fKwOHTZBJOSVmWktDifw4VU3zrB+gcwhpERERERERERERERExkt27QlqplsQYq/XruJhM6ZCtNm6VosxMWbI0QWKMSRKXsV621AW24+yinE6wWsG2t5b1x+46eEKi1NtTWkqXyagROpS1fHLMDEnM6xie1udFW90l6+Xc48NWZshnY3RQ6pTxnrw2M0PKXfXvckirqc2VSe56hkXJqIRi2eBRdmnyFHnR3tb2MqolN659uvbJEVNkbnEn/U0DBIGQFhERERERERERERERI9m9LKRVFCTIRNMCdq5MXWEHhDXFEhc73wpdgzgxJkmyK3Tr2zbZsmKhPb0HWuSGSkud3eq0m6j1q2vrer/bYF3PLo4h29LgtLAF6B6EtIiIiIiIiIiIiIiIGMnufSGtNEr+onm+kHVW3HL53BXGdu58iYmL84W8ExcVSpNdKgD0HQhpERERERERERERERExkt0LQ1pF21aJd7or7q4xK2XLbmpECwDhQUiLiIiIiIiIiIiIiIiR7N4Z0mraKiWziy6OgzkxdrVUEdAC9FkIaRERERERERERERERMZLde0NaQ4uUZybIVI8g1tuFEpNZIa322gDQNyGkRURERERERERERETESHYvD2lt2hplS16axMxfKOM7BLPz5PP5CRKXt1WaaD0LEBEQ0iIiIiIiIiIiIiIiYiS7b4S0HWiTprpG+3cAiDQIaRERERERERERERERMZLdR0NaAIhkCGkRERERERERERERETGSJaQFgIiDkBYRERERERERERERESNZQloAiDj6SkgLAAAAAAAAAAAAAADQHQhpASDiIKQFAAAAAAAAAAAAAIBIhpAWACIOQloAAAAAAAAAAAAAAIhkCGkBIOIgpAUAAAAAAAAAAAAAgEiGkBYAIg5CWgAAAAAAAAAAAAAAiGQIaQEg4iCkBQAAAAAAAAAAAACASIaQFgAiDkJaAAAAAAAAAAAAAACIZAhpASDiIKQFAAAAAAAAAAAAAIBIhpAWACIOQloAAAAAAAAAAAAAAIhkCGkBIOIgpAUAAAAAAAAAAAAAgEiGkBYAIg5CWgAAAAAAAAAAAAAAiGQIaQEg4iCkBQAAAAAAAAAAAACASIaQFgAiDkJaAAAAAAAAAAAAAACIZAhpASDiIKQFAAAAAAAAAAAAAIBIhpAWACIOQloAAAAAAAAAAAAAAIhkCGkBIOIgpAUAAAAAAAAAAAAAgEiGkBYAIg5CWgAAAAAAAAAAAAAAiGQIaQEg4iCkBQAAAAAAAAAAAACASIaQFgAiDkJaAAAAAAAAAAAAAACIZAhpASDiIKQFAAAAAAAAAAAAAIBIhpAWACIOQloAAAAAAAAAAAAAAIhkCGkBIOIgpAUAAAAAAAAAAAAAgEiGkBYAIg5CWgAAAAAAAAAAAAAAiGQIaQEg4iCkBQAAAAAAAAAAAACASIaQFgAiDkJai507dkpLc6s0NbZIY2OzNNQ3dVBP1/P1cnp5AAAAAAAAAAAAAADY8xDSAkDEsa+HtG2tOzwD2VBsbGg26wMAAAAAAAAAAAAAwJ6DkBYAIo59NaTVLWGDtZgNV10OLWsBAAAAAAAAAAAAAPYMhLQAEHHsiyFtW2ubZ9i6q+pyAQAAAAAAAAAAAABg90JICwARx74W0vZWQOtIUAsAAAAAAAAAAAAAsHshpAWAiGNfCml37Oj++LPhqOsBAAAAAAAAAAAAAIDdAyEtAEQc+0pIu3PnTs9AtbcEAAAAAAAAAAAAAIDdAyEtAEQc+0pI29TY4hmm9pa6PgAAAAAAAAAAAAAA6H0IaQEg4tgXQtrwujmul4qSIlmzOksyMlZKuuPKLFm9pkhKyus91vGWbo8BAAAAAAAAAAAAAHofQloAiDj2hZA25Fa0FaWyNmuVpK/KkTWFpbJ1W509r04qt5ZK4ZocWZmxSrLWlsq2wHU9pDUtAAAAAAAAAAAAAEDvQ0gLABHHvhDSegWoHazYINkrV8qqNV0EsBWlsiZzpWTkbAgpqAUAAAAAAAAAAAAAgN6FkBYAIo69PaRta23zDE/9LZO8zJWyau1W2e43XR2bwiIpLKlyTVPWbpW1evm8Mv/pHur6u0tJWoJkbLJfwB6kQhLnz5dZGdX26yBsypSYtM32i75FefISmRi7Wqrs132GqkJZEl8oteZFiMd5b2J3XTN96dqsyJeYmPkyPiZNytXLprwE+Tw6SYrsW6Xffc/v+uhI4Lo9Te/fg9ukKjdBps2eJ9NWVNjTQiTgnO6uz4vePubedDxO3bqndXE9+dGH7+cAAAAAAAAA4A0hLQBEHHt7SNvc3HVXx1WFOZKetU7KAudtzpeVejzaVfmyJXBe2TrJysiRwqqA6QHq+j3JXS7jZsz1c/zsOIkrqrcXEFmzaK5E59ov9ibKMuWb2UmSb7/sMXqrXKmQjNhFEp3phIfr5YfZSySxzH7poM/pou7UHqS8HqQ8I06mLcrteyFtWZpMjbbCuo7Huafp/eMcNt2+ZoLR09dmT7NZlsyeZ85xqz2lqSBJpsWkSLEd+vnd9/yuj44Ertt9vI9br9+DN6XI5zPjJLOqG13jB5zT3fV50XPHPAw8jlO37mldXE9+9Jn3DAAAAAAAAACECiEtAEQce3tI29TY7Bmetlsp+VmrJGd9vce8IC1pjfWyPneVZBVUesxrV9fvSYcHwG3SVLxSps2cL0vs1lB7b0ibJlNnLJc19sseo7fK7UC+RM9YKHE9FoQFKW9fIJzQZJfpg8e5x4Ognr42e5iylV2+R8MJaXsO7+PW2/fgquSF3T8vAed0r/28UOzScXJDSAsAAAAAAACwV7NXhbStddVSW1Ut9Y27tT8zANjN7O0hbWNDFyFt7XpZrVvE1nact61kgxQWblDHpuM87XbdAnf1+oAukv3V9XsS5AFwSfx8mRhfYn73fOhes1ky4hNkVsx8mRabIEsyt0pTh9t0m9RuWi1LlsbJtOglEh23Uopq1EKBXT22bZeSjBSJnr9QPp8fJ0syNktth7JapDwvTX6IXSKfO2V12erLrt9ZJ361lOj6NboLydiFMn7GfPlmaYLEKP266GyukDUrksw2WftXYVrceXaBqpbNjo+Tb2Izpaqrcm1ai1ZKTPJ68R8tuFrWqGMaX9Bov7apypclcbnmgb6vfl33UrVfM+bJVLV9up4leXbLT+ecmnOkjv1sfY6SJLGok+vbs7wKKVb1Lcn1alGqtzVJsk2YpH9PkTVVar/KCiUuTh2L6EUya2mK2taAOj27RlXnSR2PH2IXycTZaj33eXITyjkJhu96XajOk1o38BoLCE08y+zqmg+8HqLnq+s5QeLUcXRaa3Z63jwJeA95HVNNc7UUq/dQjDqG+j30w4pCKfd8y7veRzGu5bzuAyG9xz3osWuz6/d8WNePQ4f3aKaYO51z/sxCYYa0Aev6rvOaYklU7wdrP4OcO4dOjpu1Lc79zN5P534aiOt9Yq4FdZ+pDXL71+hjGB09T8bNXmLq9O9at0Vqi9338DRZUxZw3w24djp+XrRJ0+bO7gvq/RKXJJmBgX6xOob2fa+dNnNPii9S2xBwzHv7XhL0OAXc0wxdvXc8r6cQ35v2tltlJ/nfXwAAAAAAAACgT7BXhbT6YY/ufnNquGNkAUBEsbeHtF7BqZ+6S2Ov7oyVOqRdk7lSsos6zjN2sq5bT7zCGcWWFbrFUKH5PfChe31Bgnw+Y75EryhUx6xayotzZcl8PbbjStniexBdL/lL55sH2ksyS6S8qkKKM9MkOnqh/JCW4npAXa/KnycT56fImk3VUrupUJWlXqtt8nW43LZVEvW0mCTJKK6Q2qrNUpSWIFNnzpeY3PZumQOpV/s2caaqP2+zWWdN/BL1ermsqVMzq0okOzlOJs5YJD9k5kq2stjpr3JzpnwzU33uLM2UIrNN6yUxbpFMnb9a4joEN0tkltqnb+IzJTtvqzR1Vq6bqkyZplvyuR/cm2nqMy821y+8rU1bJOOXrje/+85F41bJz0xSy6vzkGzVk7/ZDnf1OZ0fJ9H62Jt918deLztXvgk2zmqw8tS5Hj87xQqx3OhuP33TKyROn9cVy+Xz6ARJLLCOd1GaKk8fxxVbzVIGj0Bn2vwl8rlz/svU8VPHepxznhxCPSceONdrTNp6v+t1nLoGfddrQGjSrWvelLFIvpm9UGIy9DVfLVsK1DU/23UMOjtvHXDeQ8vtY6rPY4oqP+CY1uVLzOx5HY6NvgbjN7suMPt9NC7wHKlrOEOdO/d5Ce09HoSeuDZDfM+HfP246fAeLbGCvs6uAc9QzUXgfL2fMUvUuQrcz3mqzCD3rE6Om96Wb2LjOu7nDHXu3PcX8z6ZJ9PiVktxmX0tLF2o3sPBj0etOreJseo6U8da15ld7JwHfW9W59zjPT0tufP3dPt7p022JKv7V+DngLqG3ff4oqXq+g34O19PG6eOhdOjg8V6mT9zkSTqffY4X715Lwl6nAL2P/R7het6CfW9qZaLi54rny+yzm958Wr13g+4HwAAAAAAAADAHoeQFgAiDkLazoPWopzdGNI2b5Yl0XNlVmZ7QOB7cN2mH5LPlyUdBgKsl+xY14P2ggSZODNOsgODgbYSU7YOyKwH1Lp7zyWS4V6ucbXMmmE/iFdUpS2ScfNXt4e2DpvTZKp+AB8k4zLBRoZ7rUbJnD9XpqXZD9f1g/IOXZ5WS2KM90Pv+ow483nkF9zoECHwWHiWG4iuZ57ML7BfKnQY+3l8ijoeal1fkXqb25fzD0A66VJWHdPMwGOvzoln4OrDqzxr7M75Bf776B+q6JDWOqcdArw6fS5dQYtHoNPx3LZJvirfackd1jkJxFyvHbdfX6/mWkh2XQsBgU/Y13yw66FqpUzT58N3nQY5b4GY91CCFHkeU+f90dmxWSLjXOfbvI+CniN1HnxBUIj72ym7dm2G+p4P7frxwOs92tk1EDCvA4Hze/Q9GN77ZJbfPU/TZv7pZrw6v0E+BaTc/FOO/+dA59dL5+9p33Ez17A6zl6fA7PbP2PMcYnJbG+JbMLYOFkSv9D/eitOkYnOch7nq1fvJQqv4+S3/+HcK1zbHvJ7U683M0mKrVcW+pjo+4T9EgAAAAAAAAD2PIS0ABBx7P3dHXsHpz476e5Y21lIG1p3x52EtLPt7hu1sYtkvL7nxq33PewOfOg+3h1GuNFlRa8UnR3pEC9YSNKkwyNfGToE1Pf4kiBdqVoP1XVXnx2xwsGYPPtlALrLZl1PSbDu8vUD78CgxrRmdQdqbqxgwS+48QpcvMr1oCp5UUB4oIOPNvt429vcmCuzZiZIvv3S71x0FoT5BR4Oevn28Lsj3uXp7fRr3WuCCHc51nnwPkfWefDtp0eg4wvN3bj3IZxzEoh9vW6xX/rRuF1q6+yuWwNCk+5c81aA4hWW6OPjDuSDnLcA9Hvoc88Wcm3SVFMt6u8t+9jESbbnoXcCI/27E+B5HkTrveKcl1D3t1N25doM/T0f0vXjhdd7tLNrIGBeBwLnh7SfXngft9DfJ2qfvA6bvb8B8aKPjuFjZ+cg4P6utyHgPe0ct+DXsPVPKTpUNfcVc09xvcfVNThR33MCjqu+Tjv7x4pevZcougxpw7lX+JYL472pPw90a+zMaro4BgAAAAAAAOjD7LMhbVXaEpk4e77LpKAPpPoy1Xnz5KPpibLBvNoqc6NGypMTUsXj0RPAXsPeHtI2NXYxJm19peRnrZKc9fUe8zoLaetlfe4qySqo9JjXrq7fE/MA2+6+Uam7fwwcA9wvrMjVrY3mBdxrbWfq7hr1g+cWyYzt5GG3bvnjfpBdkS8/6O5nVblm3MZi9wNoq3vH8TM96lPqQDloPW2Vkh2nx3hU68fosW5L/MdmtIMLv6BGd+Mb7CG73RLXV19ASODDq1wv9HJOyKtbDzu/ux/6u39X+J2LIIFO4DrtBFneR5D5JhhoD5aaMtU14Nclsw7OgpfrF2x0uj8u9HLOsQ3nnASir1fPYxFAwLkM/5pXBLsefCG2/bLL86Bpk+zO3kMOm9M6OTbuevU/QwSv0/zjhO8chbi/nbIr12bo7/mQrh8vvN6jnV0DQc+tTeD8Hn4PhrSf+loIdt5m666Dg9+TOoaP+hwE387Q3tNdXMN+58j65xQnqNTBpNXK1n1vCbjPdHa+3Ljr2ZV7iaLLkLZb94ow3puK+qKV1ti46v3xzdI0WRO0u3QAAAAAAAAA2FPssyGteXiilm03hIfkYbNV5o4ZKQOHTpAFQZto7BqlceNU+dMkzbzqGNKWJ0+SF0dES6b9GmBvYG8PaZubWzzDU7dVukVs1jopC5jujEm7as0GdXz85zWUrZMs3QK3KmB6gLp+TwIesHvh9/BbLz9/pRlvs9bLGuuBsV7Hs1WTxu/hvIvmetlSkCk/xMyTcTGqDjNRP5ifJ/PzPOqyVZ87XdAi9a5xOhPdD/m9gpqgXUcGhG2BwYyDV7metIcO+kH85/Gbrcmu1rO6JZq7NZt/ELErQZgXweZbXYZaLdh0q6/A7oP1fjgtNjviHt84cNtCClbCOSeB6HI6a1HpEHAuu3PNB70eOmxjV+fBotP3kEOnx8YKO61Wp3ob3K15/ekQuoWyv52yK9emva0hvOdDun688HqPdnYNBD23NoHzQ9pPL7znh/M+WeNxvCzrg7a+7Bg+dn69hPqe7vQa1oGmu1W2rxzdojXO19rV13pWt4J1H+POzpcbj2PUrXuJouuQVv0e9r0ijPemm8bK9vF9lxYG7coaAAAAAAAAAHY/hLS9GdKWzpNXhuqQdqQMTeidLpj9Q9qOdDUfIBLZ20PattY2z/DU3zLJ02Hs2q1+XRfrkLawcL0yIKSt3Spr9fJ5Ze3Tgqjr9yTgAbsXfg+/7e5VvbqLLE9eIp8vLTRBgOnKMsarW9RGVZ6rRVFNiazJ2xwwjqB+SN8eVJguM50A001bocyfvUQSPWaJbJeS3ELZEjAWon7g7zcuYIfPCd3tZmAIaWOWdx2LgJDAh2e53pgAIq1CMue7xnjULbpi9Tb4hxUa/yBiV4IwLzqZr1ug6Za+enzVDl08W+HGxKXr7ddurHm+sScDti2kYCWccxKI071p4JiYipIVi2Sq02VrwLnszjUf9HroEP50dR4snO5gA0cY1S3v4mIW2qG406VxsGPTvt36fTS+k3PkOy+h7m+n7Nq1Gep7PrTrxwOv92hn10DQc2sTOL+H34Ohv0/c9xEXeQkyUYeH9stAvIJA6xz4v9MtQn9PB7+Grc8Bv3Ns/3NKUbG617hb6ut7T0ymlLv/kUXT2fly0+EYdfNeougypO3mvSLU92Zr2XrJLqo0v/swY7j3wvcdAAAAAAAAAOg2hLQ+e/6hRUHMWBk4Ilq+nvmeDBw9z+6SuB3TVfGCrI5dE9dmydfT50mmX3OeVinPiZWPxkXJiyMmyKiYRNmg5vuHsNWSuWCGfJRsNVHakDxDRkWpuodGyZvT1fQOZQJEJnt7SKvxCk87WLFBslfqVrOlss1rvmNFqWldm5GzofPlbIMSNExox//hd5uUxC80D/xLfC1Y26SpWD/gXihxm+2H32aMQXXvji+WWud5eFujlCQvkW8WxbV3OdmYL9EzdWtR17HfrMtyPeiu0w/v58v8PNcyzdWSvWieTFTb3jEA0FghgJ7fXr/VstAXLkihxMzoGHBV6WBhZpxklLW3Pm6tKpT5McslOpTujoOU64nu+jlmUYfgU3cprKdPdcZstPE/FxUSr/cnI+AIBD2nXQVEQcoz6C4556n9dY0J6UMHCQtlWsxCtW5Fe4CnztGapda4wFucQ9FJoOOHX7ASxjnpQJsJQAKv19qiFHO9xjvHotPAJ8RrPuj1EBjSdnacXZj30Dz5Jnlz+zFt2y5Falt0C0Snnnp1rCYGHpuyXInRYz0nu/52MgHSPI9ztEhiFrm7VA1tf03IHbe+vSw/dvHaDPE9H+r10wETyPXFkNb7uIW6n/XqvjF+doLk17Tfe1qrcu17bPDrzTN8rLPuzf7XS4U6B/o97Qp8A/bVb1vte67/54C6hlcsUdfscsn3CzN1d8Pq/hLjdHXsoO896h6px+x2t9bv7Hy5CThG3b+XhBDSdvdeEep7U6+ny9nUvu31ufqc258fFfkSp74vdHFnAQAAAAAAAIBeZu8OaatKfGMnWhbKFvtZTu+HtHny2fCR8kpMsUjhLHl2aJRMLbVn2ZiAdUysBEwWKYuV14aOk7m+B3N1kjZ1rGmR+9rkaJmbvkymTh4nTw4bJ2OmRrlCWrt75alZ5hUhLeyt7Ashbdfj0tpWlMrarFWSvipH1hRtlW1Vzji19VJVsVWK1uTIyoxVkrW2iyDXNuh4tJqgYUI7HR9+10vxijhrrFcz1p66386Ok7iigEfDdcUSF2uNNavH5NNjTH6zoljqAx5Qt25aKbNmqzLUfD124viZC+WHgoCyKvIlJlqPw6fLUsuoMqcuzZeq9iyiI82bJdGvfrVO3HrXA+w22ZJm7Yf+zGjfxzapyk2QqXq/9Dap9cZHJ0h2hTVuom+5wAftPoKV64VuLTu3Y6tBMw6sDmv8UowO56K+IMnaTrWs73My6DntKiAKUp5NVfIiNX2JRysxK6SN27xd8uMWmuNsnSO1X7FpUuxuxdpZoOMmIFgJ+Zx44n29JrqCjq4DnxCu+aDXQ2BI2/lx9iPwPWSOqTsA0gQeG/1zocRkugIfB+d9ZMqz3msxuZUe10xX+6v3KUirTZtdvjZDeM+Hfv0EYMKuvhjSeh+37rxPzJi+6tiZa0Gf407wDB81AdeL/jl1aa6Uu6+/gH3tsK1+13D7faHIFSQ7mPFXPVqi6h4HxgW24O/sfLnp5BiFey/pOqTVdPNeEdJ7s01q86zrwzm/4/W9zA5/a83xW66uMgAAAAAAAADYk+zdIa1+WKFet9v+sKvXQ9o8dzBbLFNHjJQXdWDrItSQtiVzigwcOlbG5Pj3wdhSOk8tp7tT9g5pNXR3DHsj+0JIu2PHDs8Q1dt6qSgpkjWrsyQjY6WkO67MktVriqSk3Aluu1bX21u01oUwJmxbo9SHMo5lc73U1rmCMy9CLcuPFqnvZDzGzghp//YRTEjr7obUhx3S+oKnNmmq2S5NnQXou4D/OdGt7zoPVtz0xPncM9dEiNdw43apbwzhwIfyXrPx3F/d8q9Dt9e9RLfe8xDytRAKPXIOun8f7i125V4SCt26V4T63uzJ8wsAAAAAAAAAPQohrc+eDWkzdRfHrgB2Q0yUDBw+S9zPc0ILaRvlx8kjZWDUso7dIqt5iXoeIS3sY+wLIa0m5Na0PWSnrWgBQsbq7thzLMcOIW1P02K6TY7ODGhdrTFdAnfeohN6Ht3isWO31wB9He4lAAAAAAAAAND7ENL67MGQtiVVRg0dKUMT7O3QlM6TV4a+J5/l2a8VoYW0HYNXN/4hLCEt7BvsKyGtxitM7S0BeoSCBPGNe9iB3g5pFar+iTOX+HdR3LZd8vWYtzGZUmVPgt1Da13vtZQG6FW4lwAAAAAAAABAL0NI67PnQlqre+L35LXJehxYxyny2jCPAHW0R0hbPE9e9IW01bJ4nFpvcqp4dWiWq1vsEtLCPsa+FNKG1+1x9+3Nbo5hX6JRMmPndtJycjeEtIFjMQYdnxUAoDO4lwAAAAAAAABA70JI69MJaSskcb71IMZn3HozJzTs7olHT3IFtLbjomTg0CmSaKet1ckT1OsJsqDWeu1QnaCnt49JawWtE2RxwHLSkCFjhqu6CGlhH2NfCmk1ba1tnsFqT6nLB9j70OPdVkttVTXjMQLALsC9BAAAAAAAAAB6B0Jan+0hbVy0e7pyUb6ZExK1y2To0JEyKr3RnuDCmZdpz7O7RR4YNUvSSqulurZaNmTOkFd0i1tXSCstufKRDmNHTJK5hVvNcuXFifLR6JHyyuixnYa0Lem6Ve84mWTWq/NsjQsQaexrIa2mt4LatjZa0AIAAAAAAAAAAAAA7G4IaX32TEhrtYJtby3rj9118YREqbentJQuk1EjdChr+eSYGZKY5x6T1qY2V6aO04GsveywKBmVUCwb/FrKeo1fWyKLJ0fJk2a9gDIBIpR9MaTV7NyxUxobmz3D1nDV5ejyAAAAAAAAAAAAAABg90NI67OHWtJ2l5Y6qQ+lmatarrrBo5UuwD7EvhrSOuhWtY0N3uFrV+r16N4YAAAAAAAAAAAAAGDPQkjrcw+HtAAQMvt6SOugW8K2NLdKU2Nz0Ba2erqer5ej5SwAAAAAAAAAAAAAQN9grwxpP48vltqqaqnNiPMPW2cslCVFarqaVxQfGNLGSYZep6pYlhDSAvRpCGkBAAAAAAAAAAAAACCS2StD2h6XkBagT0FICwAAAAAAAAAAAAAAkQwhbSgS0gL0KQhpAQAAAAAAAAAAAAAgktmrQloA2DcgpAUAAAAAAAAAAAAAgEiGkBYAIg5CWgAAAAAAAAAAAAAAiGQIaQEg4iCkBQAAAAAAAAAAAACASIaQFgAiDkJaAAAAAAAAAAAAAACIZAhpASDiIKQFAAAAAAAAAAAAAIBIhpAWACIOQloAAAAAAAAAAAAAAIhkCGkBIOIgpAUAAAAAAAAAAAAAgEiGkBYAIg5CWgAAAAAAAAAAAAAAiGQIaQEg4iCkBQAAAAAAAAAAAACASIaQFgAiDkJaAAAAAAAAAAAAAACIZAhpASDiIKQFAAAAAAAAAAAAAIBIhpAWACIOQloAAAAAAAAAAAAAAIhkCGkBIOIgpAUAAAAAAAAAAAAAgEiGkBYAIg5CWgAAAAAAAAAAAAAAiGQIaQEg4iCkBQAAAAAAAAAAAACASIaQFgAiDkJaAAAAAAAAAAAAAACIZAhpASDiIKQFAAAAAAAAAAAAAIBIhpAWACIOQloAAAAAAAAAAAAAAIhkCGkBIOIgpAUAAAAAAAAAAAAAgEiGkBYAIg5CWgAAAAAAAAAAAAAAiGQIaQEg4iCkBQAAAAAAAAAAAACASIaQFgAiDkJaAAAAAAAAAAAAAACIZAhpASDiIKQFAAAAAAAAAAAAAIBIhpAWACIOQloAAAAAAAAAAAAAAIhkCGkBIOIgpAUAAAAAAAAAAAAAgEiGkBYAIg5CWgAAAAAAAAAAAAAAiGQIaQEg4iCkBQAAAAAAAAAAAACASIaQFgAiDkJaAAAAAAAAAAAAAACIZAhpASDiIKQFAAAAAAAAAAAAAIBIhpAWACIOQloAAAAAAAAAAAAAAIhkCGkBIOIgpAUAAAAAAAAAAAAAgEiGkBYAIg5CWgAAAAAAAAAAAAAAiGQIaQEg4iCkhb2PGinOyJTMwhr7dXdplYbqGmlotV8CAOw2euo+1gmtdVKrPoNb7JcAABCZ1Baqz4uM9VJrv4Zdhe8AAAAAAJEKIS0ARBz7XEjbWiPFibEyfcZ0iZowXf38XuL0Q43d9SW8er1kZmRKcbX9GnqBHJk6cqwMnZZjv+4um2VB1FiZmmW/BIAIplUKF81W9/x4KbaneFKRIzEzZktMxjZ7wp6ip+5jnVCyWEaPnKlqAgDYl6iRvHn686ATEzfay0YGOdPU58Uu3c+bpCw3UzJzN/fsP+4Up3gfX5+xktcnvxPxHQAAAAAgUiGkBYCIY18KaStTZ8oI/dBbOXzsJzJC+571eujIiTIntxdbLDlkzTT18aW/N9nFcKM4VsZMiJXC6jKJGzdeFpTUqUlfyphZBfYCABCJtKRON/ffyalN9pSOlM4br5YZLzGdJrm7g94LaYvnTZSoeQVSu3WZREUtlrK69RI3aaLMzLMXAADYq9kmyZPs7wGu7wLDnNfa6LX2spHBroe0+m9eVcY49ZlgT+kRcr9vP6Zjo2SY/lwbGeWa9qUkV9jL9gX4DgAAAAAQ8RDSAkDEsa+EtGXLvjAPBoZPWqy+eNsTbVq2psjUsfqhwScyNavOntpLENLuBnYx3KjeKOnRX8qI9ybKmKgoGR01XkZM+l7SC2voFhQgorHvDVMygryXN0pMlJo/Ib4PdBnZeyFtbXGKzJk0XoaPmyij3xtv7nHjolOkuJp+HQFg36MsdqL623yixG21J0QgfTak9aP3Ptd6DL4DAAAAAEQ8hLQAEHHsEyFtRbyMsx/MN9iTOuAsM3auFNqTnP/+npNrv3ajlp+g5k1Y5uoSs7VMMmd8IcN1OcYoiZqRKZX2c+/KZfpLvzVv2HvOf5B/L+7GS7V58TJ1gvOf5sr39MPz9jJ8+LatRgpjp/taCOsWYGZ5s5D+7+/pMtrXWjhKxkxLkVKv5/DVBRI3ZXx7vXrbp8UHBNp2y4NJ8VJWkSkzx0Wp5bp6INQqlRmzJcq3DWrfo76UORllHg879LLfy7goXa697HtfyNRlBd6BidoGHTQ422wtu16d4yAPgTzOz+hJ30vm1o4HpKVElT3BLnvsFzIncTd2iQ0AvUbeLH1/+UKSvbpXLI4199Io931dE+q9I+h9Wd17XZ8FfoR7H1P36oRp4WyL9Tmgt2VMrPPovUnKzL3WKmPEBB5AA8C+S5ch7S5/BoT7t3n739uV6vdMHRq66tZ/nxcH/E9psJC2w9/V42ZKQqFa2e87zlqZo363PofaW7n6fccJ6+/5YAQLadX+TtF1zvX7TuSjIkUmq+0Zt8z6DMuLdr4/qWO5bKaMcR1Lc148W+aGvv18BwAAAACIbAhpASDi2BdC2m53X9lZq9eti2WMmtf+0HubJE/QX/o/kQnzUsy4swnR9gMdu1VWS8layVTTdJn6YY1eJlOPh2sVIGXLvrSW1w8Elul5KRI3baL9kGC25LgfyNjbprttHho1U+IS9fLxMmeCeq2nT8uUPLXfw7zKGrfM/7/kSxZLlJ4+cqJMjbW2PT12ptm/obobMt9DK/u/7MdOlKix1sONqTNSpNSe25E6yZlmbc+ISbGSbva3fRtHz1tvL6epk7xZ+jxZD5AC92fYhGDb/Ik6lvF+2zx82kyZoOe5HwLV5fhaSzvLZy77XsaZaeNlTl5796ctGfrYfiJTU9dLwoSJsiBvrczR+63Oo/WADQAilmBBrMIKcKdLZqM9QRPGvcPvvqzunTHmPqbvvda9Lfi9N8T7WIn+5yDv5fW06e6eIOxtGTNOhw9REjVltizI0l36t0qmfpg/dqakF8bLuHGLpTD3e1PGOI9jAgCwt9NpSNvdz4Bd+tvc/ntblTHV/N3t9b1gpt/3Aq+Q1tovr/XV37jTvjTzrO84NVKsttPspyo3Qe+jMq/E2TfX3/MTvrfnu/6ejy4IMagNFtKqv707GY7A2o8vJMEOX619Vd9BzDa1f3fR37usMFudyxJrWYvQt5/vAAAAAACRDyEtAEQce39Iu80OFmMl7CEGwwlpq62WuCPmbbRe2xRHWw8Q4pz/6g5WptOS16ObsQa1jg5vh0/LaX8IYpczNCpwv9ofROgHLZkB/2nvPLBpr98JXv0f9hiqM2Wq/o9zX9ef9rJq/ajYzWZKZ7TY291x2TrJnKbDEFdwnjfXt4+BrZ2dbW4PxJ3tCHwIo6grkJl267D2h0BN6pjo+jyWb90oC8z+u1pQS41UmvNl1TPdtDKokVqvlncAEGEE69J4rczU9zu/rpDDvHcEvS8797EomenrmSHc+5jzj0Bey9shwnvqPu4EzM62eN7bt1kPm83n2Gyr5VK1usfpnwAA+xjW/VndWzuEtD31GdDNv83VtOFTUjqEg17fCzqEtPb3FM/vFepv7tF6nledHssH/3u+VUrn6W3/JMQxzYOHtL7P4A6fzfZntuuz2dpXva3fd2hR7PvnJ9d+hLf9fAcAAAAAiHQIaQEg4tj7Q9rgDx26xH7YElJI6zx4UPV4difsEKRM6wFNsNa+TZI5RT+QmC7pAQ/g2+t3YbcUCwyMDRXLzMML33qdtCrTFM/TD5WcrkGdh0auh0BBaZJ0s81Blm2tk9rqGmmw98d64BLQgs2H/YDGCdo72z9NrhX4+h4CNWbIZPV6+Ky11usArP/ej/J4wLRRkmfMlmTPcwIAkYrXA3nffcDdvX249w77vhy1yON+GuTeG/J9zP7MGR1k+Q6tkDr7jHAoTpHpnfaGAACw9xM0pO3mZ8Au/23u+3u7vfWoP87f2O3fCwJDWuvv90+C9iJk9RwRSkhr1/VekK6IfceowJ7QGZ2FtM42B5wH+7PQ/b3J2teAz2sX/vve3e3nOwAAAABApEJICwARByFtJwQJVA0dQlpVk9Nd8cgoGTPle4nTXRkHBrZByuzwH/ABdHiAFOa2tWM/IJlhP3Cyyxk9abZMn9HRyWbcWafecI5lzy7rd3w623eN/cAlMNwYPm6m5z5On2R1RRq0PADYu6iINw/E2wNP+x9h3nO3qFeEe+/o9N5k3Xt99+Vw72NdLR943+9qeQAAMAQNaXvyMyCcv82dv4s76QUocJsDv0d09b3C+cee9m0N9re4Pf29iTLZ6xjM+NJqlRskePWn85BWB9m6LPc/I5kwOSBgtfbN9Y+rgfidh57cfgAAAACIBAhpASDi2BfGpO3yy3wwuvOwpXGz5MTOlnFRUdaYUSM/kQnLXN1rBSmzq4cp1sOY8bLA6W5tVx8EBTz4DxbSWsZKnrsl7R4MaTP1i8723ZDpv49dPWSz5b/lAfYV7JY1zgNwOxDt0Eo13HtHp/emMEPawPtYV8vb2zra6c6xy/IBAEDT7ZDWNqTPgHD+Nnf+Lo4K/nfxroa0YsZedW9rsL/F7elBQ07bRO9eHvzpIqSVbZKgu/V3Qtkgn81+3wm88DsPPbn9AAAAABAJENICQMSxL4S0TldZ3g9GHMokM1p/UV8mhU7r184etthjqHZaZuNmSZ8S0HVXkDI9u/hyYXVL1rG7411+EGR3v+brIrNTug5T2+miezG/7o6dbtuCPUyyH9oEdHccrNvPYN0dB+1WFAD2OdzdVNYu+8L7/hvuvaOz+7J97/Xdl8O9j9nLB/3MsZcP7O7Ye1sAAMAhaEjbk58B3QlpO+nuOHAYlMBQ1vpeEWwYlW50d9xJq97Q6Sqk9W/ha302dzwG1r4G7+64dJ5u4RzQ3XGPbD8AAAAARAJ7Z0jb1ij1VdVSG0RVr0Vzved8y+3S1GYvBwB9in0ipJU6OwScKDGFdfY0N3VSPE8/oBnrPyaR3SXm8GmZ0mBPcnAebvgethTGypixn8jkxICxCAP/U71kselWq0MoanfxNXxaToe69Dr6wc7QKRnSYk/quQdB9nivXsFrXaZMfU/NmxAvtWZCOCGte4zEjse82DxAaX945Cwb5bQCc9GgjqEOH9rDDHub35spmR2K3mw/2FL69tHpytR7+QV6+WBhMgDspayVmer+NnxWisTpfwLx3efchHnvCCekDfs+5ozNPVNygm3LSNe43oS0AAAhETSk7cnPgG6FtN7fC1rUd4bA7wUdWs76vld0/A6jv1fo7zeB25qpy/AIM51/apqa0eEg2McueGDqT9chrfPZPHTKYlmgP5vd331srH1Ven0fqba/u0TF+sZb77ntBwAAAIBIYO8LactWyzcz58q4GcGNdv6gzV3uOd/nzCWSEcpTfQDYrewbIa2ibr3E6C/76kv9iEnfS0JGpmRqExfLVOdByKT4gC/7TZI3Q/8nul4nVtLzNktpXorETRsvw8Z+EtCS1nmoPl6mLyuQ0uoaqSyMl6lj1bT3ZkqO8+C8Ol7G6QcLUbPtbVjvCwasBwWqrglq+7LWS2lhjiREf2FaT3V4MN9jD4IUhdaDnKFRMyUua7Np4VqaFSsT9Lbrh1ZOF8thhrS+5XWXz/MypXhrjdSWFEjCjImmK2j/B091kjPNOtZjpi12HWtr2Q51Otustm/mshxV9mYp1OcySpc7Uyboee59rMiQyXp/xn4hcxLXS6U5Pyky096+qVkdH9wAwN6N88822qC9CYRz7wgrpFWEex9zHqzrbdHLl6yXvGXfyzhzrw5nWwAAwCF4SKvoqc+A7oS0UV+Yv8WHu74XpM/70vpeMPJLSXa1MO0Q0iqsf4gcK8PGqe8cav1K9Td4euxM87kzecqXHba10Hwm6r/ZU8x3pLwS53Nxm2SanoE+kajoFOvv+a3rJd3z7/nOCCWkdVrC6v3xDk+tfVXHZpL6qb+7JKrvXWrfMpfNtsJrtZ1z/P7zsqe2HwAAAAAigb0upC2Jn+8duLoMOaRVToz3PekHgD7CPhPSGmqkNHG2ROn/sDZf4i2HRX0pczLKOvyntoX6Ym9/iXeWHzFpsRQXejxsqVsvcVPG+y07LGq6JBQ7/SdbVGbMljG+bXA/UGkNmKeNkjHT4qU4MEPsyZBW0bI1U2aOaw8stMPGzZRkv20PN6TVdDx+OsieHLve44FIjRTGTrcfPrUvOy46UyrtJdy0FKf4AnZLdaxm6GWDPASqLvA4P19KTG6NvQAA7FPYLY38WqB6Eeq9I9yQVhHufSzYvTohsJcIQloAgJDoNKTV9MRnQHdCWv33tsd3ixETYiWv2l7Uxiuk1d8rSpcF/F393kSZmbHNe1sD6vLf1iB/o89b69ELRTCC/H0eiN2Tkbs1rJv2fe34HaPjdxeHnth+AAAAAIgE9rqQds0i77DVbTgh7bhF+fbCANBX2LdCWjet0qC2MXTU8tU10uD1vb8DTdaynT3074KWuhqpVcfGOzjuRZyxYkPaz/Aw+xTiMQ9nWWnU2xzOsdr18wMA+yK9eO8I9z7Wi/dqAADwYnf9/ej1T5F23d2851t/V/fMB0ZYf6N3B/sfqKKWBQwhY9MxkLa/o4V4Xnp9+wEAAABgj0JI6zHfz54IaVvqpHqXn0hVS+aCGfJRsjPiSrEsnj5Dvg78l1SAfYB9N6QFAAAAAADoS3Sn55q9B2soguA9XHi3GgYAAAAAsCCk9ZjvZ3dD2patkjhnkrw4bKQMHGo77D0ZOjNDyrvVzGyrzB2jyvD175MlY1SZrwXt42jXKE9W2z4iWjLt1wB9CUJaAAAAAACAvsA+HNI2ZsjkkWNl+Ky19oSOENICAAAAQGcQ0nrM97M7IW1Drnw2eqQMHD5BJqUXqgNZLdW1W6UgPVqGDtfTp0lax4ENu2D3hrSlceNk4FC1nfZrgL4EIS0AAAAAAEBfYN8NaWuXfWHGio1xOjzzgJAWAAAAADqDkNZjvp9hh7R1kjj1veBBbEOGjNFB7bhl4tdRcctWSYubIW+OGSsvjpkkY2ISZUOtPc8QWkjbUpklc+dMkaEjVDlRU2RqerF/PYZWKc+JlY/GRcmLarmhk+fJj6XtS21IniGjotQ+DI2SN6fPkI+mz5NMv20B2LMQ0gIAAAAAAPQFaiRv3myZPi9H9q3HBtskJ4T9Lk1Uy8xIkVL7NQAAAACAG0Jaj/l+hhvSlsXKa0NHyqhgA5IoWhp0y9pqqXe6PS5bJEN1t8gjJshHcYnyow5rR6jXQ8fJXN+/onYd0tbnTJNn1bQXx82QuekZsiBmirymy42KdX0hqJO0qWNV2WPlzTnLJDFzmUydPE6eVOsNjSsxSxDSQl+HkBYAAAAAAAAAAAAAACKZfTukLUiSibPnd27cenvh0KhOniADh06RH0Med9YOX/2CVE2FLBinpg+fJdbmdhHStqTKKP16gRW0+rBb7r5i97/TkjnFhK9TA7rjKV2guzeeIAvsMJbujqEvQ0gLAAAAAAAAAAAAAACRzL4d0vYCYYebZbHyytD35LM8+7Wb4nnyop5XqF90HtK2pOvw1Tsczp35ngwco0PgRvlxsiojsKtlQ6PUu1r3EtJCX2ZfCWkrq2ulsLhU8os2SfrqPERE7AXzijaae62+5/ZV+DxAROx9+/rnAZ8FiIi9byR8NwAAgL0LQtoeJuyWtDnT1PLubo3dZJggdkyO/r3zkNYKVdX8oM6QzA5lBIeQFvoy+0JIm1fIFwMAgN2F8+Bb33v7GnweAADsPvrq5wGfBQAAu4++/N0AAAD2PvbtkHaPjklbJybHLZwlzw4d26H7YUPlIhmqygolpPWFw7XWeLcdbNDbUy2LdRfKUzPMOp1BSAt9mb09pHW+EAAAwO6lrz0A5/MAAGDP0Jc+D/gsAADYM/S17wYAALB3QkjrMd/PcENaqZPEqe/JwOHTJK3BnuTGHiN24ORUqTcTrLDVGTPWjTVO7BRJNGluF2PSls4L0m3yVkmcM0M+Syg0ofCGmCgrzA3ctsJoeW3EOPna3gxCWujL7O0hLV8EAAD2DH3tQTifBwAAe4a+9HnAZwEAwJ6hr303AACAvRNCWo/5foYd0ioacuWz0SNl4PAJMim9UB1I3Zp1qxSkz5DXhqnpI2b4BbhWIDpW3o7Jkg1m2RJJi5kkzw4dKUPjSuylughppVEyp4+VgcNUnTklZmzZloYS+XGqmubuTrlBradD4qh5klupW/M2SnnxMhllpi0S508Pa4zbcTKpcKvaHrvVL0AfYW8PafUYKAAAsGfoS/dgPg8AAPYcfeUezGcBAMCeg3swAAD0NoS0HvP97E5Ia6iQzJgp8ooOZYfaDouSN+dkSLlH4lmeaQe4vmXHyWeZW13haFchraZacuOmyIuucp4cMUXmFtfZ821qc2XSmPfa69LlTE2UDX7bVSKLJ0fJk2Z+sDFzAfYMe3tIm766Q5N4AADYTfSlezCfBwAAe46+cg/mswAAYM/BPRgAAHobQlqP+X52O6TtHma82oZW+1X30eXo1rSd0lJHK1mISAhpAQCgt+hL92A+DwAA9hx95R7MZwEAwJ6DezAAAPQ2hLQe8/3czSEtAHQNIS0AAPQWfekezOcBAMCeo6/cg/ksAADYc3APBgCA3oaQ1mO+n4S0AH0OQloAAOgt+tI9mM8DAIA9R1+5B/NZAACw5+AeDAAAvc1eF9KWr1joHba6DCeknbqiwl4YAPoKhLQAANBb9KV7MJ8HAAB7jr5yD+azAABgz8E9GAAAepu9LqSVtq2SOH++Z+DqGGpIO3F+pmxps5cFgD4DIS0AAPQWfekezOcBAMCeo6/cg/ksAADYc3APBgCA3mbvC2kBYK+HkBYAAHqLvnQP5vMAAGDP0VfuwXwWAADsObgHAwBAb0NICwARByEtAAD0Fn3pHtxz29Is2zfmSUpWkWypa7anucmT/z71vPx3jf0SukXu58/Lo28tlW32awCIbPrK50FPbkdzXZkUZGVI7sY69cnQkW2LRnIf60U4vgCRB89nAACgtyGkBYCIg5AWAAB6i750D971bamTVZ8PkXsH3C93PvC8PPrU03Jnf/X7UyMlprDOXkaTLWPV9LFZ9kvoFqs+vl9uHRwrW+zXABDZ9JXPgx7Zjo1L5e3nHpJb+z8kDzylPg8esH5/bnyGX2C45fshEX8f68v70N1tM58vH2fbrwBgd8LzGQAA6G0IaQEg4iCkBQCA3qIv3YN3bVvqZNXHT8utAz+QpVvd7aXKJOXjwXLngCESs9WeFBjSNtfJdq8mVi6a67xbYfmhy/FsudtOl+WEsC1hE2KZets6X67Zb/86C2lDOl5qiZ7eVYC9jTUFG6S+odF+1Tk7duyQ7fUNsm5DiT0lPPrK58Eub8fWWHlpwEPy0jd5foHs9sJYGTbwfnng42xxvtn4h4j6HtfVvSuUZUK4B/bU546iyyA0pM8A//u7jxA+1wxB6gi+bUHqs+kqpA312ADsLeyLnwUAALD3QkgLABEHIW0ntDRITW2tp/UtZgGp9/3uT0uDWq7BmRF8OauOBrVEuFhldtymAGoLZfHMyfL2sBHy+nuT5ZuUUqm3Z0ltnsyeMl3+62VCadfzAQC6oC89iNmVbWlO/CAgiHVTJUtHPS+Pjkm2H8xbIe3o6HgZ9pRuXXW/8c6Xpkquu8Gtq2WutcxDcu/gSZJSac928LXYspcbMEje/r7IFwJotsSNlEdd5TyltiUwPHCXcecDQ+STtCp7bgCVS2Vw/8fkk8Dumuvi5e+u6V2XGepxqJKU8YNNq2SzzIDnZZjav6UdQtquj5f1wH6qxH5ulUdrZoDOWfRjqqStWiuV1bX2FG/0Q/mt6jtDfEqWrMzOt6eGR1/5PNi17dgks56zgljPEG/NbHnuqSEyvdB6GXhP8t3j4sqsBXxskthRg9qX0ffxUbFSEO5nRl2e/Pcl9335LZnl19ODvt/6l9GxnnZMmGmXZXTdk7elTZKXTAtia96dz33g16uE974PktGJ6nOirkhmDXvMN133SBG70V5Rk/WZmv6ZpAR8/uk63Mt1DGm7+jwpk5jB9jxHX1gb3rEB2JvYFz8LAABg74WQFgAiDkLa4FQkTJDXdbipfPX1ofL868N9r78yD6lzZNyrQ2Wcx0PgVZPU8pNy7FfWcs//J1lq7Ck+sqbK869OlVX2y9CxywzwpXfnSHaDvUiDWmboUHn14xhZkZEpqXEz5U21H69Os58cBQlhR72lypqijltX8wEAuqAvPYjp/rY0S8Ko++XOkLtGtMJJv1a3lXkyffBDcueweDs8bW5vmbuxfZmYt/S0z2SV81DY3WLLLNYsW9I+k+f0tO/th/wbY+Sp/oPkkyx7pa3x8vYD98vgRXZgasp42jyotj5tnTKelrFZXjGD3l+1rQH7u23RMLn1gUmSq1+EVGYox8FpoTxSYtbY29u8yYTed+oH5b6H76EdL/PAXtX5wFsxsirIGJEA0E7J5nJZkbpa0rPypKKyw1+phh07dsrG0jJJSs+RlJVrpLqme3+395XPg13ajo2z5dH+wf5hpyPWPcnd6lbdK+M+kAf6P+36RxgdHKr74uDZkltp3bWat2bI2Jf0tHDugfa9e9hSe506Kfhc1e/ct+377Z0vfSYpzvbbZbTX05GOQajI9qzP5IEBg2VsmhM2V0nu9yPVtPZj47XvxdFD5E71efXcS8/L23Fl1j26uUzd8/V+ONupMCGt2hc9nIDz2eDs74APJMF9z/dtW6ifJ14tabt3bAD2FvbFzwIAANh7IaQFgIiDkDY0/ENXhzBDWmVUipOg2uxiSOtXd0upzH5X1fNZpmmZu2XxGHn+rRhx/2O6ZOj6pkvwqCFPvhg6XL4IbEHlo6v5AADt9KUHMd3fFqvljS8U7RIrnPSFpA5Zn8md/T+QBP1UOlhrVXWP/eSB9rpyxz8mtw5Z6tcqVmMC0wGfWZ8daybJvf2HSYyrNdW2wgxJKbTqX/XxQ3LrqGTrYbgLU/aweL8WuQ5Wy2F7Ww3WMXgqepN5FVqZIRwHHfZ6HodNMv0510P1EI+XeWDvCyQAoCva2nbIps3lkpyRIxmr86Wswv/96jyUT16ZK2mr1kj5tmp7Tvj0lc+DXdoOu4VnqH+3e9+TrPvpo99Y91PnHh4b2IuCue89ZPUIENI9sE6WDrtf7nWHj81lsiotW7b47rfPy3S/LwaKoGVbdAxpA7bfR5XEDlH1j7eOr/e+q3v7U+reHvj5EbgN5jgH31/ns8hv20L9PFF0CGm7eWwA9hb2xc8CAADYeyGkBYCIg5A2NHoipI2aMl1efXWyrHDntD0Z0ipMMPtuXPD/+O4ipG3JmNwx2HXR1XwAADd96UFM97eleyFth652zUNgu5VRJw/62x8ed1Kvuyy13FLTuugxeWnUbIldY7dOMlhl3Dv4Ixn78Wd+jh78WHvQ2wHrQfjbiXZJprWuEyKEWmYPHIf/P3t3/yRVfef9/2/xhxRlUZdWuRWrUpXUpoq6LutLrVthy2u1NinN1xKv5WKNG5PLSy8X/cqFZhFJVjcSiRLEgEFxlLAMCwgBRoUBlBkGZ7gbQGa4HRAYYGBmGHx/P+/POafn06c/5/Tpnu6ZPjPPR+UVmb49fbr73L36nBNtVM80vnxlAoBykja+j9xO32hfqUaZH4xpOKopaT3TpGzTLWcekHEaeO3QOzL3v+thgV+WN/+zTbrd4tc+xs/lX2LT7dd/97KZvuvz+N/f0uELpu2zX4w/zlvyL2EZqj8sSnpde197UOaui8/XYvOLaqb55e7jDIv7GFaV4waYTKbavAAAMHlR0gLIHUrabGpR0i49MCydK1+Sf3pr3+h5YWta0vbZPWkLhzOOhOfW7T3QLP/24ovyq78kFQ1X5S+/nie/akk6F0256wGgWCNtiBnLsCTtOeo33iVtYOj8Edn84RL5Fz1/339/sVDg6mM88tp22ftlW2kOnPLuSat61v28sBev/Xfh9Wd9zKzjYYnsDa4pUrRRvZoN9gAyKz6M5UH55nK/nD53sezhLyvRKPODMQ2HnX559rhMkDRNyjbdqrykDVyW7i83yx9e1fOr/kQeMdfZabJ9jBflfd9026So0HWUDl8wbX/6Q//jREdxSHvtpfO1Ckva19rsv4ueI+v8JPrbHWdVjhtgsplK8wIAwORFSQsgdyhps6lNSWv+GZ4ntnDY4zGWtP88LzhHbnDe3Bfl+ZUdcjG8RYF9DjM8JvObjpeeFzfS3WT39P1Cj5XsU+56AIhppA0xYxqW3rUy+0d6vtXoZLGu4FCKf/vqnuzlZJlDV0aHCE493HF4GMmh850lZeveV0c3QOtjjA7bKHtI5KK9bmPs8OreszpMPxndq9bI9pjZx0PpuXGD8VDYqJ5xfCWXHQDKuX37tpw36wWf7emQz00+adkrX+w/JJeu1ObHeY0yPxjbcFwPzvuaMJ25poeK/9HPCyVuWlFZKAlTD3ccTvcyTQO1nI0Vir3NMrdoejs6bAXXT8l+c78e3+zNKH0NwWGNZ5cc7vi69Bww84De4IHGXtImv97o/kXPkXV+YpSUtFWOG2AymirzAgDA5EVJCyB3KGmzqVlJawwcWDV62OMxlrSvNnXIF21hWppk/rMvmeeJnfc2NHzjjOx66yX5p3/f4ylqh+WLt3Qv3KTxVe56ACjVSBtixjosujH4b//7P8nirSeC8/vJkFzrbZPX//kn8v/89C3ZX9iIm6GcNPfd/7vHzf0WSfOh8LBxl45Isx62WB8r2sas9/nvP5G5v2srPOe5L9+Sueaywkbu46vkH7RA/jJ8nKFT8vHTo+cFjB7j6XVHwrLXPEbLvwX3KdmY7Qo3xD/9nDwQP69gpsccy3j4JzOu3Y3q2cZXUikAIBvdOP/N5auy8S+t8vneA3L1WuHYL2PWKPODMQ/HdTNt++mD8rfPmeX33utm6mQM9cnB/1xkpoHOtNlIKypHS0LdY/Yn8rf//JbsPR9MzIbOB/OW0TI4yzTwumx/We/TLD3hNPGb1iXywI9elu12/hQ8xt/OXiLbw+fRx3hfnztluvmNvobZOmzX5dr1cPgOvCX/oPPDluhHOZfl4Ic6j4ym7emvPVtJa4ZrdsLrDee3xc+RdX6iw2Dm289tlp7r5jXZF1DduAEmq6kwLwAATF6UtAByh5I2m0pL2i/M7UcPOxy/3Q3zeOFhj2t6uGOR4b0r5J/mNUniq766R179X2/I5vhuWVd3yq/+12L58HT4d1y56wHAo5E2xNRiWK4d3yy/mvv/yt/+6EH5fzR6HtjXtkt30V42WcpJdV32v6uHowwf60c/kdmvbo49ltG73TznT8LbPCh/+w/PyZtfFm/g1oJ0tvM4j7wcexzvY4QbsVMM2b3CHpTZ6+J7TBllHzPreLgse992xsN//yd5cesp2aslRtHG8fLji5IWaFyNMj+ozXD0menWi/IPhemRmQbOfVn+EJuuZitp1SnZ/OrPi+ctb7fF7pdhnnH9iPzhaXce9XRsupxxvuNyH9N5LdfMOsw//4MzD5j7b9J8fPSBxl7SviV74/OZf35H9jp7Cpc+R3x+8nP5lW9+cv7z0cctvA9VjBsAFWukdQMAwORESQsgdyhps/GXtMflj/N852g9Yi9/dWd0uadQjQ57/Naympa0cuh983jBIYmDojj2+m1J+5psLmwcD/T+ebH801sdknQk43LXA4BPI22IaeSNQkPXw72xUg2Fe/ykGCr3OBkeo2K1e8yhcC+tcrKNLwCNpFGmwY1eEGSZDpafBprpcpnHqdl01Mx3aj5fCUvawvpR2XlbqazzEx/mMUD9NPo0GACQf5S0AHKHkjYbf0lrJvx/eUP+6X+9IR92X7IFpj2k8DsL5Z/mvS+dhUbTX6gGhz02j1uTknZYBr45Lh/+2jxeeDjj4UPvm8d/Sd7Ye0YG7MD1BYc7frlZik65NNwhb5jb/bHkvE+hctcDQIJG2hDDRiEAmDiNMg1mXpAD8ZIWwKTBNBgAUG+UtAByh5I2m6SSVg9dfPwvK+TZZ7VsDfLPrzTJF0WHE07Y69Xc9ws97PEYStroOYO8KPPf2SnHnVPSXmzT89SO3qZ02ET6W94oLW4d5a4HgCSNtCGGjUIAMHEaZRrMvCAHKGmBSYtpMACg3ihpAeQOJW0NDQ+P+XDAw+ePyBdtHYk5Hj+yMgA0sEbaEMNGIQCYOI0yDWZekAOHVskjs1fJwfBPAJMH02AAQL1R0gLIHUraxnJx5zJ59sWFifkThxwGkCONNA1moxAATJxGmQYzLwCAicM0GABQb5S0AHKHkhYAUC+NNA1mfgAAE6dRpsHMCwBg4jANBgDUGyUtgNyhpAUA1EsjTYOZHwDAxGmUaTDzAgCYOEyDAQD1RkkLIHcoaQEA9dJI02DmBwAwcRplGsy8AAAmDtNgAEC9UdICyB1KWgBAvTTSNJj5AQBMnEaZBjMvAICJwzQYAFBvlLQAcoeSFgBQL400DT5yojf8FwBgvDXKNJh5AQBMHKbBAIB6o6QFkDuUtACAemmkafDxnjNy6crV8C8AwHjRaa9OgxsB8wIAmBiNNC8AAExelLQAcoeSFgBQL400DWbDEABMjEYqRpkXAMDE4EcyAIDxQEkLIHcoaQEA9dJo0+Ajx3vZQAQA4yQqRHXa20iYFwDA+GnUeQEAYHKipAWQO5S0AIB6acRpcGFD0YleO3yEEEJqn6MnTjV0Ecq8gBBC6p9GnxcAACYfSloAuUNJCwCoF6bBAAAAAAAAGA+UtAByZ7KXtPrreADAxGAaDAAAAAAAgPFASQsgdyZ7ScuhdQBgYkSHkgQAAAAAAADqjZIWQO5M9pKWkgAAJgY/kgEAAAAAAMB4oaQFkDuTvaRVR473UhYAwDiJfhyj014AAAAAAABgPFDSAsidqVDSqkJpcKJX9n11hBBCSB1y9MQpfhQDAAAAAACAcUdJCyB3pkpJCwAAAAAAAAAAJidKWgC5Q0kLAAAAAAAAAADyjJIWQO5Q0gIAAAAAAAAAgDyjpAWQO5S0AAAAAAAAAAAgzyhpAeQOJS0AAAAAAAAAAMgzSloAuUNJCwAAAAAAAAAA8oySFkDuUNICAAAAAAAAAIA8o6QFkDuUtAAAAAAAAAAAIM8oaQHkDiUtAAAAAAAAAADIM0paALlDSQsAAAAAAAAAAPJsapW0I5fkRMdB6SxKj1weCa8HkAuUtAAAAAAAAAAAIM+mVkl78DNZumZ9SdYdDK8HkAuUtAAAAAAAAAAAIM+mVEl7Ydcn3pJ21a6L4S0A5AElLQAAAAAAAAAAyLMpVdIe3Vpa0NpsPR7eAkAeUNICAAAAAAAAAIA8m5wlbc9eeXfNRvmw5SvpuTwsMnRROlu2ynJfQWuzUVa3HJQLQyK3Lp+WtpZt9v7bejhZLdCIKGkBAAAAAAAAAECeTcKS9oq0NvuK2CrS3CGXw0cdk+HrcuXGrfCP8XBdOprfkZ+9uEh+uuqAveRMy1L56YvvyKdX7Z85cl7Wv7FIHlv2hXlngQAlLQAAAAAAAAAAyLNJV9IOtG3zF65V5uO2gfCRKzR8Xlr/HBal88K8+GuZ19QmF4bD29TLkY9lzrzX5dV9pwvlcC5K2ks75FcLX5d3joR/W5S0KEVJCwAAAAAAAAAA8mxylbQjX8vGJn/ZWnWadsqJSo96fOOgvLV4kfz0pWXyzr7jZkRekStXz0v3vnUy7yW9fLV8eSO8bR3YQnbhBukO/86Nvs3yzLxF8lpX+DeQgJIWAAAAAAAAAADk2aQqaW91tPiL1kI2yoe7vparQ+Edhq7IiV3bUs5VG+Tjjkp2fb0urat+nVzE3miT17SoXbqjeM/Q4fPyZcsamf/a6/Kz196R15pb5WTRXq9XpGPTGlmyp0cGzrTKqhXL5GcLX5d5KzZI66XRQymf3LNGXn1Dn3+pvPp+cHt15cgGWfK+eUz7V+SKnNy3wdw+es5gL199jCWbDoTD1yN/MY/zlzP2jyL2duHjR7f74MhFuXJ8hyxZ+kbRHrHDlw7I+vffkWfsMK+TTcfNo189IB9Ej21e05IVS2XOvEXyi6Xmce1j6RCMvu4iNRpfyCdKWgAAAAAAAAAAkGeTqqQVGZCez7d6i9alazbIuoP+QxcPHPwssahd/XmPedQKhHuDvtpxM7yg1PAN3bP2igxE3W/fVpmnh0VeuEyWtLTKp1o+LjR/z1sq6/vC2+hhf1/TvXBflzkvLpXXzO1ad26QV/Wyea/LO8eDWyWVtHbv2nmr5Uv7lzptDyOs952/aoNs2rfZFquPvbRaXltmLn9tswS97AF5LWHv1i9XmduF57yNbvezN5aa4fu1PLN0daHYHehabcvXx15bKe+Y4d7UvFKeMa933qrV8ovosRNL2vB1F57HqOH4Qj5R0gIAAAAAAAAAgDybZCVtYODEXlkVL1yb2+VyeH2pK9LaHLv9mk9k24nKz0d7Zc8y+em8lfJp5p1vwzLxjagUjVyUTUu1ZPxYDtq/w9vpYxftoXtaPtDLnT1zbSFbKFkD8ZL2ZPMbsVIzcKUjKFSrLWlL9iAe/kJeNZfPMbcrGpvDPcFwu4/tPdxxvKSt/fhC/lDSAgAAAAAAAACAPJuUJa3IcWkuKlxNth4Nr/M7tDV2+zWfSfo9/Er3WC2jb7P8Yt6v5S3n0MAFPRvkZ3qd3eszKivb7FWuM5u0cF0jHdHfZUvaHlm1cJHMaQrqzGLmOj2fbrV70jYXH5Z4eN9K87zLZFPRoYgDwx16XYUlbR3GF/KHkhYAAAAAAAAAAOTZJC1pv5aNTbHStdKStmmnnAivq0TFe9J2rTa3L92jNdDmFKSxstIRL4bLl7RBofpMy3n7V5wtX6ssaeOPGR+2IvFSNktJW4fxhfyhpAUAAAAAAAAAAHk2CUvahPPSrt0tPSPhTeJGemTL2tjtTSo+H60Ki8by56S9LrbHPf6xzJn3uqwq3gE1cGmrzKuidCxf0h6Rt14q3es1cEX+oocNjpe0Jbud3pRPV5QvaVNLa/vaKyxp6zC+kD+UtAAAAAAAAAAAIM8mV0l7vUdaNm4oKVujrNp1Vm6FNx01LKd3feK9vU3zXum5Ht40k+vSuurXpedmjdxok9deWiQ/XfFFWAAH5eYvPIXpmU1aJq6UVltw1rKkDfeCLZy/1REWpaP3Dwrd0kMjH7SXlytpo8ebv+dieEEkHE+FUtXIUtLWYXwhfyhpAQAAAAAAAABAnk2qknawo8VftDpZvnGvdPZclKuXr8iFnq9kS/NG7+3cfJyyV6zXjYPylp7X9aVl8s6+42ZE6p6z56V73xp55kVz+cI1RQVuUBq+Lr9qPiAn7W1Py5fN79i9TOe1nA5vVduSVvqCvU4fe22NtJ7R57wiJ7s2yK9eekN+UXROWpGTzXoO19fl1Z3ha7l0RNYve91c5g5PQkkrN6Xjfb2teX0tR8L7H5dP339DHnvp9eI9aYe/kFf1Mf4c3G4goWyt9fhC/lDSAgAAAAAAAACAPJtUJa3IRWlZ5y9aq866L+VC+OiVuSgdzSvlF1rKapmpefENmf/nNrngOfTvhY6wwC3cdqm81XE+OCSyVeOS1hg+0yqv6WM6z/nOkSvSWnROWnVFOv68VB6LbmcL1+PyaYZz0gbi918kP1uxQ06eKd1z9syelfKzcDwEj+V/3bUcX8gfSloAAAAAAAAAAJBnk6ykNXr2yru+srWqbJRtiSeyrQ97vtobpQdlrqvh60XPaQ+FvHSHXAn/HnVLBqJz6VZlrPcvNSHjCxOOkhYAAAAAAAAAAOTZ5Ctp5aYc2uqcl7bpE/kwwyGNNcubt8mqptG/3956VAbDR51sLugeq6+tKz0nrRyXdxbqOWiPhH8DjYeSFgAAAAAAAAAA5NkkLGmN60dly+bd0tZzRYJ9LEfk6ol2+XhtcSlbyNoWaT0RFS7DclXPVWvuf+h6eNFkdHWHzJ+3SOYs2ywHr4Z7og6flk9X6Pljl8r6vuAioBFR0gIAAAAAAAAAgDybnCVtghPbnT1snby9/evwFlPL8Jkd8upC57yumoXvyPqeydxOYzKgpAUAAAAAAAAAAHk2pUray3s+8Za0q/ZcDG8xNdnzul7Vc7veDC8BGhslLQAAAAAAAAAAyLMpVdLKkc+8JW0zp18FcoWSFgAAAAAAAAAA5NnUKmllRAb7r8jVy0762XsUyBtKWgAAAAAAAAAAkGdTrKQFMBlQ0gIAAAAAAAAAgDyjpAWQO5S0AAAAAAAAAAAgzyhpAeQOJS0AAAAAAAAAlPr2229N9L+k8WL+r0bcxwrec1KrRNx/1wslLYDcoaQFAAAAAAAAgKigM//Vf5vcNn/cNv8gjRjzXoXvk33P9P+qEJWJUW7fvl1I/DqSLWnjsJ4oaQHkDiUtAAAAAAAAgKlO+yOtkLQAHLltYv57y/xXo/8mjZOi98X8V98z8z/7HmYRlYXxAlFLxZGRkaKSkVSfaFzGx3M07muNkhZA7lDSAgAAAAAAAJjKtC6y5azJttMX5V/bjspzew7KP7a0kwbO/9ndZd8rfc/0vYvK2jRuSajRErH3zFnZ27ZfPtu9V/688RNSw3y25wvZY8atjmO3sI3eg1qipAWQO5S0AAAAAAAAAKYq7Ym03Ls18q38f18cljmf7vcWgqRxo++Zvnf6Htqitkz3FxWFt27dks92ByXi6bPnwmtRazpudRzruNZx7ha1tURJCyB3KGkBAAAAAAAATEXaE+m5TfWQudvPfCP/89MObwlIGj/63ul7GBz+WEvA8E12ROVgdCjentNnbHmI8aHjWsd5/DDItUJJCyB3KGkBAAAAAAAATEXaD2mpNzQisrCt21v+kfxE30N9L/U99XV/bkmre3Tu3tfOHrTjSMe1jnMd95S0AGBQ0gIAAAAAAACYirQe0kLv5q1vOQftJMhzew7Z99KWtMFbXEJLQd2Tc2hoSD7dvTe8FONFz/ur417fg1oWtIqSFkDuUNICAAAAAAAAmGrsHpUmwyMiA7e+9ZZ+JH/R91Lf0+CQx8UloH3Pw71oBwcH5c8bPwmvwXjRca7j3t2btlYoaQHkDiUtAAAAAAAAgKlGu6HbJsO3Ra4PUdJOluh7qe+pvrfx/k8LQY3uxUlJOzGikjbak5aSFsCURkkLAAAAAAAAYKrRbqhQ0g6Lt/Aj+Yu+l76SNioENexJO3HcPWnd96QWKGkB5A4lLQAAAAAAAICpRnuhqKS9xp60kyb6XmYpaW/evElJOwF0nOu4p6QFAIOSFgAAAAAAAMBUo73QyO2g0KOknTyJSlp9b93uLyoDo3PSUtJODLekjc5JS0kLYMqipAUAAAAAAAAw1WgvREk7+UJJ29goaQHAQUkLAAAAAAAAYKrRXoiSdvKFkraxUdICgIOSFgAAAAAAAMBUo70QJe3kCyVtY6OkBQAHJS0AAAAAAACAqUZ7IUrayRdK2sZGSQsADkpaAAAAAAAAAFON9kKUtJMvlLSNjZIWAByUtAAAAAAAAACmGu2FKGknXyhp6+PWyIgcOHTURv9dLUpaAHBQ0gIAAAAAAACYarQXqldJ+8cjvdJ56ar0Xrthc/TKNVlz7LQ8+XmH9/aTLU3Hz8jn576RJZ0nvNfXMxNV0vZd/EbWbf6LvLVqjc2HzZvk8LET9vkmgxtmfL3xzns2+u9qUdICgIOSFgAAAAAAAMBUo71QrUvaX+/vlpPXBkQrJ83gyG25aXI7LKEuDQ7JHw6d9N53MuXg5atyy4zb5pPnvNfXM+Nd0t64OSjvfvhneX7R6/Lir9+Qf33jLRv99zxz2et/WCnn+i6Gt84vStryoaQFUDFKWgAAAAAAAABTjfZCtSxp/7XtiJwZuGkL2UOXr9nC1r1OL9Prrt+6Je8e7im672TLVClptax884/vywuLfyvNW3fI4NBQeI3Y59m+a48taxf97g9y7kK+i1pK2vKhpAVQMUpaAAAAAAAAAFON9kK1LGn3X+wX83DSdemq97DGeplep3XUiasDRbd5/cAxe9lIWFZpmXvh5pB8dPxM0WNsO31Bbt66LZ+evWgfS4vQ6Pa6B68+jnt7zbtHeuTcwKC9jdLnOHX9pr3cvZ0+/5WhYVn39Vk5d2NQhm7fLpSsOqy7zl2yBbM+iubq0C3Z3NtXGCb9b/Q4w1q+mdvYPYnNdWcHbsqr7Uft9c/s7pQ9fZfsHsZKb6eP22oeX6/T24wl41nSbv2sVZ5/9d/l0z1fhpeUsrdZ9Lq8v+4/7WuNXLpyRVZ+9B+FPW7n/2aJNDVvNpf3yx/e/8jm5mBQ+n7wHxvl35evlKMnTsqy1U328fQ+L72+VD7fu8++Jpc+T8fBI7J46fLCbX/127dkc8vnRUWyynpbStryoaQFUDFKWgAAAAAAAABTjfZCtSpp//3AMekfumWj//bdJimrjvbKwK0RW55q0apl6IFvrtpyU0vY7WcuFm6r5azSAlXv037xiuw+f8mWoFpzfXNzSH7TMboH73+ePGdvqzl85Zp9bP2v/q2Pv/bE2cJtT5vH0OfTx9UCVc+l+54ZNrdc1vvosOlz6l7DOsz63EqHzT5nzzl7mV6ne9Tqc2491SfP7z0oL35xyD5uNKx7+y7b6L+1bz529bq9XTRM1WS8StrrAzfktWV/tNF/V0L3qtW9a7UUfeeDtbLzizbZvONze5jk37y1whambhm6Ys1au7fu//2338nvV31gb799555Csfqf2z61t1P6kjf8pcVe/m9vvyuf7fnS3n75+x8Vni8qX93b6vPqY+pt9TZ6mRbC0TBQ0pYPJS2AilHSAgAAAAAAAJhqtBeqVUmre5/q3qPd/de91ydFC0ndq1VLUy1U3euWdJ6we7Zeu3VL3j74tb0sKml1L9bfmeuj22qRGhxOWWRHWOpqWXtpcNiWrloER7fVfHDstL1c99bVQzHrZVrSKi1RtUyNbqt702p5q+fTjRfQOjzR3rxRSatJOtzxznOX7B698b2NdQ9aLY/1umiP3GozXiXt8ZO9tjT9aENlj3FrZET+2LTOlq6t+/aHlwb0/LZLV35g92aNl7R62cf/ucUWqxEth3+7fJW8+uYf7B64Sve2nf9vS+xeurfMexzR+63fst2Wr5/vbbOXpd1W99DVYdQ9gRUlbflQ0gKoGCUtAAAAAAAAgKlGe6FalbRRkanlpHu5HgJZ9z6N59rwLbsX6+qjp+whgXUPWre0jKJ7mWoHGhWXUUnbean4eTRRURwNgx6KWPdm7fimv+S2Gi2UtRxuCg+pHO1JGy9W9Xb6OPp47uUaHWYddlWupNVC+vyNQXto42WHThYuj+KOi/h1lWS8Stqo4NRz0VbibN8Fefnffy9v/+lDW9jGfX3qtCx47c2SklYLYS2G4zZu/9QOhw6P0tLY/dulRayWudcGgvdMb6vPpc8Zd+36gN0Td+nK92VoeJiSNkMoaQFUjJIWAAAAAAAAwFSjvVC9S9qWsxftnqludC/YqMCM7qeXxW+n0cMAq6gAjUpatxCNsvzQSVsAR8MQ3VYfw/fY7nDo7bWk1fvr47iPm3R5FC2SVbmSNtqzV4vh09dvlgyPHiJZ76PPF92nmjR6SVvuflE5Gi9p9VDI31y+Yv92fbH/q6JSNu22cXrbF3/zhrzzwcd2b1o37374Z3vO22g4KGnLh5IWQMUoaQEAAAAAAABMNdoL1aqkfedwj9y4NWL3FE07p2q0N6nuMap7jpYraaP8x9fBuWNrWdJqvr46YM87q7evtqTVQxirsZa0UdouXCncp5qMV0l78dJlWfjG24l7xCYpV9IO3Lgp/7585YSXtFH0nLXsSZstlLQAKkZJCwAAAAAAAGCq0V6oViVtdNhfLSb/s6f4cMFuPj5xxpaUuteoFrbRIX6znsu2kpI2Otyx7ukav60vSWWsDpu+ro0954su11RzuGMtpN/46njh8lpnvEpafeg/rW0uKkh9ek6flffWrpdPPt1phsm89+Hhjpe//1FFhzvOWtKmHcLYd7hjHRYdpnIoacuHkhZAxShpAQAAAAAAAEw12gvVqqTVvN8dFK4Dt0bsv+PX/+HQSbk8FOxJ+h9heanFpRa2ep9oj9Yo/37gmL399Vuj53CtpKTV+/cP3bKPof92b6vPpc958eaQ/GvbEXtZUkmr5awWrrr364tfHCq67j/N69DXEx8m3bvWdx7bPecvyW1z+W7zX/dyLXsPXb5mz7+740zpa6sk41XSqtPn+uRXv/29/Hb5Krl0pbRA1cv0uhcW/1baOw/Zy7SY1YJWi9XDx07YyyJaoureq/MWvV51SXuo+7jdO/bj/9xii2TXp3u+lOdf/Xf5fG+b/Tu67fot20tuu/OLNnnB3PaTlp32b0ra8qGkBVAxSloAAAAAAAAAU432QrUsaTVaaGppqUXkuYFBuxerFpJ6GF8tOjXxgnXNsdP2UMla8H554Yq8e7hHPunts3uc6uPsOjdaaFZS0mq0JNXnvHbrlnx+7ht7Gy1QtaDV4dSSNbptUkmrBerRK9dsiafDpM+97uuzcsRcpo/RFztvrmbb6Qu2cL1grtPXv/VUny2ktRA+Y55HX9eJqwPygXntGh0/+vj633gRXGnGs6RVHQeP2HO3zv/NEnl/3X9K6779Nus2b5P/+2+/swWtFp3OoMips+dk4ZK35cVfv2H3Zj1+steWrVqAvrp0uSx68w9Vl7RaAq/6eL08v+h1e15Z3aP21NnzsnbjFvt8S1b8Sa4P3LC31WHSy7W41eJYh+PchYvy581/KbktJW35UNICqBglLQAAAAAAAICpRnuhWpe0Gi05tYDUcjSie5Weun5T3j3S472PXn7uxmBRkadFasvZi7YkjW5XaUmr+ej4GbkyNFx4bP2vlq3R3rxR0s49+8zuTun4pr/oNWmprAXsZ2e/sX+7w6RFa+el4JDHSs9Fq+ek1eu0qO1yrlP6by19o716x5LxLmmVlqd66GMtNnUvWI2Ws0tXvi8nT58Jb1XsXN9Fu5etlql6e/3vstVNtlCNl6GVlLRK98j9z22f2uLYHR4tkW/cHAxvFdDx8fnefbZodm+re/RevXY9vBUlbZZQ0gKoGCUtAAAAAAAAgKlGe6F6lLRuftV2xMZ3nS9abuqhjaNCs5bR4dACtpLhiUcL46VdJ+S3NTinbPRYGreIHmsmoqR1DQ0PV1Ri6u31PLFarNaDnn/2snl8fd3lVHLbalHSAoCDkhYAAAAAAADAVKO9UL1LWjL+meiSFukoaQHAQUkLAAAAAAAAYKrRXoiSdvKFkraxUdICgIOSFgAAAAAAAMBUo70QJe3kCyVtY6OkBQAHJS0AAAAAAACAqUZ7IUrayRdK2sZGSVszIzLYf0Uu9ByXzo6Dcqjnolztz34yZACNgZIWAAAAAAAAwFSjvRAl7eQLJW1jo6Qdo1t9x6Vl61Z5e816WerNBlm99Us51Dcc3gNAI6OkBQAAAAAAADDVaC9ESTv5Qknb2ChpqzV0Udo2b/SUsslZtf2gXBgK7w+gIVHSAgAAAAAAAJhqtBeipJ18oaRtbJS01eg/Ks1r/UVs2az9TDr7R8IHAtBoKGkBAAAAAAAATDXaC1HSTr5Q0jY2StpKXT8q65o85avJ8s0d0nM5OKzxrcunpTVpT9umz+TQdXszAA2GkhYAAAAAAADAVKO90G0TStrJlaik1ffW7f6iMlBDSTtx3JLWfU9qYRKWtBfl83We0tXk7c1HZSC81agB6dy8wXv7pc0dcjm8FYDGQUkLAAAAAAAAYKrRXigqaa8Pi7fwI/mLvpdZStrBwUFK2gmg41zHPSVtBgNt2/yF65oNsrE7vFFc905523uf9fJxW2mtm+6AvDZvkfz0jR1yJbzE52TzG/LTeUtlfV94wSR3pmWpeb2r5cvwb9eXq8z4em2znAn/BsqhpAUAAAAAAAAw1Wgv5Ja0z+055C39SH6i72FSSaviJW1L657wGowXHefxkrZWJllJe1a2JZ6H9hNpSSpE+76UVd77mKzdK6fDm2UTlrTz3pBVia3jQXnrJb0NJa2ipEWlKGkBAAAAAAAATDXaDdmSdkTk+pDIy/uOeos/kp/oe6jvpb6nSSWtngd1ZGTEFoWtX7bJ6bPnwmtRbzqudZzruNf3IDonba1MrpK2Z68s9xWtYdYdNJ9yn4OfeW8fZKNs6wlvl0lU0i6SOU0Hw8uKXdm5zF5fWtJekZP7Nsirb7wuP3vtHXmtuU0uDIuc3LNGlmw6EO6Ze0U6Npm/9/TIwJlWWbVimfxs4esyb8UGab10y96iyNUe+bR5pcwzt3lm6WpZ1XFehqVH/vL+GvngSPG+vsOXDsj699+RZ+zjrZNNx831Vw/IB+a2fylqUIPhfG3pG+a535D572+WL33P7aispL0iB3euKxkPxcoNw+h4Gr7UZsfTr/ZcDK4aPi+tzatl/mvm8d9YKe/sPGJujTyhpAUAAAAAAAAwFWk9dMvuSfutbOq5KP/z0w5v+UcaP/re6Xuo76W+p0nVn5aCUUl7/OuTsrdtf3gN6k3HtY7zqKStZUGrJlVJe3nPJ56S1cm6vXJ6KLxxZOisbEs4h22UVVG5l0lQ0v5ixUr5xbxlsulqeHFBj6xavEjmNX0szxSVtKdl/Rta3L4u81dtkE37NsuSpW/IYy+tlteWuSXmeVn/mvn7pddlzotL5bWWVmnduUFe1cvMfd85bm8U6Nss87QMXrhMXmveIZ+2rJH5CxfJnFWr5Vfm8mdazoc3FBnoWi1zzGWPvbZS3jGPual5pTzzohlOc9tfmMtf6wpvGA2nee5XzWO22uF83T73a13Xw9uUyl7SXpfWFfr6lskS+9rW2WH+6eINMnq06izDEI6n15bKvBd/bcvYoJQOxv9PF78jq3a2mXGy2r7Ox1Z84TlfMRoVJS0AAAAAAACAqUgropHbIjeGv5XLgyLz9hyS//npfm8JSBo3+p7pe6fvob6X+p6WK2mHh4fl+vXr0rJrj+xp288etXWk41bHsY5rHec67ilpyzi61V+yFmXtNtnWdlx6Tp2WQ2175cPEwyM72Xo0fIYsgpL2mZaDsumNRfKL5thuuEc+ljnzVkprz+aikjbpHLVXOoLytKSkNY/x6Q17Qei0fKCXL43OhRuWkW/EDyN8RVpX/drc3ylph7+QV83fc1YdKC4qh3uCx3RKWjucL62W1qLnFjmzSUtY87pK9ngNZC5pb7TaAvm1DntVoGeD/MxctuRI8Ge2YYjGU2yc9qwz4/MN+cC5bHjfyuB2l8IL0PAoaQEAAAAAAABMRdoR6WFxB0dE+ge/lb4BkY+OXZQX9h6Vp1sPegtB0jj5X+Y9emHvEfmo+6KcN+/d1aHgvfQd6lhpKRhFi8KBgQG5cuWKHDxyVD7bvVd27GyVP2/8hNQw2804/dyM265Dh6W/v9+Ocx337ntRK5OqpD2UpaStJlWVtOdluGOlLRO/LBSXF21xO6fpiN3LdbSk7ZFVuoer9/DIYdkaL2lXtdm/XGc2adG7Rmy/aYvNX8tbYbFZ5MwGu3dsVNIGJaVvr19znb6GQkkbDOfP4sWzurpD5hduVyr7nrTH5R09X+8bG+TgVd8hlLMOQzieVnwhRb3x1aAEnrOiVc4kFMpofJS0AAAAAAAAAKYqrYiGR76VgVti98Q8c03k8De3peuCycXb0nlhxET/SxonI/a90fdI3yt9zy7fFPseph3qOKLF4K1bt2RoaMiWhpcuXZLTp09Lb2+v9PT0yMmTJ22+/vprUkWi8afjUsepjlsdxzqudZzXYy9aNUVL2g2yfO0Gedt7nSdVlrRRwTpvZ3i4ZFuOhmVoUUnr3qdUcYkZlbQH7F+uoiK0a7X5d+meuYHi50srUIPhjIrP4H7B+XT9mdfiPzR09pLW6PtCXnst2Nv3sZeWyavNrXKyUCBnHYbk8TRwZENwCGVz28cWvyNLWg54znmLRkZJCwAAAAAAAGCq0q7IFrW3g5LvypDIhRvfytlr38rpq7dNzH/136Rxou+JeW/0PdL3St8zfe/0PdT3Mq3/c/fgjIraGzduyNWrV+Xy5cu2TNR88803ZAyJxqOOUx23Oo51XOs4d9+DWppUJe2J7Rv8JavJuxt3S2v3WRm4ORLeOnTzmpzr7pAtGzd676d5e/vX4Y2zKC5Ar+xcZs+nelJuypd6mOFoz86ikvaIvPVSwt6hckX+snRR5SXtcT2s8uuyyveQ4R6nhWHcY4ZRD5/sKyrt40QlbTCcv2g+IleuXvFmIKHsvFCupC0cpnnU8I3z0t2xWV7T1/viyvDwxlmHIXk8RYZvnJaD3nPeotFR0gIAAAAAAACYyrQr0rrolvm/QfN/ul382tBtuab/JY2boeC90vdM3zt9D7P0fm5JePv2bXv43cHBQVsk6n9v3rxJapBoXOp/dRzruHbHfa1NqpL26pdbS0vWtTvlaH+smE3S3yPb1sXub/Jx283wBlnE9oodNn+/tEhebdks8+a9MVqaFpW0YVH50sdScsDjcE/WikvacDjsoZVjgnO3OsMYPsf8PfG9YK8Xzl8blLQ3pXWFee43PIXq8a2y5P0N8mXSeV1t2eu8/oKDxQX1pTZ55/110lq0B3CbfS2vdujhj7MOg388BbfZKgfNRLDAvP5f6LAVduVFo6OkBQAAAAAAAICg4NPzmY7cDg6bq3tmksaNvkf6XiWdgzZNVBJqcajRQ/DGE11HKkvauFT1KGjVpCpp5XK7rC4qWLdJx/XwuqyufyUfFz3GVmm9HF6XSaykNU4267liY8VirKSVvq0yz9zmsdfWSOuZYI/Qk10b5FcvvS5zXjL3rbikjf42w9LUJiftXqan5cvmd8zjmccsGsab0vH+6+a2r8uvWo6YN97c9tJx+fT9N+SxxW/Iz8xtC+eaDYfzZ6t2SPelm2aqcl0uHN8g815cJHPMMA2ENytlhvsNM9wvvSOruk4He72eOSCrlunzrpRP7V6yKthT1p6TNnz8k/tW2r2C3ykU3FmGIWE8hXsR6zlpT97QYwlclIPNOp7ekb94zsmLxkRJCwAAAAAAAACjtEMi+clYRIWh/tctGknt4o7jeppcJa1ckdZmp2Bdu1t6Mu5EWzDSI1vWOo/R3CEVdbSeklaLQS0VX+1w9siNl7TG8Jkd8mp4rlSbF5fKO0fMa6rmnLTWLTm5c6X87MXRx3zstXXScTXYM7VoGM2462heZgvZ6LY/W7FDTp4J9rItlLTG8KU2eSs8Z2yQX9si+EJ4faLhHvnLqqXyWOF+YSkd3/vWPv7obX764hvy6p7T4ZWB8sOQPJ4GejbLr0rGc6VtPiYSJS0AAAAAAAAAYKrTEpHUPuNlkpW0RvdOWR4VrCbLtx6Vq1mL2pFr0rnVPa/tBtnYXWnLWwPD1+WK7uVZQ8M3ks8XW+yWDFy9Hpw3V9ky+dfy1vHwb5cOp3vbCgzfyHA/Ox7KHGp6DMNQj/GM8THeJa0merzo8SlpAQAAAAAAAABAtdI6DY3bV7g9RhRf8VpJal/Syk05WlS0mjTvlRPlzkur56N198I1Wb71uAyGV09uR+Sdxa/LqyXnpBUZ2PeO/HTeMg4FjIZSq5JW4/s7ijsxjB4venxKWgAAAAAAAAAAUK2xlLS+0rXS1KGkNUbOy+exwlX3il219Uvp7Lko5nkDQ+bF9hyUlq2fyNtFtzVpbpdzE7AT7UQ52KTnhn1DlnScDvdKvSVX9Dyv8xbJnPcPVrenKlAnlLQAAAAAAAAAACDPJmdJq0YuScfmjcXFa8Ys3/yVXJ5CBW3ginT8ufh8sZpM55oFxlkjlLQaAAAAAAAAAACAarh9Q7zT0Lh9hdtjaHyla6WpX0lrDcuFjp2yylPE+vOJNHdclKl9ltKbMnD1ilwxyXYOW2D8UdICAAAAAAAAAIA8c/uGeKehcfsKt8fQ+ErXSlPnkjY0clPOHflSmjd6Dmu8ZoO8u3GntBw5L4NTbu9ZIJ/Gq6TVRPePHs+daAIAAAAAAAAAAFTD7RvSOg2N22NofKVrpRmfkrbEiAxevxn+G0De1LOkjS6LEt0/ejxN9BwAAAAAAAAAAADViPcZmnKdRhRf6VppJqikBZBnlLQAAAAAAAAAACDP4n2GplynEcVXulYaSloAFZuIklYTPWb0HAAAAAAAAAAAANVI6jM0bk8R7zA0vtK10lDSAqgYJS0AAAAAAAAAAMizpD5D4/YU8Q5D4ytdKw0lLYCK1bKk9cW9rTtRjB5TQ0kLAAAAAAAAAACq5XYZGrePcHuKeIfhK1yrCSUtgIqNZ0mriR7DnVhS0gIAAAAAAAAAgGollbTxjiLeYfgK12pCSQugYvUuaTXu7aPH0LgTzJHb34ZDBAAAAAAAAAAAkM3wyO2ivsHtIdx+wtdf+ArXakJJC6BijVLSXr85FA4RAAAAAAAAAABANtcHh4v6BreHcPsJX3/hK1yrCSUtgIqNd0mrcSeQhcc2uTVyOxwqAAAAAAAAAACAdNoraL8Q7zE08W7C11/4CtdqQkkLoGKNUtIGuS4Dg8MycpuyFgAAAAAAAAAA+GmPoH2C9gpuz+D2D/Fuwtdf+ArXakJJC6BitS5pdWIUv0zj3kfjTijdCWj0nBodBjfRsLnRYSaEEEIIIYQQQgghhBBCSP7j6wHiXYHbI7j9gts7xDsJX28RL1rHEkpaABVrtJJW405g4xNfd8IcT3xiTgghhBBCCCGEEEIIIYSQxo5ve3+UeEfg9gfxbsHtHeKdhK+3iBetYwklLYCK1aOk1cQv17j307gTTHdCqnEntJr4hNidSFea+AyAEEIIIYQQQgghhBBCCCG1jW/7fNbEO4F4ZxDvFNy+Id5F+PoKt2CtRShpAVSsUUpajTtB1bgTXE18ouzGnXgTQgghhBBCCCGEEEIIISQ/8W33jxLvCuJdQrxriHcRvr7CLVhrEUpaABUbz5JW495X4044Ne6EVeNOeKPEJ9BpcSfyhBBCCCGEEEIIIYQQQgiZuPi24yfF1w/EO4R4xxDvIHw9hcYtWGsRSloAFatXSauJX6dx7xvFnYBq3AlsFHci7CY+0SaEEEIIIYQQQgghhBBCSD7j6wE0vt4g3i34+gdfT+H2GLUKJS2Aio13Satx7x/FnZBq3AmtG3einJb4hJ0QQgghhBBCCCGEEEIIIRMf3zb9pPh6Ak28U/D1Dr5+QuP2GLUKJS2AitWzpNXEr4/iPkYUd4IaxZ3oxuNOqAkhhBBCCCGEEEIIIYQQkv/4+oAovh7B1zf4eglNvMOoVShpAVRsokpajfs4UdwJqxt3IpwWd0JOCCGEEEIIIYQQQgghhJDGjW87vy++3kDj6xl8fUSUeIdRq1DSAqhYvUtaTfw2btzHcuNOZONxJ8yEEEIIIYQQQgghhBBCCJl88fUDUXy9gsbXQ0Tx9Re1CiUtgIqNR0mrid/Ojft48bgT3aS4E21CCCGEEEIIIYQQQgghhOQvvu3/8fh6hCi+/iGKr7eoZShpAVRsvEpaTfy28biPG487ESaEEEIIIYQQQgghhBBCyNSJrzeI4usb3Pj6ilqHkhZAxcazpNXEbx+P+9hpcSfOhBBCCCGEEEIIIYQQQgiZPPH1Ar74egY3vp6iHqGkBVCx8S5pNfH7+OI+R6VxJ+SEEEIIIYQQQgghhBBCCGm8+LbvZ42vV4jH10/UK5S0ACo2ESWtJn6/tLjPRwghhBBCCCGEEEIIIYSQqRdff5AUXy9Rz1DSAqjYRJW0UeL3Lxf3uQkhhBBCCCGEEEIIIYQQMnnj6wnS4ushxiOUtAAqNtElrSb+GNXGHS5CCCGEEEIIIYQQQgghhDR+fNv7q4mvfxivUNICqFgjlLRR4o9FCCGEEEIIIYQQQgghhBCSFl/fMN6hpAVQsUYqad3EH5cQQgghhBBCCCGEEEIIIUTj6xUmMpS0ACrWqCWtm/hzEEIIIYQQQgghhBBCCCFkasXXHzRKKGkBVCwPJa0v8eclhBBCCCGEEEIIIYQQQsjkiK8XaORQ0gKoWF5LWkIIIYQQQgghhBBCCCGEkEYIJS2AilHSEkIIIYQQQgghhBBCCCGEVB9KWgAVo6QlhBBCCCGEEEIIIYQQQgipPpS0ACpGSUsIIYQQQgghhBBCCCGEEFJ9KGkBVIySlhBCCCGEEEIIIYQQQgghpPpQ0gKoGCUtIYQQQgghhBBCCCGEEEJI9aGkBVAxSlpCCCGEEEIIIYQQQgghhJDqQ0kLoGKUtIQQQgghhBBCCCGEEEIIIdWHkhZAxShpCSGEEEIIIYQQQgghhBBCqg8lLYCKUdISQgghhBBCCCGEEEIIIYRUH0paABWjpCWEEEIIIYQQQgghhBBCCKk+lLQAKkZJSwghhBBCCCGEEEIIIYQQUn0oaQFUjJKWEEIIIYQQQgghhBBCCCGk+lDSAqhYI5W0ev/T5/rkZE+PnDhxghBCCCGEEEIIIYQQQgghpCTaI2ifMNZeolahpAVQsUYpafuuXLMT1W+++UaGh4fDoQMAAAAAAAAAACimPYL2CSd7euXClWve3mE8Q0kLoGKNUtKeOX9BLl26FA4VAAAAAAAAAABAOu0VzvRd9PYO4xlKWgAVa5SSVveivXXrVjhUAAAAAAAAAAAA6bRX6Ok95e0dxjOUtAAq1iglrR5DHgAAAAAAAAAAoBInvv7a2zuMZyhpAVSMkhYAAAAAAAAAAOSV9gu+3mE8Q0kLoGKUtAAAAAAAAAAAIK8oaQHkEiUtAAAAAAAAAADIK0paALlESQsAAAAAAAAAAPKKkhZALlHSAgAAAAAAAACAvKKkBZBLlLQAAAAAAAAAACCvKGkB5BIlLQAAAAAAAAAAyCtKWgC5REkLAAAAAAAAAADyipIWQC5R0gIAAAAAAAAAgLyipAWQS5S0AAAAAAAAAAAgryhpAeQSJS0AAAAAAAAAAMgrSloAuURJCwAAAAAAAAAA8oqSFkAuUdICAAAAAAAAAIC8oqQFkEuUtAAAAAAAAAAAIK8oaQHkEiUtAAAAAAAAAADIK0paALlESQsAAAAAAAAAAPKKkhZALlHSAgAAAAAAAACAvKKkBZBLlLQAAAAAAAAAACCvKGkB5BIlLQAAAAAAAAAAyCtKWgC5REkLAAAAAAAAAADyipIWQC5R0gIAAAAAAAAAgLyipAWQS5S0AAAAAAAAAAAgryhpAeQSJe1EuiBd7YfkbPgXAAAAAAAAAACoDCUtgFyaOiXtsAxdvyLX4hkKr54A7csek//6D4/JzGUHwktqZGig9HWWZEDG9NL7NsgTZtj/67J94QXZnP3kX+xr/rfO8AIAAAAAAAAAAMaAkhZALk2dknaf/JuWir488o/y6OsbpPt6eNNxcnLD/5aZ5vmf+ORMeEltREVoev5F/qMvvEM1KGkBAAAAAAAAAA2AkhZALk25kvZnv5VN7btlT5SdG2TJvz5ly9L/OmeptE/gnrW1MtR3YPT1mfzp/2op+5S8ssN53e0H5OxYXislLQAAAAAAAACgAVDSAsilKVfSPr/Bew7Yk3/+37Y8fHbnlfCSGPcQwlnLzaGxHlp4ePQ5rw+Hl1UuOKxyxj1ns75OX0nr3DfpruVL2tq8ZgAAAAAAAADA1EBJCyCXKGlDnb+15eHMd2Pnh71+TP7j9XBP20L+UR793Wfmcc7Ifzyvf/9W2sObW5d3y5Jn/tG5vckjT8kLnxyTa+FNVHJheUH2vPsv8qNHnPubzHzsX2RJ+4XwNtllKmkrfZ1uSav3XRy77yP/KE+8u1u+CW8eGa/XDAAAAAAAAACYGihpAeQSJW3g2s5XbClYtCftdXOfOWFZ+Mxv5T92BocK3vbJb+V/PGIue/638sozer1b0h6SJXofLWU3fCZdp09K184N4e2KH99fWEaF6GPyk399VzZ1HpOzpw/Jnh1/sM+pl1d6DtuyJW01rzMqaV9fau8782cvydvR4ZR3vCvP/ix8vNj4ruw1jz5Orc/bCwAAAAAAAACYHChpAeQSJe2wfHNkg7xgi8Y/FJ2TtuvdJ2xB+PfL9hXtAWs5xWZRedm51O5R+pM/HwsvCF3/TF4Inz/au9RXWH6z48WU59wtrzxmHuOR38hnFRw/uVxJW9XrjEpak3gRG7gg214PHtctWCt/zdHzvyibLoeXAQAAAAAAAAAQoqQFkEtTrqT15h/l0WV6WF/H0G5ZoHuuPvYH6QovKnHkD/Ije3+nvAwvm/n6ZyWF45A9z+pA+JevsDwpTb/Qx0suYb/5OthbtbuCwjK1pK32dRZK2pTy9PIn8gu9zc/+ZF5ZIPE1pxTPQ3t/Y+/D3rQAAAAAAAAAgDhKWgC5NOVK2sdelFeWLZV/c7Lg+X8M9n5dtnu0WD39J/mJ3l7PuZooKn6d8tI5dO/MX+ghgA/JyaHh8LpiJYXl0GeyQB8v4ZDM1Uotaat9nVFJmzqs0bh4SbZdDy5JfM0/+61s0kMl+/LJb+Tvyw4jAAAAAAAAAGAqoqQFkEsc7jhw9pMXbVFb2Fuz87e2TEwvBs9IU8k5adUV6d7xW3lCD02sj2Eyc86LsqT9Qnh9oKSwzFR8Vi61pK32dUbD+rvd4QV+8edOfM1ZQkkLAAAAAAAAAIihpAWQS5S0kdHr7Tlj+z6U/6F/p5aQu+UVWyDGS9pRQ9dPSteOd+XZX/yjLRp/8qdD4TWewjJ6vPEsaat9nVG5+syHqXvSBuXu6KGME1/zM3+Sbns46JQk7JEMAAAAAAAAAJi6KGkB5BIlbSS8vnD+1AOyRPeE1XOlhofqjdNzperet0Xl5dCALRRLT696TN7+mT7e0sJtSwvL6PDAyed57d4RHKJ52+nwggxSS9pqX2dhD9j/LX9KGhbPnsGJrznlnLTXTh+whz3u6qOkBQAAAAAAAAAUo6QFkEuUtIFr7b+VH5nrZ76+u1Cwnvzz/7aF4t+//lmwd63r8meyYI6WlJrR8lILTb3sR+8eCC+JZClpRb7Z+ZItRP/ePT9uREvPR8xjPGaeL6HQ9Ekvaat7ne5himc+r3vBhpdHrh+TP4Xn5l2wdyC80P+ar4UlsPc1X98tr9gS+SXZllBcAwAAAAAAAACmLkpaALk05Urax16UV5YFe6NGeeVfnwr2FH3kRdlUVGRGe7Y+JjMf+xdZ8OdPZE/7J/Kn1/9FfvSIloob5G17vVNeyqGgjDX3+cm/viub2nfb+yx5Jjjc8d+/m3a4YzUg7cueCJ7zmd/In3bo/XfLpj+9JD/RgvYfnjC3Hy09syhX0lb1OqOS9ncfhnvCPiXPvrtBtrV/Jv/x7kvyqB1Wve++ouK17Gv+xUvydvSa//wb+R/ha35hZ3iuYAAAAAAAAAAAHJS0AHJpypW0nsx87Cn5xe8+Kd0b1Loge94NysrCfR55ShZ8ckiuFcpNt6Q1rh+TTb+L3+cf5Yk/HchQWKoB6f7kN/Ko7kEa3d/kR8//VjZ9XVlBq8qXtKrC1xmVtMv2mT+S7nusZM/Y1Ne847fyROw1z/zFb+Q/vr4S3gYAAAAAAAAAgGKUtAByaeqUtGM1LEPXr8i165WUpMP2/LSV3adY8Jy+c9zWSzWvMxK93jGeO3YoeM3Xxu9FAwAAAAAAAAByipIWQC5R0gIAAAAAAAAAgLyipAWQS5S0AAAAAAAAAAAgryhpAeQSJS0AAAAAAAAAAMgrSloAuURJCwAAAAAAAAAA8oqSFkAuUdICAAAAAAAAAIC8oqQFkEuUtAAAAAAAAAAAIK8oaQHkEiUtAAAAAAAAAADIK0paALlESQsAAAAAAAAAAPKKkhZALlHSAgAAAAAAAACAvKKkBZBLlLQAAAAAAAAAACCvKGkB5BIlLQAAAAAAAAAAyCtKWgC5REkLAAAAAAAAAADyipIWQC5NyZJ25Kac6z4orZ/vlObtO2XLrq/kxNmb4ZUAAAAAAAAAACAvKGkB5NLUKmlH5PLBnbJqzXpZqmnaKMvXbpS3o7/X7ZTOvuHwthiT6z3SsvkTWd70mRwyfw4e2SnvrtstJ0aCq2viVIc0f3k2/GMsrsihz/fKocvhn1U+7ukvd0rbqfCPRnfzmly9PCC3wj9RT7HPFwAAAAAAAICaoqQFkEtTp6QdltO7PgnKWJtPpKUvuOZC0eUbZWP3QHCFz8HPZOnWo+EfMXrdui/lQvjn1HVTOjavl1Wfn5bBsJQd7N4tq5v3Sk8tS9q096IiF6Vl3ejnoezj9nXIh2t3S/wWh7aul3UHwz9q7PKerbJ041cyGP5d0LNXlq/ZYD6z8RFr3oON62X1nivh32pAevZ8JquazOe8aYMsX7vBfN43yLubv5QT/bV8Y3Iq4X0du9jnK67vy9EfjhSyQVZvPyqXx/i2FH0mfc/TtFWaD14Kb1BK7190eyerdl0MbwUAAAAAAABMLEpaALk0VUragYOfyfKikuET2Xbiily9fEVOfO6WtJpt0nE9vGMcJW0Gx6XZKcHrZsJKWi27gj2EXfUsaQvPGSvtoh8YvL396/CSyNeyscl5TSOXpGPzBlm+8Us5cdnZW3zkmpzYtU2WN22Vz89O8aI24X0duwwlbXy6cfO0uc96WV7yvlampKSNPc+ty8dl49r18nFH+cO962NRzAIAAAAAAKARUdICyKWpUdKelW1r3RK2fEpLr1ClJe3QRTm0a7es2/iJvLuxRbbs+VquDoXXWdGhUIflQsdec7sWaS2UOSNy9dRXsm17i6xeu1U+3r5XOtPOnXvxqLlth39v1Z4Oad7TM3p426Er0tO2V5o3bw2Ga9dxuVA0XCJXj5jrvYf9PStt5nlOh38VuXzcDMM2eXfNBlm1Wc/5Gx7mVS///LhcDW41ekjh/h5pbdHXt1FWb94rbaeuhTdwmXFz5EvZstk8brMzrFlKWmf8rzbDs63joh0HxYcmrqCk1eHe/Im8vWajfLg9OKdx9DhBIRa+Z2a8Ltf3rKXdv5dqvxmHn++Uj5v1detwnS/sdex32nyGN8q2nvBP64q0mvtv+3Kvea69xe+H7mHrXHZhzyf2s3ku4TkGDrbI23r7cj1tYbg/kQ8375bWE/p++Q7n67xn67bJOh0Pbjmsqv0MJDxe8J6a8X+i3dxuq2zpDq9Q5YY75X21sr5fRc8TvZYqSlrVvVPetpcPS495bdsOuntFR/Q17JbOhMcuV9KqwbZt/r20Y1JL2rLTuVCWz0/J5yIYl4VD0dvn2ikfrttonmuntBwJvtMAAAAAAACYuihpAeTSlChptewoKmFbpNMpWIoPdxzlM/9hTyspac92yIdNG2R1y1fS03dFrp76Wlq3fyJvr/1MDhX21A0KnI83fyKrNu6V1o7jcs72sANydPtGWbq2RVqOnJWrly9KT8de+XCtebw95+09S2lp59srLjj8cOHy60el2TzOqu0dcuJUOFwtW2X5muK9Ke148b7Wo7IuaY/Dm+flaMduWb1mo6zbc1A6o9cTL4h0XDVvM69nm2wrvD693wZZd9A53PTIeWnduMGM153S2q23OysnvjS3W7dN2naVKWnt+F9f8jpXbfxKWtzyqpKS9vJp6dzTYsfVlg59fQelJyyXtMT6cHOLvGvex0P6fH3mtub5dM/sNqfAHDCfx3d1/Owy4+byFbnQc1C2bdwobze3J5ao6sR28565JdnlDlndtFNOxPeaNfS9G/2hgV6/UbaknhBYx0FQMieJhvvDz81rNp9nHW497/Cqlg7Z5o6/8D1b3rxb2nouhu/ZTlllhqHZfW8r/AyUe7zC+G/eKS1to+9LpuFOeV+zvl+Zx09cUklrx09H8MMG89i2RLdXOE7tlXd9l4eylLRysMV8v9rF+Yh6JZa0maZzFYwffd0bW2Sdmfa12vfbfC7aPjP31cN6n5WW5k+kue20XLDvRYe5nQ5X0jQRAAAAAAAAUwElLYBcmgol7WXdi7CogM1S0iaUKmkFnl5XKEHCwrQtfn7bETmnBZp5jGDPtaAce/fzWM3SvTPYEzLemV0/KutihZxrsKNFljbHChct8wqHyg2Gy1dqDOgede7el9WUtJZeHxtGX0nrO6x0rIy6/OVW/x6g17+Sj/V9Sixp016nGUfmvlWVtEpfi+f1a4mleyQWv+MjcnT7Blkevb8jQWG6rWR35wHp3BwrYeN0uKLSztA9IIMidsQ+9+ovoz0tg/PRFgrXcHhTXpF1+vONyXuQ2+GOlafWiLmffn9Gx599z0rGg3HWDEeTGW/Rbwgq+QxkeDzv+K9guL3va9b3q5LnibPfjb1y4vIV0cOva7R8/HjtRtnSHY0sPRpA6bmHS4r7mLIl7cg1+zre/dy3x3wxf0mbcTpXyfhJ+FzY6ZP53pY8l33fWiTDEZsBAAAAAAAwSVHSAsilqVDSlithKy5p12yQ5Ws3lqbJ3C8qQYqK0Zii0kwLwvhhbNPLF1uW7EkoZqJSyTlU6+U9W0fLNztcxSX1qKiQCv6qe0nrFI6j9L5bpdW2zFEB5G9ftFRMLFPt69yWUNzooYPrU9KOFqUO97VqARkvyiJ6u7Q9Gm9qMR29d0ExWyhi9b4bw0PWjug4dF677m2Z9JyO5PfbiBWnRexwReMveM/8e+QGP0hoPhL+WcFnIMvj6fgo+axkHm7D975mfb8qeZ44+7yxaYr5Hn6462u56rxs/R4v3Xxw9LDE9rsejSe/4DMS/qHP0/SJrAsP59ysh44206zlGztS9+CO2OlOfJqUdTpXyfhJ+lzYx/NNu857p6EAAAAAAACYOihpAeTSVChp7TkXU0pYf0mbUH5ogZBUZNnSJix0zn5pD89ZVLwUssE8flQGxQpCa0Q6N5thaPLd10QP4Zuy91zxHpG6B55T2upwJRZ2QekVlTp1L2kTHzu6rw57fNyMsu9r0nuRWkxGe5qGf9awpB19TIf7udBDyyaW/HpY56RhVlpY6t6U5p+2oHPKMVt0hX9rIeaWXAnDG6efm8IevzG3dA/txHGipXc0/rQwWy9vJ3x29bDjhXGU6TOQ/fF84z/7cBu+8ZTx/aroeeLi3w1rWE6b79/yrcdHS9mbB817PDpdsnvNu6WtR0lJq4cQDg/nfEgPJXw9dp7gFN6SNuN0rqLxk/S5SPwcF0+3AAAAAAAAMPVQ0gLIpSlxTtrL7bK6qIDV0mebtIalwOUvtwV7wbq3SdrrK63Ac8s4LRSadsoh5xCmxRmQW/ZOvpI2KEQ+3HPec78gAzdTdn3T12ue+2ihsHP2zgyHyz+2g0Is2jMxsaSNCsHwz1K1Kml13ISlpEfqnp+przNe6oxnSWv+vbHdnk/T975e7U8/Zqu+Zluk6vsa7TlrjRa4WrYWl2nBHtLp56TVQlyHP+E2OtzevV6V5z074nltYczXPVDJZyDD43nHf+bhNnzva9b3q5LniYt/NyLxPaIlOHT26j26t3b0fqe9p56S1vc8GXlL2vB7VnY6V8n4SfpcJHzvSr/PAAAAAAAAmGooaQHk0pQoaXXPSd0ztVDCejb0azHglLTew9aqpAJB6XWFEqT0sMMFR3bKci1+7B+xgjB0Vc/D6d1L7qK0btwoG4+k7QEXvN6POwZsqfNx0TF/o0Mae8odW4I453bUvQjj57dVWhCOS0kbHPZ5dK9gV1DMJJep+joTSiz7Ot1SJ/YepL3HKqEsylTShoeb9h2G+cKebfLu9uNheZ+gZ68sX9cuHZ9vLDm0rx4Od/nnR6W1ufTQr4nn9g0Vzkec1PnZ4fbvXT5oXt/bsffMe47TkeOyce02aY2uquAzkOXxvOO/guH2vq9Z369Knicu/t2I2B9DxB5T9xDX90l/iJH0QxJH3UvarNO5SsZP0uci4XtHSQsAAAAAAABKWgC5NDVKWuP6UVlX2FtW96KN7fHVpoc1Da9fFxWoHonFkqHXOSXIQEeLvL12pxztH22+bl0+aIZjg6w7OBBe4i9pZeS0bFu3UT7cc3a0tBu5aQ+Bmla2ReyhUM3j6l5udo9ax4AZzuVNLdLWN1r03uo7KM1r1xef6/amjrMN8nHbpfACo79Htm3cKMvHqaQNyh0dhouj42HoihzavlWat6Yc7tiwxWT8dV4+LhubP5N1YzncsRyX5jWlRXemklZG5PTnn9jy6nS0R6m5bLBHCygzDGfLvLFhKfbuWk/hpeNYDzPr3YN4wAzfBlnavFdOXHYKfjMuT+zaZt7PrfJ56nOP2LJ06Tpz/8LnWYe7XT7caManO/6uH5SPzTBuPHItvMAwz9Npnn+5Ga/RJz/zZyDj4/nHfwXD7X1fs75flTxPjK88DV+fnme4ML4s3eN5g7n9xnCP2nT1L2mzTucqGD9JnwtKWgAAAAAAACSgpAWQS1OmpFVnO+TDtVFR68/yjR3pBWhagVdUxqkRuXxwp6xqCs+pqeewbPpEmg86pWdSSauu90jL5o1muIJzPur5N9/d/KX0XA+vT2PPWWpej/cco6PDZc97a/9rhqvDKUJDt061y8c6zsyw6zkm39ZzWp7VEm2cSlp18ag0rzPjzo4HMwzROEx7L6z46zT3XbdTOi+OxAq9SkvaETn3ZYu8G35mosfJVtKqAenZFdz/bVuqmscx47XlRHEd5xcMu3cPZ3tuT3Nd4rAPy4WOnbLajo9gXOo4XbW13SnO0jjDHY7P5Rv18+j5DEfvWfS50efZflQuu09TzWcg5fESx3/m4fa/r9nfrwrGj8uWj8FzjmaDrN5+UC4UiuFRuse0/tDEt3dvXNE4qVNJ637PkqdzKuP4SfpcUNICAAAAAAAgASUtgFyaUiWtGroohz5vkXe1aHFKkbfXbpMtnpKyZm5eSz+PbKphGSicwzYjW9ImHIbUlXG4bl2/Ilevpx1ieRwMDVQ9DDr85mPWcCZsuEZujuHzOCKD/ddksHB3LYcTSkh9njLn2a3ImB4vPtyVy/Z+jf150tiS1nso9AaQaXpS3/EDAAAAAACAqYeSFkAuTbmS1nXzmlw1r3MylgX2cMfevS2BapyX1o1bpcV3LmM9P2rCeVtRa8Hhjr3nWgYAAAAAAACmKEpaALk0pUvaSeuKtDavl49pzVBD9hy/sXOPytBZ+bx5gyzf/nV4Aeqqe6e8vXav+A5iDgAAAAAAAExVlLQAcomSdhI6tVfebdopR9nZDjU1LKf3OOdmjc4N23JcrvJZGwc3pWPzelm950r4NwAAAAAAAABFSQsglyhpAVRGz5F8Ra6amK8uAAAAAAAAAEwoSloAuURJCwAAAAAAAAAA8oqSFkAuUdICAAAAAAAAAIC8oqQFkEuUtAAAAAAAAAAAIK8oaQHkEiUtAAAAAAAAAADIK0paALlESQsAAAAAAAAAAPKKkhZALlHSAgAAAAAAAACAvKKkBZBLlLQAAAAAAAAAACCvKGkB5BIlLQAAAAAAAAAAyCtKWgC5REkLAAAAAAAAAADyipIWQC5R0gIAAAAAAAAAgLyipAWQS5S0AAAAAAAAAAAgryhpAeQSJS0AAAAAAAAAAMgrSloAuURJCwAAAAAAAAAA8oqSFkAuUdICAAAAAAAAAIC8oqQFkEuUtAAAAAAAAAAAIK8oaQHk0lQoaW8MDBJCCCGEEEIIIYQQQgghZIJST5S0AHKJkpYQQgghhBBCCCGEEEIIIfVMPVHSAsglSlpCCCGEEEIIIYQQQgghhNQz9URJCyCXKGkJIYQQQgghhBBCCCGEEFLP1BMlLYBcoqQlhBBCCCGEEEIIIYQQQkg9U0+UtAByiZKWEEIIIYQQQgghhBBCCCH1TD1R0gLIJUpaQgghhBBCCCGEEEIIIYTUM/VESQsglyhpCSGEEEIIIYQQQgghhBBSz9QTJS2AXKKkJYQQQgghhBBCCCGEEEJIPVNPlLQAcomSlhBCCCGEEEIIIYQQQggh9Uw9UdICyCVKWkIIIYQQQgghhBBCCCGE1DP1REkLIJcoaQkhhBBCCCGEEEIIIYQQUs/UEyUtgFyipCWEEEIIIYQQQgghhBBCSD1TT5S0AHKJkpYQQgghhBBCCCGEEEIIIfVMPVHSAsglSlpCCCGEEEIIIYQQQgghhNQz9URJCyCXKGkJIYQQQgghhBBCCCGEEFLP1BMlLYBcoqQlhBBCCCGEEEIIIYQQQkg9U0+UtAByiZKWEEIIIYQQQgghhBBCCCH1TD1R0gLIJUpaQgghhBBCCCGEEEIIIYTUM/VESQsglyhpc5Zzh+TGp7vlRuc5//XjnU4zLDo85zzXEUIImWK5Kjd263xhn9y4FF52yfz7kdly4/m/xG5LbBptvk4mQTzfQ0IqDcv4hDR+Gn4Zi/kRIVMqa1+QG3/3f+RGm/nu+64nJEw9UdICyCVK2pRs+b3ceOW3ZsXCs+H00oHguleWy42e2HWaLeZyvf7T3tLrxpLd5jH/yyy5scCs6PiuH+8sMMOiw7Pbc12tc868ZjvON/mvHzgWXv8RG5QIIaSW0SLxg3C+pvmjmQ53+1a+zTxvts4X/tfovHHLK8F8wr2snolKz92Vzn/N62kzryt6jTp//9Q8lve2NUyjzdeJP5+Gn/8tKZ+rwrKh+RxN6MZoz/eQ1Dfdfwnf+5Ts/sZ/30ZNLZbxq54ep8WMxz96xm9R+FEQmWRJ+i6N9zJWxanF/Cgqek1YxyekikTbyUx82zYrTtJ30jzPQ+GyA+s1pEzqiZIWQC5R0qYkWun5uWdFP9qoqlkbX9CJVkb+3tzOvbwGmcolbc/60XH+uwOe25hxYq9noyQhhNQmZv72u38enfYWxczjfv5RrIzybIy7dEhuPG8eY5lvul2HRPPJ2Wae4bvel05z278zr6fkNZp8b65ZHqjjXq6UtPlI2++D9+nv3vdfr4mWG5//1H/9uKUWG8VJRXHXC5LyQaxcafTUYhm/mulx2USf77SY5/Xel5CcJum7NN7LWBWnFvMj5zs/HtscCJlsiZZhfdOQqpLynfzUPNcjZnm4O3Y5IbHUEyUtgFyipE3Jub+ECzO/Kb3udz8eXdCJb4y7ZP6215mFk1rvSdFoG3MnqqT9Lz81C5vx21DSEkJI7aIr4GFx+XcvmZXuQ2a++E2Q3R+Nlpp/Y+ZLhXldLTbGjTGVlgKFcsW8nt/pHsLha+wxr7dQUJvr6lWwNNp8nSQk2jvALP+VLH9ozGfm5+Fn5dOJPsRbA3wPp1zMex5NHwvrD2b60RZdZpK3Q302bElrUhjXJn8Mp9N6uNfC5RP9HSSkxqnXd6nuqcX8KHoME0paQiqPu+3yv8ytQYHKd5KMPfVESQsglyhp02JW8u0Gt/gGuWNy4+/M5X/19yb6X7PS5N4vWomKl7c9+8xlZqFI72MXkMz95/6+dIWlsMFWD2m0XG78tbldtPHWtzFXz0XzN+FjFq24meHXQzb/jbm/fT6TvzbP/8Eh5zYaZ+Wp27w2Hcb4ipT+Ik6Hwz6O+e/s38iNTvP4SRtwesywz/1peHuTvzLj8HkzbPFDFEX3/9Q81jLznDpukhb0opL2v4ULmQ/F92Yx48E+n2cl0Df8unBaMvzOuGgzj/dzHRfhbf7aXLbFjB+9nb6++HVr4+M1jD532feAEEIaLB+Y6ZpOs2Z/5L/enfcUjm7g2RgXTbtLNiya6f4HrzjTZpO/+T9mmmkew71d4f5mOHab6f5DsWm5zoui20bDXBRnWOLR1/Df9DZmfqXzId9tosf8qxdi8zBz+0zz2DA635jtbCSJ5hu++bpGD22YZZmBjF/+GM73fUfzOLcpuC6+TFiPz3kh4WN/L3xcve3PzXJjj+d7GN2+VsuFJCUpy6NRsn6/3XWCLeZz4C7L/tx8Tuw0ybyva+PX6efAfSz3PU363Li3N0lbxo9Py3T5OD4tyzI9zrq+kJboeUp+6HLOPHb4uCVHPTIprFeY8a5/u683ab0n/hhZv9+k8ZPpO5lh2ljJel8tvktpy1iVTu99675J67clSZquOI8fn8ZkWj+PpqexFH3f+R4SkhzzXbHTNbMe80r4/f5juE3Ll7LTsDLfycRlB3P9mJd7PMsqOq9fZl6bO+15yEwPvPNs0kipJ0paALlESVsm0UqRuyATrQzpL7af1wUBs3LllrjRL9U2OAsG3eY+0QLJX8+WG39nUlj4+alZGHFuGy2Y/I2z0SJa6ImvtNkVq/Bx4gXtguj+5np9Pk00DEW3jVaezHAXhilakTKP84q5X/xx7EKQefxoA727EKbDaJ/H3P4hXRg0C0nR4/6VeVz3l3vRQpz7WuMLdFHcDZi+98W7USxl+P/K/Ldk+KNxYW6rr+F7ZrjsfaIVaHP5H81w6P181xXtaeU8t250+rlZyHzerDBGC5AlK9OEENIoORCWl2ZlutN3fVKiaagzHfZuQDS3mxvOF3Ra+ryZb+iGwWge5W58i+6vP4zS//6NTndNopV2d76y4WzH5+oAAO8DSURBVCVnfmOmu3YabS4rWaEPs9ZMk/W2FR+etpJ5rElhvmgSXwaI5n/ua9ZlhmheoRsaXzHzj4eieY25fd7ObTlZEhWxUanjJvosFRW4dfqcxx87/hn8K/Nc9vsbWx6qyXIhKR/f8qiTSr7f0XK//Vw471vh/ub6P5rnSbqu5CgH5vrZ+jnw3D5pGd27jG9SNC3Txws/X9Hnutz0uJL1hbQklrQm0SHIfcvc0Y8uonWJ6PXODh8v/h0smfZW8P0mjR33O2k/i853UtcXd0d7ZqdNG81no5L1vlp9l7zLWNVM783t9Pqy67e+ON+F+PMlzY8yr5+beWr0WHpZ9L0sHN6Z7yEhqfk0nA/quk40vfCeuiM2DdPvkjsNm2uWge3tynwnfcsO1WwLTVvuKSzbmGnzK+G0Tn9UoufcjX74ossRvmUw0jCpJ0paALlESVsmnWYBRmfy7nlpN5iVN71si1koiP5dWHkx/33E/F20ImJW/u0h8sxCxgexX62tNStYdiHCLDxFCxvRgone/o9mYcc9PFp0nV3hcFbAihZWTKKNEnq5+2v0c+Z+0d4ZhYLTDLNdOdPbm/t1O4cIi85foQs5esi26HK9z/Phc2sKC2FmeO2KlbkuvldStBHFHZfRQpx9/DLn/CtaCY2G2ayEFQoE89rs8DjjvuLhd8ZFfO+xT83KdnT7pOvc9zF67vh7oJ8HW6ybbKjjeQ4JIaTaRPO+tPNvehNNQ53psG8DYjTvjE9Lz+0enYdEP36K7l8yD9V5YLgi7m6Ei+aT8Q2iJTHzOvtDKxOdn3tvk5CK5rHRfNFc/sfYHinR42gKr8HMF34eziPiywyfhq/tbzwlIRmHmM9cdEhjd+NT4XM/u/hHDfX8nEePrctt7kYo3Rss+vGe+z2s1XIhyRAzTuPjv5AKv9+FdYL4crW5b/QepV3ne09LlonNMEXLxIWNsCYlG1ornZaZJE6PK1xfSEtaSaunoLEbhs36QlHpa57fFkf/Z/T7EL1eHaYtZnwVbmuGzxbh5jr3BxqVfL9JAyf6Tpr3rPB9CRO97w9F73HKtLGi9b4afpd8y1jVTu8T12/N47iXx1Pp/Ggs6+dF814TvoeEpETXdcLpjz0VR/RdMsuV8e9F9L38b+Z7XzTdMN8lO7+MHkMvT/lOliw7mGlNVdtC48sHOi0NH7uw7TVa3jKP424LjXaaiU/TSUOlnihpAeQSJW25RCvx0YKDLujo32aFQBdeohWjaENCdB6qwsqcSbTA415WiFlZiw7FFe15Gy2Y+DaOR9fp4T+ijRK6AuYulLgbEX3nRSssgJn/2suchaz4hupXdKHOXO5bwCls+DCJFsKi4XM38hQSjctw3Oll0UJclgWo+Epotxmf+nfhsMfRQpqzEljp8Lvj4lPntjbmMfQw16nXORtoo+f2HWIteg+yboAihJDxTNLGwLKJpqHOdLhkA6KZJtrbeDYQaOJ7JBbKq9+U3jYqkx9x5q+Zhz1lA0NqKpzHRsNTcoh+jS5ThPOKaGNs9Hp9e2sWlhkSxh2pf9w9EqLLCssj7nJePT/n0WObz84WdwNWmGh4Ct/DGi4XkgzxLI9GqfT7HU0/3GlclKiISbuu8Dl13tPUZWJnmOMbWiudlmmSpsfR5VnXF9KSVtJqfBtro8+8+z2OXq/3yArmvtFGZjs+Kvx+k8ZN9J30FpHmc23PcWzeb7uunTJtrGS9r5bfpWj4C5ePYXqfuH77z7EfObipdH5kMpb186LlNb6HhKRGv0/6HXBL0KTvRfS99O05f0mng5pompL0nTSJLztE05xKt4WmLdvotlB7WbS8YKYBG5zhjoa3aBspabTUEyUtgFyipM2QBbrAYmIXNMzKkq44FFaEopWXcKNatODgrnSsLbPxINq48Ep4fbRg4ttIEF0XHR7xe2Yhq2SlKRxG38ah6Hq9b+H6aCErtgdI2sKXja5Exq6PXkvhUEmx2OGKxqVJtBCXZSNgyUqoSdGhypJel0nW4S/cx7cymvZ48eucv6NDwBQl3GBU7pfJhBAyEUnaGFg20bTPmf+UTLujabWZF5RMG02iw19Ft4/u71tZj677L860NPOwRxv3TLzziKRUOI8tVyAUNjiE10fDXzikYSzR4b58G4JJ/RNtQHY3eEXLIkUbtur5OY99xuK3LyybRteb29dkuZBkS8r7U+n3O7p9YYOk57F807qS66L31FkGL8o3YbFjEl0f39Ba6bRMkzSMla4vpKXccEUlUaGU0uV//f7Fip3o9SZNW6Oy137Po/c44/ebNG7SvkclSZo2RpebZFnvq+V3ybeMVdX0vtJ13yjxx4snPj8q95hp6+fx+0TPzfeQEG+iPc3d7YreU3dk+a67Sbl9fNmh2m2hWZd79DI7zTOxh5o3r2u3GT73fqQhU0+UtAByiZI2Q9ziNfolmLshzq60hyv67r+j68utiCUumHhuH11XOGeZ+bvkF2LmfnpdxStn8duXW1iroqS1cYrl+EJcWkpWQjXmPbG/bNfDHpsFOb2+JiuBvnGX9njx65y/vSvrYeay0kgIacBER4UoHEUiazzTUN8GRPvYCRvVorwSrpx7p/1hSsorE98KfFKqOhxWhfPYSjfGFubzZth84yWKbw8ZMj6JPjf2B2bRBmizbFO01189P+flPoPxjeLlbh+/Pm1ZiJRPyviu9PudZZ3A95kpuS56T2PrKIU0WElr4/shqiflhquwp0742n1HPdJErzfamyeeSkraKNH3mzRu0r5HJUmaNkaXm2RZ76vldylxGSs+jFHi16dN753XVbLuG6Xc88XnR+UeM239PH6f6Ln5HhJSmmjeZ6KHWrd7wmr0MOTh96bsdywpKbevdNkhur6SbaHx6eA5M5354Dfm+x7OpzV/Z27LnrQNnXqipAWQS5S0GRKtzOvCwB/Ngn7817PR+Vr+uMksDJj/xg9hlrryZxaUnjHX6fXxQ3ykLZgsMMOUdD7awt5B7oKXk87lwf1KDnPkWblKOxxR4fAiJtHzRMPnPVSYJ2MuaU2iwwDODhfw3NdR6fCnjYvUhVfPddFzc6hAQkjuohvJwmmY77BX0W3Wmmn+KyZro3OqeaahJdPuaB4Vm5cmpaLyyiR1nhtLYQ8rMx9PWpHvMfMzfY2vmHmnfU0VzmOj4fEe1tAk2vAfzfOj11Tx+YDJuMU9dGX075Llnnp+zp3PoO/wktFeEoXvYQ2XC0mGmO9y0fh3Uun3O8s6ge8zU3Kds5zqWyYe8+GOTeLTMk3SMEaXZ11fSEvZktbELb2iQz3G95iNXq93mMw48x7uOOP3mzRuou9kfP3dxiznRMWG/Ttl2ljJel8tv0sl845aTu+d6YbvsWwqnR+ZVL1+7l6m4XtISGIK372UuPO76HvpO5pEyeGDU6YNScsOvmWVareFeh8rzCUzbNG5raPilzRk6omSFkAuUdJmSbQQMjdYQY+vxEUlbnQI4pIFCrOy8Td6f7PCtSW20BNtNPCdLD9twcReZxZkoqI2vqASHdpktlkRczc8X9JfzsVXjKLX51k5izY+/pW5rjNccLJxnltTWDiLVqzMdbvd25tEG1Hc80/VoqTVRIcatHFeR8XDnzIu0hZGfddFz11SouttUxaCCSGkEdJtprV2o72ZVn4QlbBO1r4UTMf0+sKeWZ5pqG/aHW0kj0/PL5l5WzS/jB4zbdofXVdtSevOCx4y94tP98+Z4XkonF675xCvaB4bLQOYy/8YG4+fhsOqKczzzXzB/vLd3D5ekEevzbsxmYxfosLGfI6f0Y3p5r3y7dlcz8959Bn8G7P8WPS5NcMWfQbd72GtlgtJhpj3Nz7+C6nw+51lncD3mSm5LnpPTXSZuGgPVWc6mLqMXum0zCRxGCtcX0hLlpK2cJjyfw6+u+56V5To9eowfZowTO57U8n3mzRwUr6T0fte2Os6ZdpY0XpfDb9LvnlHzab3znQjbV290vlR1evn7mVh+B4S4k80/XreTL8+3V2cLdF30JkXJk3DCt8l810uLOumfCcTlx3Md7FW20Kj73vhyE9mOuAezSbaiaYWPwQjdUs9UdICyCVK2oyxe9DqAoBJ/CT77kKKxvcLWl2gsBu7zcLNQ2ZF5hWz4PCQbtjTy2IbKLIsmBSu0+cOV36KVk7M5XPDy/VQYs+b+z1vFl6ic13Fb5u4cuauLJnHm2sWoF4x+Wt9bHO5XeAycRfOomHU2//cvE7dA2l2+FrjG4ZqVdIWNphq3NdR6fCnjQvnfS4ZXt91znN/b675txkPhec2l3lfByGENFB0hT06z4/OS3SarvOSaDqm09ENZvpXuI9nGuqdduvtwsf4a3NbnU8sMPPGaB7lzv8qLa8Kvxw3j28PdfeSZ3ruxgzLM858Qg+xqfPoR6LLTB4y4yG+0TXzPNakMF80+Rt9fPN3NF/0/cCrUJCb55it8y1z+59HP0Yyt4+XGmT8E2380iSeX76On3P3se05uMxnNnrsvzKfEVuAucsylXxm9bHj9yfZY95X+34ljL9Kvt9Z1gl8n5mS66L31HxW7HkaTaLPTDQ9z7KMXum0LG16XHiscFjcxyopklOSpaTVRHsnakrW5Uyi12tfhxkm+96YROe1LJn2VvD9Jo2dtO/kX5nP7e54MeH7ble43ler71LSMlZNpvfRdSap6+rOdyHT/MgZV/p6smxfiL6/f62v3WRZ9B12npvvISFhom1j5nvj/ZGCmaZFhxUvbLssMw2L/3Aq6TuZtOxQy22hhWmYGfZXomH+59j33zyXHuY5/hikYVJPlLQAcomSNmOiX5bpzN63klIocc1CQdE5yZx0/8UsUEQLI+FjzTYLKEW/IDXJsmDiXlf4dZte7p5zxTzuH52VFI0ucC1zb6NJWznTmMf5wCyguY/zkPlbhzupZO00C06FBS+NvlYzDuOPX7OS1qTwHsVfRyXDX+2KatJ14XMXCg0TXXn9Xfw9IISQBo2eu2iBs3Evmo79fHnKdNKZhiZOu82K8+9ij6vzqPheuxWXVyafmvlBYbqbNG+L5VPzeormWya64bRwKOd4zPQ90zw2jJ0vOvOC6LUmzfN7zOPMjTZihtF5V5t5Xvd2ZGLiHkbOV/gUUsfPuX1s8/mOfkhRWNZKWpbJ+plNWxYi5WO+y3b8poy/rN/vijZWpl3nvKfdSZ+b2GOkLuNXMC1Lmx5nXV9IS9aSNjo9ih4ZyVcAF15vuOzufk8Sp70Zv9+k8aPfyaL1dJNofbFwu3LTxvCzk3W9rxbfpcR5hxmWMU/vo+tMyq6rVzE/qmT7gu4F/LwZ/ui2ReOG7yEhRSmczsV8B33Xaz413ze9TVH56vleJk3Dkr6TScsOtdwWWjS9S5jW8f1v+NQTJS2AXKKknYhcldFz24xT7Pl0ol/JjSFF56LIkgl4rWmpePhrGHsujxq8B4QQMmEx07B6TENrNY+qVSodlkqGv+J5gbntRM67SO1Sz895pZ+RRvvOTdmM1/c7oSgZy3PXdLk2HA/e62oU7wZpJ74Ny5WMH75TkyQ1+ixW8v2o9zrieH82K/neaCq9fVr4HhJSm9Ttu2QeUx/be90Yw/c/V6knSloAuURJSwghhBBCCCGTNeX2AJzsOSeF8476zh+tSdr7hxBCCCGE1DT1REkLIJcoaQkhhBBCCCFksmaKl7RZDv1ISUsIIYQQMi6pJ0paALlESUsIIYQQQgghkzVTvKT9XXgevD8e81+voaQlhBBCCBmX1BMlLYBcoqQlhBBCCCGEkMmac3Ljmdly4+9emnol7aVDcuN3v5Ubr7wvN855ro+yTMePCSUtIYQQQkhdU0+UtAByiZKWEEIIIYQQQgghhBBCCCH1TD1R0gLIJUpaQgghhBBCCCGEEEIIIYTUM/VESQsglyhpCSGEEEIIIYQQQgghhBBSz9QTJS2AXKKkJYQQQgghhBBCCCGEEEJIPVNPlLQAcomSlhBCCCGEEEIIIYQQQggh9Uw9UdICyCVKWkIIIYQQQgghhBBCCCGE1DP1REkLIJcoaQkhhBBCCCGEEEIIIYQQUs/UEyUtgFyipCWEEEIIIYQQQgghhBBCSD1TT5S0AHKJkpYQQgghhBBCCCGEEEIIIfVMPVHSAsglSlpCCCGEEEIIIYQQQgghhNQz9URJCyCXKGkJIYQQQgghhBBCCCGEEFLP1BMlLYBcoqQlhBBCCCGEEEIIIYQQQkg9U0+UtAByiZKWEEIIIYQQQgghhBBCCCH1TD1R0gLIJUpaQgghhBBCCCGEEEIIIYTUM/VESQsglyhpCSGEEEIIIYQQQgghhBBSz9QTJS2AXJoKJS0AAAAAAACAsTnecyb8FwA0FkpaALlESQsAAAAAAACgHEpaAI2KkhZALlHSAgAAAAAAACiHkhZAo6KkBZBLlLQAAAAAAAAAyqGkBdCoKGkB5BIlLQAAAAAAAIByKGkBNCpKWgC5REkLAAAAAAAAoBxKWgCNipIWQC5R0gIAAAAAAAAoh5IWQKOipAWQS5S0AAAAAAAAAMqhpAXQqChpAeQSJS0AAAAAAACAcihpk42M3JahoVsyeHNYbt4ckhsDg4Xo33q5Xq+3myiNPox5GIdoXJS0AHKJkhYAAAAAAABAOZS0xb69/a0MDQ4XlYlZo/fT+9dbow9jHsYh8oGSFkAuUdICAAAAAAAAKIeSNvDtt9/aPTp9xWGl0cfRx6u1Rh/GPIxD5AslLYBcoqQFAAAAAAAAUA4lbXBIXl9RONbcvl27Q/g2+jDmYRwifyhpAeQSJS0AAAAAAACAcqZ6SXvr1oi3HKxV9PHHqtGHMQ/jEPlESQsglyhpAQAAAAAAAJQzlUvaepeLUcZSMjb6MOZhHCK/KGkB5BIlLQAAAAAAAIBypmpJW6/D8yalmsP2Nvow5mEcIt8oaQHkEiUtAAAAAAAAgHKmYkn77bffekvAekefN6tGH8Y8jEPkHyUtgFyipAUAAAAAAABQzlQsaYeGhr0FYFW5ekGOdx2Qtvb90tbRJUdOXfbfzkSfN6uKh/HsMflqvxkGHY4w7V8dk3O+26Yk6zDWdByaXO7tlq5j5+Wa5zo3lYzDavW1rpaFi1bL9u7+8BJMFEpaALlESQsAAAAAAACgnKlW0n57u4Z7gF49L4c72mVfxyE5ceaC9B7ulLa2A3L4zID/9iZZ9gStZhjPHe6QfV+dkIsXLoU5IV+1dcjhs/7bp6XcMNZ0HIa5duao7G/bL18du1C2qK3n3rR962fLtO/cKXfYzJQlXeEVmBCUtAByiZIWAAAAAAAAQDlTraQdGqzRHqBRQdumOSCH7B60A3JWy9IDx+Si7z4m+vzlVDOMtqTtOulcdlI6qyxpyw1jzcZhLFFR23n8UmpRm2UcVqdP1jwaFbRBvv8mLe1EoqQFkEuUtMitwX7p7x8M/wDqa7C/X/i0AZMX33EAAKa6QanH6uUg66wZmHFvlsUYVfkw1UpaX+lXccKCtu3AMTl79bqcO9YlbVounuiXa8e7ZF9Ht5z33S9MOb77FKdHOm05XEW6ejyPV5o0vttXnf6LcurECTl88KB0dpl07DfDqeMy+bDRmnrpfHOGU9LeLc+1MiGbSJS0AHKJkjZZf9tHsvC9dvGeUaC/XVYuWiybusO/Y7o3L5YlO06Ffzn6j8n29xbL/CcflplzXpCFyz+SXTU5Z8Ep2WSGZ2FKNvXq7fpln3n+lW1JzxlcH9w20Gtey8LNx8K/SvW3rU4eTxnY+8eH971m2ZcwXvpafy+PfO/u0YWg6T+QR5a7z98uy+6fJTNTsqzNPM7mZ73XFfL0FukLH7GW+rtbzGfnZXnixw/LEwtWyJrWYyXjLhjnns9PSK9330N7+6JxaB53R5f0xpYNfeN65fp2Sf0IVvKZDb8XRc/heS9LhzeWlNeeyj7/Fhn9+Hq+F2b4t3edyljGmO/D8tny3emjC9zfffT3ssv5YOxbEF13pzzSVI9PDDD+vNNlN9E0v3eL+dv9zsXo9e78wX5HV8u+xGlO8J1150GV8c0L/dNDa/CYrJn3oNwVzU9M7nrgBVnnPH+2eUW2+Q4mkb4uWZdx3hifZ1vOvPWhJ1+WZU270+fF5lPWud58Lxc8JQ/dP1ee08+1Z/mhRN2WOxE32Nsuu9qyLV/0de1Ofh8q+GzZaXW1y0wARvU2y3MP3FtYFrjjngfluaZjnu/zoHQ3vSCz7nGXG55KWLc+JeuKljHulVnzPpJuz0Qivn477XuzZb5vW0JWJcs35rmfTFj+6tsty550b2vWd8yy0JquMcwrzGMuefQHo4f/1PX1BS0Jy4t9suvNh4uXxX5cvL6FxjOVStqRkdvewq+iFBW0o5d/c6xT9u0/IPvb2+VA98Xi+8Siw5GkkmE80dUu7Yf7vNcVp08O72+XzhO+6/xJGsbywzcg548fCQrXWA4dv1C43bULp+XIVweC4nh/p3zVdUSOHv9ajnR1mMsOyJGUQ0Zr0sbh2JyS7QvmmnW+hxPmHRhPlLQAcomSNkX3apn5nadkk2f9ZHDHC3YFwn8Yiy5Z8sM75bkd7qzZrHwselCm6QrKvNWyrnW37GptkTWLnrIreXfNWe1dYcuuX7rtYwZZt2CW3HH/y+HzBAm27wSH4kguk4Lr5zsbk4MS6kFZmVBI9zXNljse/cjcszr2/nNWFIZzV2uzrFz0gjxkxsuMp4s3/vdvfsqMw9my0llpHOxtkefuu1NmvTdaJOseUfaXuPH0tcj875nXog9q98T1p/u92TJt3u6yC1eD/aek0xnHnb3pe2L1mtc67Z6HZX5TS3Cf9SvkcTPs08z4c1+nHecL2sO/Sun17nuof89c0FwYju1NK2S+rmxPnyUL20aHqGRc6wbfeVpC3iuPr49vCKjiM9v3kTzynbmyLHr88L3UjQ53zWkuvMb+7uh6k/Uvm+/ZLJm/3rms2g3I9vlfln3hn1rYzy96bDP8y1+WJx64V6bdv1j2pb7Bg7Jv0Uzz3qyWzsLg6IYZ8x5Of0G2R/e1n6MuWfljSlpMHrZsiL6PrWY6ZeZ3jy+P/jaJioi2l838wf3Oxej17vzBfkfNNG9eS8K0Ur+zxfOgysS/89H0cJb53j4oS7rcZzXzajP9nWGGZbTA7ZdOnf6XfMf9cecVmeY7mAT6ZLtZxppm5q9PLPpIttvPmc5bguWWu368QjpjH+74PFt6zffAzHcfWhDdv1mWzZkpd5jlmzWez0nfDjOfnH63zHxysazZMfq5fu7H98odZpliWdHnOlLv5U7E2WUsXV4u910f3C3P6Y+/SpbzKv9s2edMWV4EkEFfs5kmzzTr7s6PLPp3y/zY+qWy5x2066J9wW0H+6Sz6VmZUbKu3CfrHr27ZBlj1wIzrX/ATH/DS9Rg22Jzf/f5B6W3dbHMMtP94u0JWQXPbddh+sJH7OuSNU+XPrcMmvVo8zyPvNcl4U2N6PlnFq1HZjbYLgtjy1eDvbtl4QNmmEqW/8z6lhknM55uduZJZn1r/VPy/fvKrathIk2lknZoaIyH6U0oaG0uHJMDbea6rpPyjXu5JzocSSoZxtJDHCel8kMfJw1j+eELnutAvKQ93BOOlwE5b/c8bpf2rhNyqu96eL8BuXj8YNlz+kZJG4eYPChpAeQSJW2aoGyd3xr+6di34G6Z9cCDcscPfy+d4WUFdiO0W+4GKx/FZY+rT7bPM9ffv6L0saqUXJxWV9LONK91WnylLpT8XNkkbmAaNCvHP3QPFXJMVt5/pzy+3jMSW1/2vxcxg60vyLQ5zWYVOc0pWfnAjJST/fdL9w79tfMPZEa4h4NuSAv2enhQvvu9hF9e966WWd/xbIC1r7P4dVVT0vreU/0xgZYNu8KBSRzX3Tps7obFKj+zJSVpxLx3D+iGDs8vwu19zHip9gPk8pa0vsceNMOvGwpSinj7WHNlXcnrD79D690HLfe9AvIspTitqqR90Mw/kzY81qKk9U9P9EcyunEymszZH1t55xunZM2P75QnNqfPKcrPKwLZ5jvIh9F5o7/gPCXrdCN4bMNy8TxaPzf6d3x+OCi7FsyQO2KflUHzHZqhhUBCo9q7XsuB+Ib08V/uhBmrOo0x069y5yHrXz/X3q54eay6z1bich2AzHS93vu9NdPfadPNdy78M9g24F9+0UNdFq1X6H29yxhmOWX63WaaHf5ppvibniwtg5WdVjjLLZl1/V6+7/7YrCAcfucwnHYakrCM0v3eLLnjyS0VL7/oj6pLymDV3yyPx3/I0r1CZtznG0/9sm5OlmUxTJSpVNIO3hzyFn6ZklbQXjwpne3ZClqNDkeSSobxYnen7DtwQi57rivK1a/lq7ZOOXbZc11Ckoax/PBpSXtQTnivG5CzR3Tv2egcvqPXXT6RvaDVpI1DTB6UtAByiZI2nX+lTVeuzApGV4s8951ZJXuY2hUTZ6O03UD7w5cLRZnfKVvy+FbQqmFXuGpY0j7S1GVWIO/2Dl/yc2WTtoFpV9GGTd1buN1/yErd67loJdpHV/aKV0y9dMU2aYV4sEuW/fgHMmvRbv9wqP7gl8ozzGsquomWFT8u3mM2YvcsdfYerVVJK7Jb5n9ndENA8rgOSomoeKz6M5tY0mpB8rD5nDSXfk4mpKQ1tNhP+czYAifhc63je9oidzxS0mIySylOdbpWcUlrpi1mOjvDuwEx5bkySfnO934kDznDavcW9u61rz/iGJ0eJkqbVxRknO8gF+wPn8rNG8M9iNwfJRXPo/Uz+rB3j1k9NPEu9xDGdg+nGTI/9fMzaI/6UPQDhAlY7oSZvNmyY6487p22RfRHazPk8TlmmchZHqv2s5W2DB3R02wsmTMrPHXDvTJjzsuyzh6RRg/T/qxsik/q9BDZb86VmeGhV++6b67MX99lP5f7ls+SX24uM20EciX4EbB3uSNcR1kXfeTtUbbM9zT8s4gtRkfXK2zB6f1uxn7sqdP5xHnCFnnCff6MgufeHf5VzJbJzjrMvkXme540DYkvw2USLEM9VPJDJBUU0u7ylQ7rzKT50GC/9HGC2oY1lUramxUUoEWpYUGr0eFIUtEwnjgo+/YflXO+69ycPSrticWpP0nDWH74kkvab1KK2GvnT0vv2Wiv2vJJG4dj0rtFfnl/uNw0x39Ye4wfSloAuURJm84WNffHfgmqK2H2snBFo6iYCVZMRlc2gl+BevcgjLEb1aanbOyuQHJxWm1Ja26vK4paTsdK6eTnyiZ5A1MwLFl+Qdv93oPpe0UqLQXK7m2r7+nd/r11B9tl/n16KKosr1Q3ft5bPOxti2Xad55N2XA3Ssd52ka3eCkb/3tUNSXtGD6zKSVt4uekQUvaZL6ND5S0mMxSitMqS1q9feebMz2HvUt5rkxSvvNmWPx7tcTYYszM61Lb15R5hSvTfAf5kH3eGBcvaRdOv1N+meEQltXtRTUxy50Il3MWtMiuefqjRv/4t+PcTBP3FS2PVf/ZSl6uC9g9sb8zUx5f3iLdfcEh2Pu6W2ThAz8w06+PSqeXdln3TpkxZ4Vs7+4LD9l+TLYvelC+O6dZ1iQubwKTULyU1XWHpHXesFAtvz4TlsLRkbpiPyArFh7Vq8JlouIfORfz/pjct9eroYVuuSMDlArWKZOGWR/TnfbptpTgtoPS26WHd1/MudNzYiqVtL6yr2xqXNBGSeK7bWLOHJX29kPS67vOTe8hadt/VM76rkuJj+92xUkoaS9+LV+175fOE8V70Jbk6iU5fvhY+eLZpPYG7bKfPUpKGJaVJhYlLYBcoqQtw/MLVv3FZ7TCYjeOFB0GqF3mT3cPf6glWfnDIVppv6StUGIhVrZMSilpDXtO2NiKXPJzZePdwKTn93lvttz1QOn5tyy7t8lu2bXjI1n45Cz5ruc8XcWCBaeyG8D0kMTO4YFHaTF3rxkPo/cf7P5InnvgBzJNF8Sm654Fp8wwPzy6h4Gu2BdtXNXi9m6ZpucK7g7PY5SgViXtYOvL9nBX0etJ3Jin58crHH5qDJ/ZxJI22mPHM/4npKQNDiuZ5bzDJcI9m4rHDyUtJrOU4nQMJa3d+Hhf/LCBKc+Vif87H5y7fGbCHmCD0tsWnOdz3XsvyEPfC6bnqRLnFa6M8x3kRAXzxpj4PNqen94sN8xff8w5B2Ap3dBe+QbyiVnuhJm8RctYOn3w/jhDy9hgz/ri5bHqP1uJy3XK/rgyPo2NmOWyOfeaZVh3ehn8+CTpnOG9TXPlruks62Dq0B8Bu+v59vvmOyqQlbTOEWPWD2e5p0XS5aTEH43G1stTzpE/+p0N10mSjgYSXy4z99y3aJbMfHq17OsNH09/mPHmw/LdB8x0rPDAgyXPORp3iqHjwT2cc7HiaZYOq5n2tZrlQbNOPevJl2XhosUm4Xm45zRX+CMljCdK2pSEBe2+ju6aFrSaJL7bJuZ8t+zPsoes7nFrXsN533Up8fHdrjj+kvb0oQ47rsoemjnr3sEmtafnAR8taDWJRwjAuKCkBZBLlLTlBCs6oxs4wpWJaEOK3eDsHNZMi7mSPQuzFlBj3Tg9KliJrH1JG23AccvK5OfKxt7fWaApLNg8mXKYkLYVMvN+s0J5/w9k2gNPycrWMs9uz4HjO79oscRfDOveUO6hBHXPhHvmykp7uDil53d7WGbc54473VvGPTex6pNdy5+SWXoIuem6MrpY1rSdKtkYVk1JO3NBc1Bc2zTLSjM8d31nphme0Ue343rOCud2LbJm0VPmM+u8p2P5zEbfh8JK+ynpNMOy5Mf3yrT7FxedR62goucrwz5WvKTVDeHR6zVZv1qeM8Nzx33mdkmfr0TBYSWnlZyfqdz3CsizlHnTmEpaw+5p6h7ic6zzweD+JfOU7z0oCxPnE32y6Wmdn8wy0/UZ8sii5oTzeI7KtHdJxvkOcmIM86r4PFv1ta6QJ+wPve6W75rlmIVN8dM5VDlfqWg4x/p9g2u0fAjL2Hg56uxZP3pb/aP6z1bR48TYPebiRwNymeH5vvu89oeppadxGRXs1ceyDqaEvmZ5ZPrMoh9PpH3fgulpcjkZ0A35d8sMd/mhpDR1hfOBsHDVw40H67+lWVZ43tJ1+SL6fPFSuK9Fljw6066b6mPNuOdOM196QdYU1nONPj2Up/+5Zz69xRl+HQ/J0zM7DgtFtw7rw/L4k896zrt+Slaa18Eh+RsXJW1C6ljQapL4bpscLUQ75PBZ33WjOa/ngTXD6rsuLT6+2xXHU9Je7ZGu9g45dNq5LCkTWtKG2wej9c57zPpfwjQQ44OSFkAuUdKWp3vOTnM3pBQdGk4PWXR3YUXIrni4v0C3Gzyy7qWgKzXV/ZI+LlgBqkdJa9hf5puVr/A1JT9XNt4VXt2TtulZmZGlSOvvMitx98rM5ckjrjfL4ZAHdyce4lLPTTy6sU33/ipeabdKNrLpuExeSR3sOya7mhbLE+bzEy8wqylpv//oC+Gvj4Msa9ot8SNF2XGtG4Od2y18r1k63S3DY/nM2nFwr8yIVtq1jP7hbFmywznHXtwYNk6WsI/lfj+D4XtknvN6F62QNe45/yrQt+MFmWE++6UL3eW+V0Ce6feoTiWtoYc9/v6CaPqc8lyZ6P1LpyeDvbtl4QPFR0NIYr/n9zwb+4GNI2Ve4co030F+VDRvLOYraQvM8k53a3BUEN27dmHhh1XBYSD95/VLMUHLnTDTDmd5VjfWFZ+zOtizPvocFC37juGz5V2GDqWea1LZPamd6aU9LUfK9Ny8Bnu+bpZ1MNkNmvV7LVMXtRfNw+33reo9aQel+73ZMu2+2I9WfaVpQel6eXnhOknWPWm7VsjMe2Y7PzwOBEcgKf5hdjY6HirZk/ZOsw7vL2Ltaac4ZUTD4py0nmQoaNsP9lRd0KadTzXzMNqckUPtHXL4jO+60Zw93CFth854r0tK0jCWHz5PSauHW24/Iqfcy5KSsaRNG4djNnjKvIbqtjOhtihpAeQSJW0G+kvzcAXBHu43tsFjdI+aYINa8S/ng1+d+w81FtOt572J73lZnWAlspqStvQ8Mr6Ni33rzUqmeXzdnpT8XNmkbWDKfC4cu8dS0rjT96D8Rkh77rc5zZ6FKr1/8WGp9LWXvF67scvduKUFvq/QiwsOBey+znIlbfxcQ6kbgB1p43rUGD6z8QLGXD/rO55C21X3krY2jx0VtP6NqJS0mMz0e1RlSRs/f5unpNVzIC68b4bMb9VpTspzZZLyna9gz9a0eU/yvMKVbb6DPKlg3hiTdR6th0F2N0jr57Doh3+ZjGEejjEpXsY6JSsfcKYBOv1JPP1E9Z+ttOW6csuSwWGWnelluem5kXauS2BSiApa890p+UZmOCetf70vKmjN9yv+oGXPSVtu79xS5c9JGxXNwbaLxPPrd6+QmWVP7RBXui3BpfO1aYui6VLww4/Ec7T7lhnRMKZSSTuYqQDtl+Nftcu+tnZp7/pazjsl7bULX4+5oNXocCTJNoxR+uTw/nbpPOG7bjQnuswwH+7zXpeUpGEsP3ylJW3/2R453ntBrjmXJSZjSZs2DjF5UNICyCVK2izaZf50/YV7sCJRshFFS1w9nJgt6Uo3duneNOU36IYrLU/HD6NaHbvRJmElUjfaJJ8jofS8WP6Ni8HhmvTXtXajYp1K2qKV4b7dsmzRloRz0yRvmB9sfcGeRzd9BwXdmBacJ6yEXekeXUFMHF79HLi/rtb7ub/+tecR8q+Ext8v+3fihtlg5feJzaOflNqWtGP4zHpWpnUvOX1tieM/ByVt7/pnUwpaRUmLySylOLXfOeeQ/zG9TQ8Xn7c9YYPbYNvi8LDHKc+VSdp33t1wOCid6xfLyjb/VC55Wpkyr3Bkm+8gb7LNG81nq2mxLFl/rDAPL55HB+f1836C4vNDPbdphh8WDHZ9JAvfbC6cImIiljtROt3QH3REp0fQce3+8CN+22o/W2nLdfqDytTlc1vSO583Pbxr6jKT/viQZR1MYv3tssTM42cs2O3/LoaF6q7wzyLOj7qL9cu+Nx+0Be0u74PqunfCnvR2HbTyH9LYZS/zGnyKp0XllrmqW4/Skth/FIigFHbXYfWIZYlHjEgtsDHRplJJOzQ07C38inI1OITwoeMnpcvuTXvU7k1bq4JWo8ORJNMwFjJgC+UD3Zc810W5JEcPlC9y40kaxvLD59mTtpJkLGnTxuFY9bV9JMsWrZbt3RVOtFFzlLQAcomSNougnH1i/RaZP923MdqswGiBs1lLOs/GEN3oXOZwQcE5DMxj1GiLrt1ok7Bhxv6C9j7/oYPs4dliv5hNLADtuXpmy/wFZkUwbSNQGWkbmLqXz3I28Ot4jva2irEbMn0rsUF5lvgL4ZB93UmHU9KNpj8eLRnt8JYUqINmhXRG0esY3PFs0QY5u9He+/kJN5S6h8XUFf2S89mG7EbcB4sOtVnrkrbqz6yvgBncLfN/eHfRCnmR+EbpsSh5/uo2LowKNqzcdf/Lsj31MShpMZnp9yhpI16wl4f/+x18L2a950xHfNMIKzjf8/cXvCy/rFdJO9hiHnv0R0jRfLJ0thscltS3J23qvKIg23wHOZRh3tjfqvNGM492zutZNI+2h8v2nK9U2Xm/uwxmvhcLZhaOXOLVb+ax98XO2zcBy50IpynuMpa+Dz80n4Uufc+Lp0ve21bx2UpdrrNHD5hppqeez5r5bG0307k7iqaXei7dO/17EBp66NFpZvrMsg4mpd5m+eV998rjZlrq+/wHwh9qlUy/dVpt1uVKvounZN3TM+WuOfpj7vCiEsEyh+/cq9FySsXfOF0v9q1z2mnS6GmaouWVxD1ZqzzaQvRDtZLTW/vW+XS+57ut0a0/XnF/6IeGMpVK2pGR297CryjuoXnDwx63HzxSs4JWo8ORJNMwOim/l6zubbtfunp91yUnaRjLD9/4lLRp43As7JEGzTKSPSdtuSPJoe4oaQHkEiVtNrbYnH534RfxxYIS9/s/nJG8h6pZ8Xv8nrtl5tMfSWefsyI0eEp2LZ8rM/Q8ZK21WwVJX6nTw+veLTOKhmVQettW2GGMn8MmrQAsLIzUuqSNzklrFnBGz88WPt/02bKk7VRhBXqwL/zVc+y8QVbJBk+fYKNUUZHgiu1Jq4d+Kt6rsl8635srjz+qryP81bKuBN8fX6k9Jit/fLddUe8sXG7Gux5Gt2RBLtww+8Bi2eWcL7a/u9k8bulrrXlJq6r5zCYUMPYw4QkFdcOWtHqu4zn3yncfXSH7+nQv6HjcF0NJi8lMv0fJxakte6Y/aKYHo9Nl6T8m6xbMKj33WmJJa5jp5sL7gpXb2pa0g9Jvz0lr5uHu0Q7C55sxr9k5f/egdId7zpcesrDMvCKSab6D3EqYN+p55re/+bDcZebnz+0o/vDE59Hd7z0s0+6ZW3QOwOD8f+bzWPLjgFPmc3evTLv/WVnT1Tf6HdNz2e74vTx0j36GW0qXwcZ5uRNm8uZZxtI9ZHX9IH5+au/yWBWfrXLLdXq0m2kl0+cuWfP0g/J400el08teM4026zuzFu2W0cVPs5xrlslnzflI1mRc3gTypG/HyzJzuvl+bT4lfSXL+ybOlzdYpwm+U8H1p2SfmabeFV9u6GsJ1tnmbZHecusRZrlB1wV/2dQVPr+Zvq8PhsldD85O91g1yzx2PTJ8vt52Wabzktg5de3ruc+so8W/1roe5DkvbzZdskTnZ3ZaFjx/X8I6bDSsxdslgmlO6foxGslUKmmVr/Bz03tw/+j5W/uvyOnDB4JDH9eooNWU47tPUs4d7pB9XSe91wUJ9gw+fNZ3XXLS+G4/mvEpaesj2BYUFLRBkk6bg/FBSQsglyhpM7IblpM3TOivy+9w9tDxGjwl25c/JbPucWbg038gs+atln013t5hN9qkFqd9suvN2fLd6aPDctd9c2VJa+k90gvAoPAdc0kbjY9C7pUZc16WdZ6fHfe1rpAnHrh39LZmHD7y5m7P8yfvDVWk7OEE9VfTs4r2XOhtesqOu7vumyXf/d7DMn/HKfN07bLk/nvlu/fPkhn3PWVu71kIHNTiIjbeH3hB1nh/Xq0rqC8UfV6mfe9Bea6p9BfedSlpVaWf2cQCJlhw/f6C4o2UVoOWtP7PpRv3eShpMZmll7Sqv+sjeS42XZ4176PSPUfSSloj2LtvrCWt+z0NotPOJ5Z75hOVTJMzHXo243wH+abzxjfnyoz4vPHJFbLLMxsonUfrjwFelke+p3syhve/xz9/D+gPun4vj9/nfMe+c7d894GnZJlnua1gHJc7ES43xJex7N6spesHictjFX62/Msqxcs9fa2/L/2srdcfmyQsI/XtliWP/sDZI+Re85lptntzZ13eBPLDv9zgJv6Z1+/U6PTYTIsfLV1n1e9K/HGKElt3DpajRr93d5Wbvpel6/rOtMRMRx5ZMHpY/FFmftT0rMycbl7H/Q/LEwtekMfvnyl3me/9Q97164z0xyDzHhxdvjLTHe9ymGWGtWhepfO3pPVjNIqpVtIODaYdrveMHGpvlwOHj0nXgQ5bzu5rPyBfHTlTs4JWn7+c9GEszuVjnbLvq6+Tz/d69Wv5qq1Ljjvn1i2XcsOYPnxa0nbJsQuX5GI1OdZVtqTNMg6rpUfGC6ZfwTTsl0lHkcO4oKQFkEuUtBNEz09abr1j8JTsa90tu1JzTMY6+x/sTzg3WpUGe9s9wxlLzs7ToL8yvstzjthBz4jzXeZT0XjP8nmpt4kYhnH6DgCoFT3fZi0nFP3S7f3eu2l39vgCxtvg2Jahqpi3Zl3OKNIIyxGo0Bg/W3EVfwZKp+d6rklKWmAyGpS+7nAdvusU8wuUNdVK2m9vf+st/mz6umW/FrP7O6Xz8Ek5+811/+3GkG+//TYckmSpwxjP6aPSrsOclv1H5bTvvgkpN4zpw9cnR/Rcvr7hyJj9R84nl84mWcZh9U7JunkPy0z9sct7XbVdfkPFKGkB5BIlbQPr2yK/vH+WmdGnZUXiHkkTpW/zs57hjGV5BXtzNgQ93OAPZOYCzyEFUT85/Q4AqJV2Web93rt5VjYxYQaAMevdvFhWtiX99O2YrLz/Tv/5lAEAU8pUK2nV0FDSnqADcvly7YvZKPq8WSUPY2muXb7s3yvV5rJcrmQv2ozDWMnw1TKVjEPkHyUtgFyipAWy6pd9y2fLd783Ux6ft0LW7Aj34lq/WhbOmy2PNJU5TyEAAADQoAZbX5BpP3xZdnl62sHWlznfNgDAmoolre6J6SsA651K9gBt9GHMwzhE/lHSAsglSlqgUoPS2xWWs+8120NtdvexxQoAAAB5Nij7Fs2Safc8LPObWmRfd59d5l335sNy1/RZsrCN5V0AwNQsadXIyG1vCViv3L59O3zm7Bp9GPMwDpFvlLQAcomSFgAAAACg+ruaZdm8ueEh5R+WJxZ9JPs4rDwAIDRVS1p169aItwysdfR5qtXow5iHcYj8oqQFkEuUtAAAAAAAAADKmcolrap3yViLcrHRhzEP4xD5REkLIJcoaQEAAAAAAACUM9VLWlWvw/bW8vC8jT6MeRiHyB9KWgC5REkLAAAAAAAAoBxK2sC3334rQ0PD3qKw0ujj6OPVWqMPYx7GIfKFkhZALlHSAgAAAAAAACiHkraYLRoHqysa9X7jUSw2+jDmYRwiHyhpAeQSJS0AAAAAAACAcihpk+khfHWPzsGbQ3LTxC0T9W+9XK/X202URh/GPIxDNC5KWgC5REkLAAAAAAAAoBxKWgCNipIWQC5R0gIAAAAAAAAoh5IWQKOipAWQS5S0AAAAAAAAAMqhpAXQqChpAeQSJS0AAAAAAACAcihpATQqSloAuURJCwAAAAAAAKAcSloAjYqSFkAuUdICAAAAAAAAKIeSFkCjoqQFkEuUtAAAAAAAAADKoaQF0KgoaQHkEiUtAAAAAAAAgHIoaQE0KkpaALlESQsAAAAAAACgHEpaAI2KkhZALlHSAgAAAAAAACiHkhZAo6KkBZBLU6Gk1QVIQgghhBBCCCGEEEIIIYRMTOqJkhZALrEnLQAAAAAAAIBy6l2yAEC1KGkB5BIlLQAAAAAAAIByKGkBNCpKWgC5REkLAAAAAAAAoBxKWgCNipIWQC5R0gIAAAAAAAAoh5IWQKOipAWQS5S0AAAAAAAAAMqhpAXQqChpAeQSJS0AAAAAAACAcihpATQqSloAuURJCwAAAAAAAKAcSloAjYqSFkAuUdICAAAAAAAAKIeSFkCjoqQFkEuUtAAAAAAAAADKoaRNNjJyW4aGbsngzWG5eXNIbgwMFqJ/6+V6vd5uojT6MOZhHKJxUdICyCVKWgAAAAAAAADlUNIW+/b2tzI0OFxUJmaN3k/vX2+NPox5GIfIB0paALlESQsAAAAAAACgHErawLfffmv36PQVh5VGH0cfr9YafRjzMA6RL5S0AHKJkhYAAAAAAABAOZS0wSF5fUXhWHP7du0O4dvow5iHcYj8oaQFkEuUtAAAAAAAAADKmeol7a1bI95ysFbRxx+rRh/GPIxD5BMlLYBcoqQFAAAAAAAAUM5ULmnrXS5GGUvJ2OjDmIdxiPyipAWQS5S0AAAAAAAAAMqZqiVtvQ7Pm5RqDtvb6MOYh3GIfKOkBZBLlLQAAAAAAAAAypmKJe23337rLQHrHX3erBp9GPMwDpF/lLQAcomSFgAAAAAAAEA5U7GkHRoa9haAVeXqBTnedUDa2vdLW0eXHDl12X87E33erCoexrPH5Kv9Zhh0OMK0f3VMzvlum5Ksw1jTcWhyubdbuo6dl2ue69xUMg6r1de6WhYuWi3bu/vDSzBRKGkB5BIlLQAAAAAAAIByplpJ++3tGu4BevW8HO5ol30dh+TEmQvSe7hT2toOyOEzA/7bm2TZE7SaYTx3uEP2fXVCLl64FOaEfNXWIYfP+m+flnLDWNNxGObamaOyv22/fHXsQtmitp570/atny3TvnOn3GEzU5Z0hVdgQlDSAsglSloAAAAAAAAA5Uy1knZosEZ7gEYFbZvmgByye9AOyFktSw8ck4u++5jo85dTzTDakrbrpHPZSemssqQtN4w1G4exREVt5/FLqUVtlnFYnT5Z82hU0Ab5/pu0tBOJkhZALlHSIrcG+6W/fzD8A6ivwf5+4dMGTF58xwGgMv3du2VfL1NOTCaDUo/Vy0HWWTMw494sizGq8mGqlbS+0q/ihAVt24FjcvbqdTl3rEvatFw80S/XjnfJvo5uOe+7X5hyfPcpTo902nK4inT1eB6vNGl8t686/Rfl1IkTcvjgQensMunYb4ZTx2XyYaM19dL55gynpL1bnmtlQjaRKGkB5BIlbbL+to9k4Xvt4j2jQH+7rFy0WDZ1h3/HdG9eLEt2nAr/cvQfk+3vLZb5Tz4sM+e8IAuXfyS7anLOglOyyQzPwpRs6tXb9cs+8/wr25KeM7g+uG2g17yWhZuPhX+V6m9bnTyeMrD3jw/ve82yL2G89LX+Xh753t2jC0HTfyCPLHefv12W3T9LZqZkWZt5nM3Peq8r5Okt0hc+Yi31d7eYz87L8sSPH5YnFqyQNa3HSsZdMM49n5+QXu++h/b2RePQPO6OLolvN/ON65Xr2yX1I1jJZzb8XhQ9h+e9LB3eWFJeeyr7/Ftk9OPr+V6Y4d/edSpjGWO+D8tny3enjy5wf/fR38su3wejb7csefQHo4e50c/lghZnWID88E6X3UTT/N4t5m/3Oxej17vzB/sdXS37Eqc5wXfWnQdVxjcv9E8PrcFjsmbeg3JX9L01ueuBF2Sd8/zZ5hXZ5jvIt7LLO6nfh37p3mHuv+Apeej+ufKcfi498/+Afo793xN7vqs3P5LO8Lr48kCxPulspUQbL2P7fOTTvgV3yiNN9VhaBsZZb7M898C9hWWBO+55UJ5rOuZZXxiU7qYXZNY97nLDUwnT4VOyrmgZ416ZNe8j6fZMkuPrt9O+N1vm+7YlZFWyfGOe+8mE5S+zDrPsSfe2Zn3HLAut6UqcmpVX0XpRn+x68+HiZbEfJ6xvoWFMpZJ2ZOS2t/CrKEUF7ejl3xzrlH37D8j+9nY50H2x+D6x6HAkqWQYT3S1S/vhPu91xemTw/vbpfOE7zp/koax/PANyPnjR4LCNZZDxy8Ubnftwmk58tWBoDje3ylfdR2Ro8e/liNdHeayA3Ik5ZDRmrRxODanZPuCuWad7+GEeQfGEyUtgFyipE3RvVpmfucp2eRZPxnc8YJdgfAfxqJLlvzwTnluhztrNisfix6UabqCMm+1rGvdLbtaW2TNoqfsSt5dc1Z7V9iy65du+5hB1i2YJXfc/3L4PEGCniw4FEfyBpXg+vnOxmTdAHPHdx6UlQmFdF/TbLnj0Y/MPatj7z9nRWE4d7U2y8pFL8hDZrzMeLp4Y1b/5qfMOJwtK52VxsHeFnnuvjtl1nujRbLuEWV/iRtPX4vM/555Lfqgdk9cf7rfmy3T5u0uu3A12H/KbgCNhr2zN31PrF7zWqfd87DMb2oJ7rN+hTxuhn2aGX/u67TjfEF7+Fep+EYx/XvmgubCcGxvWiHzdWV7+ixZ2DY6RCXjev1qWThPS8h75fH18Q0BVXxm+z6SR74zV5ZFjx++l7rR4a45zYXXqHtejA7Dy+Z7Nkvmr3cuS22NU9jnf1n2hX9qYT+/6LHN8C9/WZ544F6Zdv9i2Zf6Bg/KvkUzzXuzurAxXC/r1vdw+guy3b3vYLssNO/jjHkthSJosHe3LHzgbvM5amEhHbkz2Ns++n1sNdMpM797fHn0t0lb+EOHtpfN/MH9zsXo9e78wX5HzTQv8Xuh39nieVBl4t/5aHo4y3xvH5QlXe6zmnl17Hur89JOnf673/GM84pM8x3kmp2H6q/ji5bvHAnfh77WxTJruv7I5wVZGX42tzcttvOiO+6Za5av4o+nn+PZsia2YDVoHn+GLgM5t08tyczt7QbyJ7ckF4eomWo/H3mW+vkD8qKvWR6ZPtN8d50fcfbvlvmx9Utlzzto10X7gtsO9kln07Myo2RduU/WPXp3yTLGrgUz5Y4HzDpUeIkabFts7u8+/6D0hvONxOlJquC57TpMX/iIfV2y5unS55ZBsx5tnueR97okvKkRPf/MovXIzCpaLzLrW2aczHi62VmvNOtb65+S799Xbl0NE2kqlbRDQ2M8TG9CQWtz4ZgcaDPXdZ2Ub9zLPdHhSFLJMJYe4jgplR/6OGkYyw9f8FwH4iXt4Z5wvAzIebvncbu0d52QU33Xw/sNyMXjB8ue0zdK2jjE5EFJCyCXKGnTBGXr/NbwT8e+BXfLrAcelDt++HvpDC8rsBuh3XI3WPkoLntcfbJ9nrn+/hWlj1Wl5OK0upJ2pnmt0+IrdaHk58rG3t9XSA6aleMfuocKOSYr779THl/vGYmtL/vfi5jB1hdk2pzmMhsrT8nKB2aknOxf94bRXzv/QGaEe5Zub90t6+zepg/Kd7+X8Mvr3tUySze6xjfU29dZ/Lp0nFda0vreU/0xgZYNu8KBSRzX3TpsbolQ5We2pCSNmPfuAd3Q4flFuL1P6cboqnhLWt9jD5rh1w0FKUW8fay5sq7k9YffofWjD6o/HijZ6KH6m+XxovEK5FFKcVqudNDrS0raB838M2nDYy1KWv/0RH8ko9/T6Otof2zlnW+ckjU/vlOe2Jw+pyg/rwhkm+8gD+w81CwPzYr/UCfi+T4UitWEPZL6zOdwxvRZsqzoc1T6OdaN+DOnzzTfjeInTi7JBmWXmc/NnPdCwrwMtVbN5yPvkj9/QH7oer33h9fmOztt+mLnO6vbBvzLL3qoy6L1Cr2vdxnDTN+n3y0LC8s5/bLpydIyWPWvn1u03JJZ1+/l+97pUDj8zmE47XQrYRml+71ZVf3Ip6L1ou4VMuM+33jql3VzsiyLYaJMpZJ28OaQt/DLlLSC9uJJ6WzPVtBqdDiSVDKMF7s7Zd+BE3LZc11Rrn4tX7V1yrHLnusSkjSM5YdPS9qDcsJ73YCcPaJ7z0bn8B297vKJ7AWtJm0cYvKgpAWQS5S06fwrbbpyZVYwulrkue/MKtnD1K6YOBul7QbaH75cKMr8Ttnix7eCVg27wlXDkvaRpi6zAnm3d/iSnysbe/+EQnJX0cYf3Vu43X/ISt3ruWgl2kdX9opXTL10xTZphXiwS5b9+Acya9Fu/3Co/uCXyjPMayq6iW6c+3HxHrMRu2eps/eojvNalLQiu2X+d0Y3BCSP66CUiIrHqj+ziSWtFiQPm89Jc+nnZEJKWkOL/ZTPjC1wEj7XOr6nLYrGoxa+d8pDTb5DkgUbXtxCF8gf/R7VsqQ10xYznZ3h3YCY8lyZpHznez+Sh5xhtXsLe/faD77TZb+3afOKgozzHeRCMA/dLZ1vzvTvDR7/Pgzuluemz5D5Zd7/6AcEo4uTsc+x+ezqXl7xglYlzv917yi7MTzY0J283IdaqfjzEervapb5c2aFp1a4V2b8+ClZ1lr6fu1bPkt+ublPBrs/kuce+IE9Cou9Vd8W+eX9K8zj6iFD58qM8DCsd903V5YUHqdfOvUQreHhVKfZHxR2mUs99DQX5nFmhrfVx5m/PrhtNAyR5OVPIC+CHwF7lzvCdZR10UfcHmXLLMOEfxaxxejoeoUtOL3rXLEfe9pp9cOlP+JV/VvkCff5Mwqee3f4VzFbJhfWYcx3eJH5nietc8aX4TKpbL1Ih3Vm0vaPwX7p4wS1DWsqlbQ3KyhAi1LDglajw5GkomE8cVD27T8q53zXuTl7VNoTi1N/koax/PAll7TfpBSx186flt6z0V615ZM2DsekV5fFwuWmOf7D2mP8UNICyCVK2nS2qLk/9ktQXQmzl4UrGkUbJ4IVk9GVjWDjmHcPwhhbjE1P2dhdgeTitNqS1txeVxS1nI6V0snPlU1ycRgMS5Zf0Ha/92D6XpFKS4Gye9vqe3q3f2/dwXaZf58eiirLK9UC897iYW9bLNO+86x/74oYHecTV9KO4TObUtImfk4atKRNFt/4EIy7pFJJN4akvZdA40spTqssafX2/iIj5bkySfnOm2Hx79USYw/9p+VW+LdXyrzClWm+g7wYnYfqobI9e1PFvg+Z94KyZe7dzufe+RyHBe0vE87VnjT/d5872qup7HBgTCr9fKhe8z7dZaY385vapTc8RHpv22r5pR4q1DyW+wj6Xj807wV56P6nZJkeNjs67Lydrs6VJ56cJb9s6rKlxuCgeZzwcKmPrD8m+xbNCn5gGF7X1/VR8ByLYj8otMu65vI5K2R7d194yPZjsn3Rg/LdOc2yJvPyJzAJxEtZXXdIWucNC9Xy6zNhKRwdqSv2A7Ji4VG9KlwmKv6RczHvj8mLfiQ0Stdh/Kd2SlPJelGwLSW47aD0dulpaRbbo1RVfeobjJupVNL6yr6yqXFBGyWJ77aJOXNU2tsPSa/vOje9h6Rt/1E567suJT6+2xUnoaS9+LV81b5fOk8U70FbkquX5PjhY+WLZ5PaC45eowVtFJaNJhYlLYBcoqQtw/MLVv3FZ7TCYjfIFB0GqF3mT3cPf6glWfnDIVppv6StUGIhZi6puqQ1dMUuviKX/FzZjG7Ucuj5fd6bLXc9sEI6fctR/ceC8w3u+EgWPjlLvvvjhNsVBAtOZYtHPSSxc3jgUVrM3WvGw+j9C3sy6ILYdN2z4JQZ5odH9zDQFfuijaJa3N4t0/Rcwd3heYwS6DhPK/biG8WSNpINtr5sD3dV9nDHuhG4cPipMXxmE0tafe0Jxe+ElLTm87AgdliyrGyB444ffQ73sGXFEsc5kBv6GU/Y4DaGktZfZKQ8Vyb+73xw7nItunwTmkHpbQvOE7ruvRfkoe8F0/NUifMKV8b5DnKjaHquBXx8b/DY90E3lGfbwB3/8U/4Oe4y82PzHXGXPeL88//gx1aFHxHYeXXpkV9QW5V+PoLTYJT++NEKT/nh/tjPLhv6jnJip6v6OSj9nNjTXvxwhsxa4Fne0R+dFp2eJfjxSdI5w3ubtFDOtvwJTAb6I2B3Pd9+x31HBbL8yx8lzPrhLPd7p9OFxB+NxtbLU86RP/qdDdf1k44GEl8uM/fUH3HMfHq17OsNH09/mPHmw/LdB37vrF8PljznaNwpho6HrOtFOqxmnarVLA+adepZT74sCxctNjHLYvfo3mjN/LiogVHSpiQsaPd1dNe0oNUk8d02Mee7ZX+WPWR1j1vzGs77rkuJj+92xfGXtKcPddhxVfbQzFn3DjapPT0P+GhBq0k8QgDGBSUtgFyipC0nWNEZ3YgcrkxE29zshhFnI4wWcyV7FmYtoMa6cXpUsBJZ+5I22oDjbghKfq5s7P2dBZrCgs2TKYcJaVshM+83K5T3/0CmPfCUrPQcFq6IPQdO+XOyJf5iWDe2OYWrPcfcPXOdc8zpOVoflhn3ueOuXRZOdzd+qT7Ztfyp4HBz03VldLGsifaEcNgNcSnFXnyjmP49c0FzUFzbNMtKMzx3faf48Ih2XM9Z4dyuRdYsesp8Zp33dCyf2ej7UFhpPyWdZliW/PhemXb/Ytnnez8rer4y7GO5hZEO3yyZr3ucRK95/Wp5zgzPHfeZ2yV9vhLphoyZMi3+w4yU4Q++H0kbdIA8SJk3xUuHuPjGwPh31O5p6pYOY50PBvcvmad870FZmDif6JNNT+v8ZJaZrs+QRxY1J5yLe1SmvUsyzneQH3Z67sybdW/w77vlV9H3odzyVrHi+b5+ju+WadPvlIeWd5UsI7jiywOWLf/cz17wg4HK94hCJSr7fATTkTsSClHVqwWRs/yg77V7mNKCtOUo+2NTM02N9torEttLz942rcwPbh9f/sz6GQdypa/ZHsXA/dFq/DteLJhuJ5WTAd2Qf7fMcKfF8eWkIuF8JCxc9XDjwfpvaZYVnrd0Xb6IPl+8FO5rkSWPzrTrpvpYesj07z7wgqxxz6VuD6vuf+6ZT29xhl/HQ9b1Ih3Wh+XxJ5810534lPCUrDSvo1angkLtUdImpI4FrSaJ77bJ0UK0Qw6f9V03mvN6HlgzrL7r0uLju11xPCXt1R7pau+QQ6edy5IyoSVtuH0wWu+8xyyDJ0wDMT4oaQHkEiVtebrn7LRohUw3hBQdklgPWTR6iDq74uFucLEbPLLuHasrNRn3YCwjWAGqR0lr6Guabla+wteU/FzZeFd4dU/apmdlRpYirb/LrMTdKzOXJ4843dBVdq9Je7jBB72HuNRzE48W9br3V/FKu1WykUzHZfJK6mDfMdnVtFieMJ+feIFZvLG2VPw90b+//+gL4a+Pgyxr2i3xI0XZcf3AU0W3W/hes3S6J9gdy2fWjoN7ZUa00q5l9A9ny5Idx5xSMyZt42Kl7GO5389g+B6Z57zeRStkTWvK8KTo2/GCzDCf/eKF7vSNMt7PN5Ar+hlP2OAXKx1KxDc+lnxH40VGynNlovcvnZ4M9u6WhQ8UHw0hif2e3/Ns7Ac2jpR5hSvTfAe5Ujo91+UB55yzRd+H4DCO/vPylbLz8cKGe/0cPyzzF8yWabqhJ+WzVrKMZthyr+jHRIYZtkyH+0bVKvt8BHtdpBacsemr7722PNPVUf5pYiC2zG9Py5H0OCrY4zu+/Jn6GoA8GjTr91qmxg4Hbr/jVe9JOyjd75lp+n2xH63q9zzrnrSZhOv6Wfek7VohM++Z7fzwOBAcgST9SA5+Oh4q2ZP2TrMO7y9i7WmnmG81LM5J60mGgrb9YE/VBW3a+VQzD6PNGTnU3iGHz/iuG83Zwx3SduiM97qkJA1j+eHzlLR6uOX2I3LKvSwpGUvatHE4ZoOnzGuobjsTaouSFkAuUdJmoIcDC1cQ7OF+Y4XL6B41wQa54kM3Br86LzkvlU+3nvcmvudldYKVyGpK2tLzyPg2wPStNyuZ5vF1u2Hyc2VTulFrVKa9lZTdYylp3Ol7UL78tudvm9PsWajS+xcflkpfe8nrtYcTdDduaYEfL/R8gkMBu69Tx3lasRc/11DWjWRp43rUGD6z8Q2F5vpZ3/EU2q66l7S1eeyooC0tr8ufe8m75wuQG/o9SviMx0qEEvHzt/nKhMF2WVgoMlKeK5OU73wFe7amzXuS5xWubPMd5ItvHjrYtnh0b/DY96HcnpKjgnMUjh7aNvocRxv1X5DtCfOx0vm/fvbulueiYrAguLz67xbKqezzUW553Ih9nhKX9WpW0paZnhvVLn8CuREVtOa7XDLtznBOWv96XzQtN9+v+IOWPSdtub1zS5U/J21UNAfbLhLPr9+9QmaWPbVDXCXrRcEPP36ZtM6ZOm3DRJtKJe1gpgK0X45/1S772tqlvetrOe+UtNcufD3mglajw5Ek2zBG6ZPD+9ul84TvutGc6DLDfLjPe11Skoax/PCVlrT9Z3vkeO8FueZclpiMJW3aOMTkQUkLIJcoabNol/nTdc/CYEWipLzSEvf+1dJtS7rSotDu0VB2g2640vJ0bM+HKqUVp7pBJfkcCaXnI/VvgAkO16S/ru1Nea4sUotDd2W4b7csW7Ql4dw0yRuhBltfsOfRTd/p6ZSsfMC3UdOwK92jK4iJw6ufA/fX1Xo/99e/9jxC/pXQ+Ptl/07csBus/MbPU5ZlI1nquHZU/Zn1rEzrXnL62hLHv71P0gbECpU8f9rGyex61z+bUNAGdGOIf2+pYOOH+14B+aPfo4QNbvY7FzvvoqO36eHiPfoSNriNFhkpz5VJ2nfe3XA4KJ3rF8vKNv93M3lamTKvcGSb7yBv/J+L4DD4dm/weMlVctjhBLr8MN3de9v9HJvHX2DmowlHFimZ/+tjme9QySG/w7B3d/1U+vnYt+jukh9+uuwPQpxlw8RlvYTpaiBtmhgrafXwrqnLTMGPCdxhyLr8CeRCf7ssMfP4Geb76p1sh4XqrvDPIs6Puov1y743H7QF7S7vg+q6d8IRjOw6aOU/4LbLXuY1+BT/CK3cMlfa9CNZJetFesSyxCNOpBbYmGhTqaQdGhr2Fn5FuRocQvjQ8ZPSZfemPWr3pq1VQavR4UiSaRgLGbCF8oHuS57rolySowfKF7nxJA1j+eHz7ElbSTKWtGnjcKz62j6SZYtWy/buCifaqDlKWgC5REmbRVDOPrF+i8yf7tsYbVZgtMDZrCWdp6zUjc5lDhcUnMPAPEaNtujaDUW+YTHsL2jv8x86SIfj+7FfzCZvFNJz9cyW+QvMimDCc2WRVhx2L5/lbODX8ewcNs5lN4T6VmKDDVCJvxAO2deddDgl3fj149GS0Q5vSYE6aFZIZxS9jsEdzxbtiWU32ns/P2HZ6W44tRtsE1bK7ca4B4sOtVnrkrbqz6xvQ+Hgbpn/w7uTi0p7n8o3AHiVPH91GxdGBRtW7rr/5cS9mFRUyJScxq2Wrw2YMPo9StqIF+zl4f9+B9PfWe850xHfNMKKioyX5ZepGwzLSfnOD7aYxx79EVI0nyyd7SafvzN1XlGQbb6D/Emch0Z7gy94tqiEs5/rBTMLRx7xsvNbnYe789v45zh8HM+53ePzfz09Q9Je4EGBm/yjCoxNxZ+PtGU9nbbaz4X73iYtjydNV1XaclCspDXLPOvm3Onfg9DQQ49OM9PnTMME5E1vs/zyvnvl8feOeT//gfCHWiV7fuo02qzLlXz/T8m6p2f+/+39/YsUV/7///8Pnz/gA/khSBhQECIEEgjMD8KAPwwIBgIG8kFBRAISAkHEz4oriLiwAcUNK66s69t8/I67r9mZ5KVrsuruxjHJzoyj04lmRhNn1Ni5MG1MbJPo83uep6q66+LURff0OF3O/QYncfqqTlfX1alHnVOydINezO0/lOAdc7juvRocp7S8hmm72NXm1P1NZEQFbxuQ2pO1zVG+WmoX6XbQ9VpjyjV0P7rGYgppf/31oTPwi5Tw0Lz+sMfjn17pWECrReuRplAdQyW/l6z2tr0glRnXc+klrY759Xs8IW3WPJwLO9KgOUbyLorMGUkO846QFkApEdIWY4PNnmWyxNlQ8ELc51/sTe+hahp+65cvk743jstkNdQQqs/KuYMbpbenX3aNdK4Jkt2o0+F1l0lvpC51mRk7ZOsYv4dN1gmYxsFIp0Pa4J605gBn11hzftnp9ayTfWOzjQZ0vepf9Ry7b5BlT4DlDdPknZSKBAlhsZ60OvRTtFdlTSaPbJT1r+r38K9a1kbwqnijdloOv7zMNtQnG4+b+a7D6CYO5PwTsqv3yLnQ/WJrU8Pmc5PfteMhrWpnmU05UWiHCU8JqDsaZCamn3VyMofe63jDCnn21UMyWtVe0PES/jLeyVRvnfKer6b8VkD56HqUHpzaCzZ61pjtQXO7LLVpGdzRn7z3WlaYYIMMr3Hb2ZC2LjV7T1qzDw+PduBPr3frcOj+3XWZ8nvOJ4cszNlXBArtd1BGWftQ2xvcnpiJL9+zZrlZIUtWvSnHKtXQ/sDs/0fMcddKs5/dHe+15VqOZ+XEGxr4Rk/2R/b/9n7JWcNsa8DABQTzpfXlwzvWe2qlLhvN38S7h7Zur6Lh/vyHtMaM+SzT3uk3y2Tz8NMc55pj8v4Nx+VYrA6EtHgSVM/slL6ePtlyclaqieN9U0LbXK9N4x3zeM/PyqhpFy2NHzdUz3rtgK2nZCavHWGOG7Qt+PpAxZ9+1RyLeHUKt4OL0x6rZhti25H+9GbG5YDui2L31LXfxzWkvraDHPflLaaVdpFX1+h5CW+bk2wfo5ssppBWxcO+eJn59ELz/q217+XG5Yve0McdCmi15HG9J618dXlCRitfOp/zitcz+PIt13PpJYvr9c3yeELa+eEdT4VHrkm9YBKPBSEtgFIipC3IngBJPxGhV5c/Feqh41SfldMHN0v/8tAOvOcF6d96VEY7fH4jO6RVVTm3f50829Osy9KVG2XfSPId2SdgvMB3ziFtMD8aZYX0btgpg47Ljqsjh2TT6hXN15p5+Mr+847pp/eGisgdjlBPavbL4dAlvjMDm+28W7qyX559bq1sPzNrJjcu+1atkGdX9Uvvys3m9Y6DwLoGF7H5vnqbHHNeXq0N1G2R5WXJc2tky0DyCu95CWlVq8ts6olC78DVDvfnP9Jg39N9Ia17uQyX2PesVeTY1jXN33b5Gtl00LVcAmWTHdKqWuW4bIltl/u3Hk/2HMkME8wmx/bQn2tI69chVHTb6VwfW9kmFxq6tuB+B6WUvQ/1Azfn8q0XZMWOXZ5eJs+aZe3wmGsvkbbv8o65wuFdeP+vI3g8ldPTu+jtDNC69pYPvTBkp7zynDmWDpaNlOOHxxLSqup52ffqC6EeISvM9nzYLnPxOhQ9/gS6l/u4IVziy3h15G1ZvzLYnptt+avJNquuG/HPiZRY29k7jmqud0tXb5YDjnZ5cdrW3yi9QRtO28s7hh09es02aOBN6esx32PVWtm0Y5usX9UnS816/5KzfV1QS+0iU9dIe9PbP7rbx+gWiy2kfVDPGq73pnw2Pi4XL09L5eKEDWdHxy/KpSs3OxbQ6vTzZNcxWu5MT8ropS/S7/d69wu5NFaRq6F76+aVvDpm109D2opMf/2dfNNOma7khrRF5mG7dGQ8b/vlbcNe53ZXC4qQFkApEdIuEL0/aV67oz4royPn5VxmmZ7zibZ6rWaaZ51Tnxl31DNWSnafBr3KeKnjHrF1x4xzPebS0nwvsrzMt4Wow2NaBwB0Sj3aO2TOajLlXO/DZTzU4wvodp1eR/DE0OOsrlo2WFaBxaMu1Sm/DV+ZXfh2J7reYgtpHz185Az+bKlOyQUNZi9MyuTlL+XWt/fcr5tDefTokV+TdJl1jJcbn8u41jmrXPhcbrjem1Ly6phdv6pc0Xv5uupRsFy4cjs9dDalyDxs36wMbl0rfXqxy5FK8fN8mBeEtABKiZC2i1VPyeur+s2OPqscSu2RtFCqJ9901DNWDrbQm7Mr6HCFL0jfjrPtX1GM1pV0HQDQKeNywLneh8ubcoINMwAAAPBYLLaQVj14kNYT9Ee5c6fzwWxQdLpFpdcxWX64c8fdK9WWO3KnlV60BevYSv06WVqZhyg/QloApURICxRVk9GD6+TZ5/pk/dZDcuyM34tr6Kjs2rpOXhnIuU8hAAAAAABAiS3GkFZ7YroCwPkurfQA7fY6lmEeovwIaQGUEiEt0Kq6zFT8cPbIsB1qc6rKgCYAAAAAAODJthhDWvXrrw+dIeB8lYcPH/pTLq7b61iGeYhyI6QFUEqEtAAAAAAAAADyLNaQVv3yy6/OMLDTRafTrm6vYxnmIcqLkBZAKRHSAgAAAAAAAMizmENaNd8hYyfCxW6vYxnmIcqJkBZAKRHSAgAAAAAAAMiz2ENaNV/D9nZyeN5ur2MZ5iHKh5AWQCkR0gIAAAAAAADIQ0jrefTokTx48LMzKGy16Ofo53Vat9exDPMQ5UJIC6CUCGkBAAAAAAAA5CGkjbJBY729oFHf9ziCxW6vYxnmIcqBkBZAKRHSAgAAAAAAAMhDSJtOh/DVHp31+w/kvinhMFH/1sf1eX3dQun2OpZhHqJ7EdICKCVCWgAAAAAAAAB5CGkBdCtCWgClREgLAAAAAAAAIA8hLYBuRUgLoJQIaQEAAAAAAADkIaQF0K0IaQGUEiEtAAAAAAAAgDyEtAC6FSEtgFIipAUAAAAAAACQh5AWQLcipAVQSoS0AAAAAAAAAPIQ0gLoVoS0AEqJkBYAAAAAAABAHkJaAN2KkBZAKRHSAgAAAAAAAMhDSAugWxHSAiglQloAAAAAAAAAeQhpAXQrQloApURICwAAAAAAACAPIS2AbkVIC6CUFkNIqweQFAqFQqFQKBQKhUKhUCgUCoVCoVAWpswnQloApURPWgAAAAAAAAB55jtkAYB2EdICKCVCWgAAAAAAAAB5CGkBdCtCWgClREgLAAAAAAAAIA8hLYBuRUgLoJQIaQEAAAAAAADkIaQF0K0IaQGUEiEtAAAAAAAAgDyEtAC6FSEtgFIipAUAAAAAAACQh5AWQLcipAVQSoS0AAAAAAAAAPIQ0gLoVoS0AEqJkBYAAAAAAABAHkJaAN2KkBZAKRHSAgAAAAAAAMhDSJvu118fyoMHv0j9/s9y//4D+enHeqPo3/q4Pq+vWyjdXscyzEN0L0JaAKVESAsAAAAAAAAgDyFt1KOHj+RB/edImFi06Pv0/fOt2+tYhnmIciCkBVBKhLQAAAAAAAAA8hDSeh49emR7dLqCw1aLfo5+Xqd1ex3LMA9RLoS0AEqJkBYAAAAAAABAHkJab0heV1A41/LwYeeG8O32OpZhHqJ8CGkBlBIhLQAAAAAAAIA8iz2k/eWXX53hYKeKfv5cdXsdyzAPUU6EtABKiZAWAAAAAAAAQJ7FHNLOd7gYlLmEjN1exzLMQ5QXIS2AUiKkBQAAAAAAAJBnsYa08zU8b1ppZ9jebq9jGeYhyo2QFkApEdICAAAAAAAAyLMYQ9pHjx45Q8D5Ljrdorq9jmWYhyg/QloApURICwAAAAAAACDPYgxpHzz42RkAtlXufi1XKxdlbPyCjE1U5MrsHffrTNHpFtVyHW9Ny6ULpg5aD7+MX5qWr1yvzShF69jReWjKnZkpqUzflh8cz4VLK/OwXdWRo7Jr91E5PVXzH8FCIaQFUEqEtAAAAAAAAADyLLaQ9tHDDvYAvXtbLk+My+jEZ3Lt5tcyc3lSxsYuyuWbP7pfb0qRnqDt1PGryxMyeumafPP1d365JpfGJuTyLffrs0peHTs6D/3yw83P5cLYBbk0/XVuUDufvWmrQ+tkydPPyFO29Mm+iv8EFgQhLYBSIqQFAAAAAAAAkGexhbQP6h3qARoEtGNaLspntgftj3JLw9KL0/KN6z2m6PTztFNHG9JWvgw99qVMthnS5tWxY/MwVoKgdvLqd5lBbZF52J6qHHs1CGi98vx+UtqFREgLoJQIaVFa9ZrUanX/D2Ah1M0yWDP/BVB2ddZlAE+S+qyMjkzLEzHoXn1aBgfOS9X/E5g/5th+Hg4G6iVps+qxUEerqu11Dq6eSIstpHWFfi0XP6Aduzgtt+7ek6+mKzKm4eK1mvxwtSKjE1Ny2/U+v+RxvSdarsukDYfbKJXrjs9Lliyu17ddat/I7LVrcvnTT2WyYsrEBVNPnZfpw0ZrmS+T+3tDIe0y2TLChm8hEdICKCVC2nS1seOy68i4++RGbVwO794jJ6b8v2OmTu6RfWdm/b9CatNy+sge2f7aWunbsE12HTwu5zpyz4JZOWHqsyujnJjR19Vk1Ez/8FjaNL3nvdd6Zsx32XVy2v8rqTZ2NH0+FWDfH6/vkWEZTZkv1ZG35ZXnljUPgnpekFcOhqc/LgdW9UtfRjkwZj7n5JvO5xrljVPzcjKoNnXWLDs7ZdPLa2XTjkNyzHECzZvnjuXHp8+Hf0P7+sg8NJ97piIzsWND17w+PDQumYtgK8usv15EpuH4LZP1jZWM757JTv+UNBdfx3ph6n+6MpsTxozL9sZB9jo5FlsQ6lPHZcvqFc1l8OkV0r/1uExxLI4nhHO7HC7BNn/mlPk7vM7F6PPh/YNdR4/KaOo2x1tnw/ug1rj2he7toVWflmNb18jSxrr8jCxdvU0GQ9Mvtq8ott9BueUe72SuDzWZOmPev2OzvLRqo2zR5TI1QNPl2L2e2Ptd7T8uk/5z8eOBqKpMjpyXUefCj05zbTcPDJw1x0DVhbkApHpcXnl6p4z6fzoljpticrfZj4cOI6gnPXexHcV8mRmOHtsvXyNbBqYd625dpga2Sf/y8HHD5pTt8KwMRo4x0tsL8fbtkufWyXbXuYSiEsc3Ztqvpa3L+p3MsU5P8Foz/VVvyrE5NGxqY4cS32ffSIGWde2UbNHjJtO2R3dbTCHtr78+dAZ+LZVIQNt8/NvpSRm9cFEujI/Lxalvou+JFa1HmlbqeK0yLuOXq87noqUqly+My+Q113PuklbH/Pr9KLevXvEC11j57OrXjdf98PUNuXLpohccX5iUS5Ur8vnVL+RKZcI8dlGuZAwZrSVrHs7NrJzesdG0+dam7DvwOBHSAiglQtoMU0el7+nNcsLRmKmf2WYbHO5hLCqy78VnZMuZ8K65Kud2r5ElGihuPSqDI+fl3MhZObZ7s23kLd1wdI4BT02m7Gd6ZXBHvzy1aqc/Ha94OZk3FMcrA2mNJO/57aGTIKM7tHG1Rg6nBNLVgXXy1KvHzTvbY9+/4VCjnudGhuXw7m3ykpkvvW9ETxzVTm4283CdHK40f5T6zFnZsvIZ6T/SDJLtVcCuUj0r258z30U/1PbEdZepI+tkydbzuQdX9dqsPQEa1H1yJrsn1oz5rkuWr5XtA2e99wwdkvWm7kvM/At/TzvPd6Q3TvX58G+of/ftGG7U4/TAIdn+mmmY9/TLrrFmjRLzeuio7Nq6Tp7tWSHrh+InAtpYZu0JwY1yIPh8/7fURvrSDcON71ibCp43ZWinWc/6ZftQ6LHM1DhD4oSkhq3hzzb1P7hTNq1eIUtW7ZHRjB/LLkOVo/JSPKSdMdPo6ZPXByrNk+t1PSjvl6WvDre9HgDdpD4z3lwfR8x2yuzv1h8M/jZlzL/QYWyn2T9khAD6fHj/YNdRs83bejZlW+ldIBHeB7Umvs4H28N+sy1bI/sq4amafbXZ/vaaujQzrJpM6va/Z5ucDh4ruK8otN9Bqdl9qF4dHzm+C0lZH6oje6S/Z5k8++o2Oewvm6cH9th90VPLN5rjq/jn6XLsuEDIfH6vHgOFXh8/Hogwr7f3x3rtVEoYjE5yH896xxxPmWO/QgFFJxUJafNeY59PLouPX01mzDE2MC+qw/bYfsuZ0EWctfOyPda+VPa+g7Yt6l98Ua/K5MCb0ptoK1dl8NVliWOMczv65KnVpg3lP6LqY3vM+8PTr8uMv99I3d9k8qa95NWjMln1P7FakWNvJKettH26dPXbkQC3Nva2mf46GWxj3bffJ95en9L2U973mZVjr66Q3pW9me1gdIfFFNI+eDDHYXpTAlpbvp6Wi2PmucqX8m34cUfReqRppY7JIY7TSutDH6fVMb9+3rQuxkPay9f9+fKj3LY9j8dlvHJNZqv3/Pf9KN9c/TT3nr5ByZqHeHIQ0gIoJULaLF7Yun3E/zNkdMcy6V+9Rp568W2Z9B9rsCc0wuFu3by+z2soOc8vVOX0VvP8qkPJz2pTenDaXkjbZ77rEkejTqVPqxj7fldDrG4axy+GhwqZlsOrnpH1Q46ZOLLT/VvE1Ee2yZINwzknK2fl8OrejJv9a28Yvdr5Ben1e5aeHjkvg7a36Rp59rmUK69njkq/nuiKn6i33zP6vdoJaV2/qV5MoGHDOb8yqfN6SusWDhHaXGZTT/aZ3261nuhwXBHeyROAiem7T3Tr9zu9dVl+EO+om6777oszdN1ZNodwCehWGcFpWyHtGrP/TDtR14mQ1r090ZOQenIy2MzZi62c+41ZOfbyM7LpZPaeIn9f4Sm230EZ2H2oOR7qD4f4YY71oRGshk5Wh1XNctjb0y8HIstRcjnWk959PX1m3YhOOD2krcs5s5/r27rNrHMbZZAFcN6lHmMZetHXK/aCONdvNU9Sj8lC8l7jOA4CnjSpx/Z6oUvPntD6oecG3McvOtRlpF2h73UeY5jte0+4V3hNTryWDINVbWhj5LilsMrb8rxzP+XXPzwMZ+2UvL7cfVG6fqfW76vonUtwtde9cwbpF7ROHVkjS147JZMZ21J0j8UU0tbvP3AGfoVKVkD7zZcyOV4soNWi9UjTSh2/mZqU0YvX5I7juUi5+4VcGpuU6TuO51JKWh3z66ch7adyzfncj3LrivaeDe7h23zuzrXiAa2WrHmIJwchLYBSIqTN5m60aeNqjRyunJUtT/cnephqb8/wSWl7gvbFnY2gzE2vHHU30NrhNYI6F9K+MlAxDchlzvqlT6uYrJNa5yInH7W38Lh7yErt9RxpRLvUZHBDrGHqog3btAZxvSIHXn5B+nefd9dD1bwrlXvNd4q8RE/evhztMRuwPUtDvUc7FdKKnJftoeHh0ue1F0q84p88bHuZzTjZNzOw1t0w7+QJwMT00wMbG+znLTOJunkXCqQFSDp/Wz+ZAXQ7XY86GdKabYvZzvY6TyBmTKuQjHV+5ri8FKqr7S3s7LWvF3E0t4epsvYVDQX3OygFbx96Xib397l7g8fXh/p52dLTK9tzfv/gAoLm4WRsOfZHcIgHtCp1/1/XY1S9+EqXwbRjBHRS1vGs8gL7UBhSPSWvr3pTTjh/mqqceKNfXj8Zf7Iqo0e2yUsrvWFZlzy3RjYd9O7VaodmDw8RmnFM1pD3msRxkK96Xg68tlZ67ZCvy+TZVRtl+1BohBFfo07m9fs29PlDr66Q3g1vy7ngM/W4eesaedYOtWo+a/U2ORa/qMHOq0OheuoQ8zrv/KFng2FVl/fJ+v0p967V23fs3yh9/muXrmzWefSga15jccg4tveX/0ZvUjvKljmG8f+MsMFos10xdaQ/ZXvgt8WDYwy7rV6bvIhX1U7JpvD0C/Kmfd7/K8qGybub9bIXrKWNbmJHEqm7n0tjv0/KcZjuI1PaXnb7uNJsi8zE8ral6A6LKaS930IAGikdDGi1aD3StFTHa5/K6IXP5SvXc+Fy63MZTw1O3SWtjvn1Sw9pv80IYn+4fUNmbgW9avNL1jyckxk9TvGPLzZwG6yFRkgLoJQIabPZhsuqWA9SbYTZx7wrX6MnvryTu32N4Mo7OebsQRhjg7GenJMpBdnGTUdDWvN6bShqOB0LpdOnVUx6Q8yrS35vJv/K27xekRoK5Pa21d90mbu3bn1ctq/UoaiKfFNvuKZI3cf2yJKn33T3volZ2JB2Dstsxsm+1OUk7QRgOxLTzwhs2gpp/d71KQGS9x0Z8hhPmozgNB5KxenzjpBWX+8OujKmVUjGOm/q4u7VEqMnGHVfl5m+Zuwrwgrtd1AWzX2oDpXt6E0VWx8K94KyYW54JIbQchwMsZ9yr/a0/X942vbiwSL1wJykH2MFYoF55vGP63hdjy2XyZLVO+XY2Kw/pPqsjB7R+2a/LYNHYtNPHBM55L3GUcegV/f6g2dlquoN616dOiu7VuvwqtGLEe082bBZNun9LStVqdXr9lYh3u001sng1LjsWrVGdo2Y72OfC4aO7YvcriNZT11H1sqm1/q9Cyc1SKprPYZl+yqtR+xYzB7DPyO9Gw7J6SlTDzsU/bScNvV4dsOwHEs9jsaiFg9lte2Q1ub1A1X3+hzmh8LBSF2xC8iistsdaaIXOUfFLybX0DZ4bc2sjzoy1K7dR2WwEhr6uUPseRXXBct2VKnmOp+/LUU3WEwhrSvsyy0dDmiDksb12tRy83MZH/9MZlzPhcvMZzJ24XO55Xouo7i4XhctKSHtN1/IpfELMnkt2oM2Ue5+J1cvT+cHz6Z0njd6jb1YzC8cUywsQloApURIm8NxBatenRr0lrONiMi9vsZle094+EMNyfKHQ7SyrqRtka2XsxE5h5DWsPeEjfT2yJpWMc6GmN7f54jeH+eQTLqOo2rT3v2+zhyXXa/1y7Mvp7yuwTtwyg0edUji0PDATRq+rzDzofl+vbfOltUvePd769Er8GdNndc2r8TXhn3kpKh/ck3vFTzl38coRadC2vrITjvcVe5wx3oSuDHc8RyW2dSTfUGvW8f8d5wAbJvzJJ7rs83ysCM2LJlLom7BkGTu5UhPdMxlXQC6k65HnQ9p3UFXxrQKca/z3r3LNehyrZ11mRnz7iE5qD3UnvO255lS9xVhBfc7KI3IPlQD+Hhv8Nj6oCfKi42u4F3g91LjGMNfjitmf2zWkfCxR5x7/++FgY2LCOy+OjnyCzor9RgrxPZwCy5OyTz+SR6v64Ut0R7XTdoLra9nWXT6iWMih7zXxOvoX1DgHq7eO9brDS3zdp7o+5OpjL3txPMvrnH2NLfHU+H2VaKe3r7i+R2O47jasKyPHMd6F9Wk3Qt9ZmCjLO1xH0djcdOLgMPLoV2eUy/GdB9/JJj2YX/4tki630i9aDTWLs+4R35z2fa3HWmjgcSOy3QfsmmoYnvu633Td+3WkHanbNKLHVaZeoVWmtR779dca1acv84n9om63Yi2sYtsS7HwCGkzih/Qjk5MdTSg1ZLG9drUcntKLhTpIas9bs13uO16LqO4uF4XLe6Q9sZnE3Ze5Q7NXLR3sCmdp/cBbwa0WpqddrAQCGkBlBIhbR6vodM8GaF/hxr+9qRB6CSdBnOJnoUFGmzWXE9ON3mNyM6HtMGJjkRDaq4hbeiApnFg81rGMCFjh6RvVb8pL8iS1Zvl8EjO1O0Jm/x7sqXee0dPxoYCVzsk0/KNoXvM6T1a10rvyvC8G5dd4WHtrKqcO7jZG5at5wXpf22P7Q0R/5o6z7Map/GTsvp3345hL7i2ZVgOm/osfTo6PKKd1xsOhV53Vo7t3mxP7DV+07kss8H60Gi0z8qkqcu+l1ckGvoNLU0vh/2s+Em8ftk+FHxfU4aOyhZTn6f8IbUyOerm9R42j8VOONZGdkr/ho3yEiEtnjgZ+6ZYKJUQOxmYWEdtT9Pw0Opz3Q9670/sU57Tnlppa6Y3rKjuU3qX98oru4dT7sXdlLqvCCu430F5xE8ca2gWCYki60Pe8VZUdL+vy/Eys695Rl46WHEGS4H48YBl74EfXva8CwaKBcZoV3z5cIkcM2ce/8SXH69HnTscVV4wH5l+4pjIwb4mtK10lmYdbS+8+AhDId4xUjNwinzfGPtZpn6pQ8eG6574Lt460ryvZ5h3QV1j3tkLbrMuUvDmbdF1FYtEddiOYhC+aDV7Hc9aJgN6In9Z5EKGxHFShL8d8ANXHZbba/8my4HGdJNt+QidXmgd1X3I+g3bzLYlXoOaf0FrcHGDDjHunnZfZChyN+2BHxnu3afD/S813z/crCqyLcXCI6RNKfMY0GpJ43ptetFAdEIu33I91yy39T6wpq6u57KKi+t10eIIae9el8r4hHx2I/RYWlnQkNY/PxgcNy03x+AcUiwoQloApURIm0+vel8SNBT0JEFkSGIdsqg5RJ1tVISv1LYnBor2jtXGXcEejDnST4rknTRMNuwSJwDtsMfNkCrrBEwRzoaY9qTV4c6KBGm1ihx+dYX0HUyfcTNFhkO2vQOC3qRRem/i5okx7f0VbbRbiZNtOi/TTr7pV5yWcwN7nFcqR0/WJsV/E/37+cbVz145MHBepmINYTuvV2+OvG7XkWGZDN9gdy7LrJ0HK6Q3aLRrGP3iOtl3ZrpxFXpCYr7NgfMkXq+8sjX0fXcfkmMjGfUJc9atbrYJG2Wp/Z4bZcuOzfbecEu1N/fI2+Z3aH9dALqTrkfzFNIa0aArY1qF6PuT25P6zHnZtTraUyNN9cw26V3+ZuJEYkPGviKs0H4HpZI8XtHjgdA9ZyPrgxcUNXvHZrP78caJe12O18r2HetkiZ7oyVjWEsdohi570VFeDFO3QsN9o23O49mYyDFz5vFP7HhdA6OcY6XEPTAd29sE+5rwxXWxUjkqL4WmO7o71ls3LvadMudJfP8QFq974ru4t/WByHphbzeSNR+8nuzx9QiLWN207zVM3T0e2Yd762+7PWm1/WC26StjF63qelC0J20h/rajhZ60T73h7mXuDfecDFZbVtXRTJYl6mRDjciFep4i21IsPO5J6ygFAtrxT6+3HdBm3U+1cB1tuSmfjU/I5Zuu55rl1uUJGfvspvO5tJJWx/z6OUJaHW55/IrMhh9LKwVD2qx5OGf1WfMdCp5nwrwipAVQSoS0BejV3P6JLTvcb6zR0OxR452Qi17lnnfle0inGkJG5CRQROykT8KsvTdpZkhrVIdMI9N8vp43TJ9WMVkNsUK9lZTtsZQ27/Q3yA+/7f3bNgw7Dqr0/aHP1hOdru9rhxMMnwTSAD86VLabNzxc+HvaBnNG4zR+ryHXb+RSrNE7h2U2fhLNPN//tCPQDoud0JuTFk/i5cqqW70qU/4QqY2QW098xE+MA6Wn61GbIW38/m2JddSoj8uuRtCVMa1CMtb5Fnq2Zu170vcVYcX2OygX1z7U9g4KTjLH1gddjiIX7qXy7lHYvI99sBwHJ/W3yemU/Vhy/6/L3jLZkhhC1nu8/XULeYocY+lFf0t2+6/JPP6Jh7T5x0ozA2uj03dtb+PyXhObbt7xafz1mfNE15e09kO8Xol6Zh/fRdaLvP2UkXUPTywyQUBrltvEtrvAPWnd7b5gW26Ww/iH5t6TNq93blL+PWmbQbNe3NF7MG1Yzuz1rJAgoI1fsGTvE/2Cvb1E/OIQvX2Q7jvt3/k7UCyQxRTS1gsFoDW5emlcRsfGZbzyhdwOhbQ/fP3FnANaLVqPNMXqGJSqXL4wLpPXXM81y7WKqfPlqvO5tJJWx/z6JUPa2q3rcnXma/kh9FhqKRjSZs1DPDkIaQGUEiFtEaYR0aM9C70rrRPhlYa4OvSXDemSQaHt0ZB7Qtc7mbfkjc4EPPakSEojUk9cpN8jIXk/UncA6A3XpA0uHaZovkLaSGO4el4O7D4VGQ6pKb0RaYdei9wb1mVWDq92ndQ0bKO72XhOra8uB+Grq/V94V4r9j5C7pZm/Peyf6ee2PWC9ObJ3LTfKClzXoe0vcw6TvbZe6iZ75Y6/2Mn9OakxZN4uRx1q8+My7kp95zRE6TcfwRPHl2PUoJTu47E7ssZYkODzPsKeppBV8a0Csla58MXIdVlcmiPHB5zr8vp28qMfUVIsf0Oysa9XNRldLffGzweBiWGHU6hxw894d7b4eXYfP4Osx9NGVkksf+3w8Q+Y+rhLvTunj+5x1jaTuiJjz6Str3ygvvmb6u30MgK2b02SmT6KdvbiLzXxOqoF2lmHvPbZbn5eZnz5HGFtLm9kOPzGotWbVz2mX18r9meOzfbfqCaOkS3c7SCmozuX2MD2nPOD9W2d8oIRrYN2voF3N4FG+f9v6LiF6HVz2xLfa1Xt6x1J8fMsLyedl91u79M7qPihfWyey2mkPbBg5+dgV+k3PWGEP7s6pdSsb1pP7e9aTsV0GrReqQpVMdG+dEGyhenvnM8F5Tv5POL+UFuvKTVMb9+jp60rZSCIW3WPJyr6thxObD7qJxOOVeEx4eQFkApEdIW4Z342DR0Srb3uE5Gj5vHTQPmpIZ0jpMN9krRlAaKz7uHgfmMDp3RtSdFUk582CtoV7qHvNN6PG++Y3jYodQA0N6rZ51s32EaglknbHJkncCZOtgfOsGv8zk0rGCYPRHqasR6PRHWD2UfKNnvnTYMoJ4YerkZMtr6JgLUur1vT/h71M+8GW0E2/t0ucMMG3aGT5zak1wpjXJ7ompNZKjNToe0bS+ziZNoRt008F9cFgmVI+x75nACIKzFk3i5XHVLPQkzLYdX03MOTyJdj9KCU6+Xh3v99ra//UdC2xHXNsIKgq6d8nrqtIrIWOfrZ81nN9fRYD+Z3O2m378zc1/RUGy/g/JJ3YcGvcF3vCnRHntewBqMPOJk97e6Dw/vb+PLsf85jnu7x/f/2lMzrRe4F+CmX1SBuck+xqqatoT5DSOjbej28xl53TVyiR2JJPrb2mPFtGXJf31k+qnb25C818SPg+yIBGkjpOiIQmb5M3UIvlHmPDHb08cS0pp66f16nT0jDQ2plhAGwQaKK2T9kWnncuLxL9RKrLO6jTbrZ2JZn5XBN/pk6Qa9mNt/KME75uh3XOQZHKe0vGRqu9jV5tT9TXxEBQ2CU9qndt3IPeZxq429Lf3L+2V74l63+bK3pegWiymk/fXXh87AL1LCQ/P6wx6Pf3qlYwGtFq1HmkJ1DJX8XrLa2/aCVGZcz6WXtDrm1+/xhLRZ83Au7EiDehxmS85Icph3hLQASomQthgbbPYsi51cCXgh7vMv9qb3ojMNv/XLl0nfG8dlshpqBdVn5dzBjdLb0y+7Rjp3Qje7UafD6y6T3khd6jIzdsjWMX6/mKwAsHEw0k4D0udsiAX3pDUHOLvGmvPLTq9nnewbm200oOtV/6rn2H2DLBt2RkPnJO/kTSRICIv1pJWpQ+b3WhcKJ3VYpo2y/lX9Hv6VyNoIXhUPWafl8MvLbEN9svG4me96/8PEgZx/Qnb1HjkXul9sbWrYfG7yu3Y8pFXtLLMpJ/vsMOEpJwASJwDnosWTeLmcdfN6kdv1J/j6tYoceyN+8hV4Uuh6lB6c2gs2etaY7UFzuyy1aRnc0Z+891rKNsKyQZfXuO1sSFuXmr0nrdmHh0c78KfXu3U4dP/uukwNmX2P2cYnhyzM2VcECu13UEZZ+1DbG9yemIkv37NmuVkhS1a9Kccq1dC+2+z/R8xx10qzn90d77XlWo5n5YTuZ16NnuyP7P/t/ZKzLhbSgIELCOaLa/mo16oyNXJUXjfHbq6gJjiuPVxp/ib1mbOyZdUa6Y/37vQD/cjxh12O3paXVu+UYwdj08/a3gbyXuM4DtIRdJYktvnecVC8x3fmcedjC2mNGfN+047rN+ta87DaHL+btkb/huNyrOBxNJ5M1TM7pa+nT7acnJVqbOjd+JC7XpvGW/6952dl1LSLlsaPG6pnvTbb1lMyU419ni2hDzXHDdoWfH2g4k/fbDeGvDqF28HFeRdMeO1If3oz43JA90WOe+rqqEfRNqduV/ZIv1lnUi+yTeW1i5c+t04OjFVD37dZ8r5RS+1VLJjFFNIqV+AXLjOfXmjev7X2vdy4fNEb+rhDAa2WPK73pJWvLk/IaOVL53Ne8XoGX77lei69ZHG9vlkeT0g7P7wLdMOjAKReMInHgpAWQCkR0hZkTw6kN+DtUEGhHjpO9Vk5fXCz9C8P7cB7XpD+rUdltMPnBWzjJjM4rcq5/evk2Z5mXZau3Cj7RpLvyA4AvcB3ziFtMD8aZYX0btgpg47Ljqsjh2TT6hXN15p5+Mr+847pp/eGisgdjlBPavbL4Sn/T2NmYLOdd0tX9suzz62V7WdmzeTGZd+qFfLsqn7pXbnZvN5xEFjX4CI231dvk2POy6v15NG2yPKy5Lk1smUgeYX3vIS0qtVlNvVkn3fgaoeD9B9pcJwAbFuLJ/FypdbNzJfw77i8T9Y7l0HgSaDrUXZwWqscly2x7XL/1uPJniOp2wiP10N/riGtX4dQ0W3npoOOdbSVbXKhoWsL7ndQStn7UO/iKve9L/WCrNixy9PL5FmzrB0ec+050vZd3jFXuDdleP+vI3g8ldPrqejtDNA65/GsOT546bU9csz5O6u6TMWO9XQbNDijv7Xj2E7D0K1rZGljGmY5evWQjJofNLF85mxvrbzXpBwHOY/FdwwnQ+isdeZxhrSqel72vfpCqKfLCrOfGrbrUtHjaDyJ3McN4RJfNqojb8v6lcHyr+tgss2qy1T8cyIltux7x1HN5XPp6s1ywNEuL07b+hulN9i2pKyjHr1Abae88pxp0wfTTzkvkMuuq/40U0reMV7L7VUsiMUW0j6oZw3Xe1M+Gx+Xi5enpXJxwoazo+MX5dKVmx0LaHX6ebLrGC13pidl9NIX6fd7vfuFXBqryNXQvXXzSl4ds+unIW1Fpr/+Tr5pp0xXckPaIvOwXTraSXM7t0xeb/kCF3QSIS2AUiKkXSB6f1JnIymkPiujI+flXGaZnvOJtnqBK1pbYe/Z6axrqJTsPg161fRSxz1i644Z53rMpaX5XmR5mW8LUYfHtA4A6JS6pN17uz01mXKu9+EyHuoZBXS7Tq8jeFLocWHxRUOXo84ev7dFjw1Ltzwn18FzhLQA0JLFFtI+evjIGfzZUp2SCxrMXpiUyctfyq1v77lfN4fy6NEjvybpMusYLzc+l3Gtc1a58LnccL03peTVMbt+Vbmi9/J11aNguXDldnrobEqRedi+WRnculb6Vq2VTUcqC398tsgR0gIoJULaLlY9Ja+v6jc7+qxyKPsK+QVQPfmmo56xcrBsV8fqcIUvSN+Os/SWfJxKug4A6JRxOeBc78PlTTnBhhkAkGLm5B45PJZ2Sd+0HF71jOM+owCANIstpFUPHqT1BP1R7tzpfDAbFJ1uUel1TJYf7txx90q15Y7caaUXbcE6tlK/TpZW5iHKj5AWQCkR0gJF1WT04Dp59rk+Wb/1kBw74/fiGjoqu7auk1cGcu5TCAAAAOCxqo9skyUv7pRzjpy2PrKT+4gDQIsWY0irPTFdAeB8l1Z6gHZ7HcswD1F+hLQASomQFmhVXWYqfjh7ZNgOtTlV5cwOAAAA0H3qMrq7X5YsXyvbB87K6FTVHssP7l8rS3v6ZdcYx/EA0IrFGNKqX3996AwB56s8fPjQn3Jx3V7HMsxDlBshLYBSIqQFAAAAADzJapVhObB1oz9U/lrZtPu4jDJcPgC0bLGGtOqXX351hoGdLjqddnV7HcswD1FehLQASomQFgAAAAAAAECexRzSqvkOGTsRLnZ7HcswD1FOhLQASomQFgAAAAAAAECexR7SqvkatreTw/N2ex3LMA9RPoS0AEqJkBYAAAAAAABAHkJaz6NHj+TBg5+dQWGrRT9HP6/Tur2OZZiHKBdCWgClREgLAAAAAAAAIA8hbZQNGuvtBY36vscRLHZ7HcswD1EOhLQASomQFgAAAAAAAEAeQtp0OoSv9uis338g900Jh4n6tz6uz+vrFkq317EM8xDdi5AWQCkR0gIAAAAAAADIQ0gLoFsR0gIoJUJaAAAAAAAAAHkIaQF0K0JaAKVESAsAAAAAAAAgDyEtgG5FSAuglAhpAQAAAAAAAOQhpAXQrQhpAZQSIS0AAAAAAACAPIS0ALoVIS2AUiKkBQAAAAAAAJCHkBZAtyKkBVBKhLQAAAAAAAAA8hDSAuhWhLQASomQFgAAAAAAAEAeQloA3YqQFkApEdICAAAAAAAAyENIC6BbEdICKCVCWgAAAAAAAAB5CGkBdCtCWgCltBhCWj2ApFAoFAqFQqFQKBQKhUKhUCgUCoWyMGU+EdICKCV60gIAAAAAAADIM98hCwC0i5AWQCkR0gIAAAAAAADIQ0gLoFsR0gIoJUJaAAAAAAAAAHkIaQF0K0JaAKVESAsAAAAAAAAgDyEtgG5FSAuglAhpAQAAAAAAAOQhpAXQrQhpAZQSIS0AAAAAAACAPIS0ALoVIS2AUiKkBQAAAAAAAJCHkBZAtyKkBVBKhLQAAAAAAAAA8hDSAuhWhLQASomQFgAAAAAAAEAeQtp0v/76UB48+EXq93+W+/cfyE8/1htF/9bH9Xl93ULp9jqWYR6iexHSAiglQloAAAAAAAAAeQhpox49fCQP6j9HwsSiRd+n759v3V7HMsxDlAMhLYBSIqQFAAAAAAAAkIeQ1vPo0SPbo9MVHLZa9HP08zqt2+tYhnmIciGkBVBKhLQAAAAAAAAA8hDSekPyuoLCuZaHDzs3hG+317EM8xDlQ0gLoJQIaQEAAAAAAADkWewh7S+//OoMBztV9PPnqtvrWIZ5iHIipAVQSoS0AAAAAAAAAPIs5pB2vsPFoMwlZOz2OpZhHqK8CGkBlBIhLQAAAAAAAIA8izWkna/hedNKO8P2dnsdyzAPUW6EtABKiZAWAAAAAAAAQJ7FGNI+evTIGQLOd9HpFtXtdSzDPET5EdICKCVCWgAAAAAAAAB5FmNI++DBz84AsK1y92u5WrkoY+MXZGyiIldm77hfZ4pOt6iW63hrWi5dMHXQevhl/NK0fOV6bUYpWseOzkNT7sxMSWX6tvzgeC5cWpmH7aqOHJVdu4/K6ama/wgWCiEtgFIipAUAAAAAAACQZ7GFtI8edrAH6N3bcnliXEYnPpNrN7+WmcuTMjZ2US7f/NH9elOK9ARtp45fXZ6Q0UvX5Juvv/PLNbk0NiGXb7lfn1Xy6tjReeiXH25+LhfGLsil6a9zg9r57E1bHVonS55+Rp6ypU/2VfwnsCAIaQGUEiEtAAAAAAAAgDyLLaR9UO9QD9AgoB3TclE+sz1of5RbGpZenJZvXO8xRaefp5062pC28mXosS9lss2QNq+OHZuHsRIEtZNXv8sMaovMw/ZU5dirQUDrlef3k9IuJEJaAKVESIvSqtekVqv7fwAA0L56rSbsUQA8MeqzMjoyLU/EoHv1aRkcOC9V/09g/tRlPpqX9ZK0WfVYqKNV1fZ6oc8z8512fakstpDWFfq1XPyAduzitNy6e0++mq7ImIaL12ryw9WKjE5MyW3X+/ySx/WeaLkukzYcbqNUrjs+L1myuF7fdql9I7PXrsnlTz+VyYopExdMPXVepg8brWW+TO7vDYW0y2TLCNuzhURIC6CUCGnT1caOy64j4+6TG7VxObx7j5yY8v+OmTq5R/admfX/CqlNy+kje2T7a2ulb8M22XXwuJzryD0LZuWEqc+ujHJiRl9Xk1Ez/cNjadP0nvde65kx32XXyWn/r6Ta2NH0+VSAfX+8vkeGZTRlvlRH3pZXnlvWPAjqeUFeORie/rgcWNUvfRnlwJj5nJNvOp9rlDdOzcvJoNrUWbPs7JRNL6+VTTsOyTHHCTRvnjuWH58+H/4N7esj89B87pmKzMSODV3z+vDQuGQugq0ss/56EZmG47dM1jdWMr57Jjv9U9JcfB3rhan/6cpsThgzLtsbB9nr5Ji/IIwedCwn4WKWQ+BJ4Nwuh0uwzZ85Zf4Or3Mx+nx4/2DX0aMymrrN8dbZ8D6oNa59oXt7aNWn5djWNbK0sb4/I0tXb5PB0PSL7SuK7XdQbrnHO5nrQ02mzpj379gsL63aKFt0uUwN0HQ5dq8n9n5X+4/LpP9c/HggqiqTI+dl1Lnwo9Nc280DA2fNMVB1YS4AqR6XV57eKaP+n06J46aY3G3246HDCOpJz11sRzFfZoZly+oVjWOBp5avkS0D0451ty5TA9ukf3n4uGFzynZ4VgYjxxgrpH/rcZlybBDi7dslz62T7a5zCUUljm/MtF9LW5f1O5ljnZ7gtWb6q96UY66KFlQbO5T4PvtGki3r+tTx6Hy382g4fZuErrGYQtpff33oDPxaKpGAtvn4t9OTMnrholwYH5eLU99E3xMrWo80rdTxWmVcxi9Xnc9FS1UuXxiXyWuu59wlrY759ftRbl+94gWusfLZ1a8br/vh6xty5dJFLzi+MCmXKlfk86tfyJXKhHnsolzJGDJaS9Y8nJtZOb1jo2nzrU3Zd+BxIqQFUEqEtBmmjkrf05vlhKMxUz+zzTYk3MNYVGTfi8/IljPhXXNVzu1eI0s0UNx6VAZHzsu5kbNybPdm28hbuuGos8FWXE2m7Gd6ZXBHvzy1aqc/Ha94OZk3FMcrA2nxo/f89tBJkNEd2mBaI4dTAunqwDp56tXj5p3tse/fcKhRz3Mjw3J49zZ5ycyX3jeiJ45qJzebebhODleaP0p95qxsWfmM9B9pBsn2KmBXqZ6V7c+Z76IfanviusvUkXWyZOv53IOrem3WngAN6j45k90Ta8Z81yXL18r2gbPee4YOyXpT9yVm/oW/p53nO9IDP30+/Bvq3307hhv1OD1wSLa/ZhrmPf2ya6xZo8S8Hjoqu7auk2d7Vsj6ofiJgDaWWXtCcKMcCD7f/y21kb50Q7PBXZsKnjdlaKdZz/pl+1DosczUOEPihKSGreHPNvU/uFM2rV4hS1btkdGMH8suQ5Wj8lIopE1fZqrmoPwFswzO4WQK0EXqM+PN9XHEbKfM/m79weBvU8b8Cx3Gdpr9Q0YIoM+H9w92HTXbvK1nU7aV3gUS4X1Qa+LrfLA97DfbsjWyrxKeqtlXm+1vr6lLM8OqyaRu/3u2yengsYL7ikL7HZSa3Yfq1fGR47uQlPWhOrJH+nuWybOvbpPD/rJ5emCP3Rc9tXyjOb6Kf54ux6F9j69uPr9Xj4FCr48fD0SY19v7Y712KiUMRie5j2e9Y46nzLGfK6CYV0VC2rzX2OeTy+LjV5MZc4wNzIvqsLzS02e27aGLOGvnZXusfansfQdtW9S/+KJelcmBN6U30VauyuCryxLHGOd29MlTq00byn9E1cf2mPeHp1+XGX+/kbq/yeRNe8mrR2Wy6n9itSLH3khOW2n7dOnqtyMBbm3sbTP9dTLYxrpvv0+8vT5ltiXx71N5O/a9jVpFDmvdU48T0S0WU0j74MEch+lNCWht+XpaLo6Z5ypfyrfhxx1F65GmlTomhzhOK60PfZxWx/z6edO6GA9pL1/358uPctv2PB6X8co1ma3e89/3o3xz9dPce/oGJWse4slBSAuglAhps3hh6/YR/8+Q0R3LpH/1Gnnqxbdl0n+swZ7QCIe7dfP6Pq+h5Dy/UJXTW83zqw4lP6tN6cFpeyFtn/muSxyNOpU+rWLs+12BZN00jl8MDxUyLYdXPSPrhxwzcWSn+7eIqY9skyUbhnNOVs7K4dW9GTf7194werXzC9Lr9yw9PXJeBm1v0zXy7HMpV17PHJV+PdEVP1Fvv2f0e7UT0rp+U72YQMOGc35lUuf1lNYtHCK0ucymnuwzv91qPdHhCDE7eQIwMX33iW79fqe36gmAnCC+aN3Mb7ilZ6MMZi9YQEllBKdthbRrzP4z7cRjJ0Ja9zqrJyH15GSwmbMXWzn3G7Ny7OVnZNPJvBU6b1/hKbbfQRnYfag5HuoPh/hhjvWhEayGTlaHVc1y2NvTLwciy1FyOdaT3n09fWbdiE44PaStyzmzn+vbus2sc+yfHofUYyxDL/p6xV4Ql3dA0UGpx2Qhea8pehwElJi2650XXuuFLj17QuuHnhtwH7/oUJeRdoW+13mMYbbvPeFe4TU58VoyDFa1oY2R45bCKm/L8879lF//8DCctVPy+nL3Ren6nVq/r6J3LsHVXvfOGQz7x4TaFku54H3muLyUcqE8usdiCmnr9x84A79CJSug/eZLmRwvFtBq0XqkaaWO30xNyujFa3LH8Vyk3P1CLo1NyvQdx3MpJa2O+fXTkPZTueZ87ke5dUV7zwb38G0+d+da8YBWS9Y8xJODkBZAKRHSZnM32rRxtUYOV87Klqf7Ez1Mtbdn+KS0PUH74s5GUOY2axs0rgZaO7xGUOdC2lcGKqYBucxZv/RpFZN1Uutc5OSj9hYedw9Zqb2eI41ol5oMbog1TF20YZvWIK5X5MDLL0j/7vPueqiad6Vyr/lOkZfoyduXoz1mA7Znaaj3aKdCWpHzsj00PFz6vPZCiVf8k4dtL7MZJ/tmBtaGGuYhnTwBmJh+emBjg/28ZaZg3fQkSpGe10A56XrUyZDWbFu094TzBGLGtArJWOftSb9mXW1vYWevfe/EYbA9TJW1r2gouN9BKXj70PMyub/P3csnvj7YC3h6ZXvO7x9cQNA8nIwtx2bZ1V5e8YBWpe7/63qMqhdf6TKYdoyATso6nlVeYB8KHqqn5PVVb8oJ509TlRNv9MvrJ+NPVmX0yDZ5aaU3POiS59bIpoPevVrt0Ozh2y5kHJM15L0m7Tioel4OvLZWeu2Qr8vk2VUbZftQJXExSqNO5vX7NvT5Q6+ukN4Nb8u54DP1uHnrGnnWDrVqPmv1NjkWv6jBzqtDoXrqEPM67/yhZ4NhVZf3yfr9Kfeu1dt37N8off5rl65s1llvZ5Gc11gcvIuAnccd/vLf6E1qR9kyxzD+nxE2GG22K6aO9KdsD/y2eHCMYbfVa5MX8araKdkUnn5B3rTP+39F2TB5d7Ne9oK1tF6rdiSRemvtG/t9Uo7DdB/ZmEd1mRkLRvqK8T+jnV68eHwWU0h7v4UANFI6GNBq0XqkaamO1z6V0Qufy1eu58Ll1ucynhqcuktaHfPrlx7SfpsRxP5w+4bM3Ap61eaXrHk4JzN6nOIfX2xwD2uPx4eQFkApEdJmsw2XVbEepNoIs495V75GT3x5J3f7GsGVd3KsyDCoNhjryTmZUlB6cNpuSGterw1FDadjoXT6tIpJP6nl1SW/N5M2Rtfkh2QaCuT2ttXfdJm7t259XLav1CGZinxTDTBXROs+tkeWPP2mu/dNzMKGtHNYZjNO9qUuJ2knANuRmH5GYNOxkFaHTM3vTQeUV0Zw2mZIq693B10Z0yokY503dXH3aonRk4O6r8tMXzP2FWGF9jsoi+Y+VLf7jt5UsfWhcC8oG+YuCy33oeXYD2hfT7lXe9r+Pzxte/FgkXpgTtKPsQKxwDzzGMN1vK7Hlstkyeqdcmxs1h9SfVZGj+h9s9+WwSOx6SeOiRzyXuOoY9Cre/3BszJV9YZ1r06dlV2rdXjV6MWIdp5s2Cyb9P6WlarU6nXRW4V4t9NYJ4NT47Jr1RrZNWK+j30uGDq2L3K7jmQ9dR1ZK5te6/cunNQgqa71GJbtq7QesYsC7TH8M9K74ZCcnjL1sEPRT8tpU49nNwzLsdTjaCxq8VBW2w5pbV4/UM1uMyg/FA5G6opdQBblj+rV4jFR9CLnqPjF5BraBq+tmfVRR4batfuoDFZCQxB3iD2vknLBcpgdCYp9VtdbTCGtK+zLLR0OaIOSxvXa1HLzcxkf/0xmXM+Fy8xnMnbhc7nlei6juLheFy0pIe03X8il8QsyeS3agzZR7n4nVy9P5wfPpnSeN3qNvVjMLxxTLCxCWgClREibw3EFq16dGvSutScfIvf6GpftPeHARkOyggFO1pW0LUoNxJwnfcIyQlrD3hM20tsja1rFOE9q6f19juj9cQ7JpOs4qjbt3e/rzHHZ9Vq/PPtyyusavAOn3OBRhyQODQ/cpOH7CjMfmu/Xe+tsWf2Cd7+3Hr0Cf9bUeW3zSnxt2EcamP7JNb1X8JR/H6MUnQpp6yM77XBXucMd60ngxnDHc1hmU0/2Bb1uHfPfcQKwbc6TeK7PNsvDjtiwZC4F6maDak4k4Imm61HnQ1p30JUxrULc67x373INulwrs9ebQ/cpg9pD7Tlve54pdV8RVnC/g9KI7EM1gI/3Bo+tD3qivNhQkd4Ffi81jjH85bhi9sdmHQkfe8S59/9eGNi4iMDuq5Mjv6CzUo+xQmwPt+DilMxjjOTxul7YEu1x3aS9dPt6lkWnnzgmcsh7TbyO/gUF7uHqvWO93tAyb+eJvj9xkKTL/DJ5/sU1zp7mGhxF2leJenr7iud3OI7jasOyPnIc611Uk3aPy5mBjbK0x30cjcVNLwIOL4d2eXaNCmS5jz8STPuwPzyUr+43Ui8ajbXLM+6R31y2/W1H2mggseMy3YdsGqrYnvt63/RduzWk3Smb9GKHVaZeoZUm9d77NdeaFeev8659Yn1WRoP7eG9dK89qL3kaVl2PkDaj+AHt6MRURwNaLWlcr00tt6fkQpEestrj1nyH267nMoqL63XR4g5pb3w2YedV7tDMRXsHm9J5eh/wZkCrpdlpBwuBkBZAKRHS5vEaOs2TEfp3qOFvTxqETtJpMJfoWVigwWbN9eR0k9eI7HxIG5zoCJ8wTJ9WMd4JnOhBjT2weS1jmJCxQ9K3qt+UF2TJ6s1yeCRn6vaETf492VLvvaMnY0NBnB2ybvnG0D3m9B6ta6V3ZXjejcuu8LB2VlXOHdzsDcvW84L0v7bH9oaIf02d562GtH07hr3gOtTIXfp0dHhEO683HAq97qwc273Znthr/KZzWWaD9aHRaJ+VSVOXfS+vSDT0G1qaXg77WfGTeP2yfSj4vqYMHZUtpj5PrTSvS1u+Arl1i50IB55IGfumWCiVEDsZmFhHbU/T8NDqc90Peu9P7FOe055aaSuyN6yo7lN6l/fKK7uHU+7F3VToPm0F9zsoD7sPDe2bNTSLhESR9SHveCsqut/X5XiZLOl5Rl46WHEGS4H48YBl74EfXva8CwaKBcZoV3z5cIkcM2ceY8SXH69HnTscVd7xSHshbWhb6SzNOtpeePERhkK8EVaagVPk+8bYzzL1Sx06Nlz3xHfx1pHmfT3DYiMd2Qtusy5S8OZt0XUVi0R12I5iEL5oNXsdz1omA3oif1nkQobEcVKEvx3wA1cdlttr/ybLgcZ0k235CJ1eaB3Vfcj6DdvMtiVeg5p/QWtwcYMOMe6edl9kKHI37YEfGe49zA5nrp/TJ0tfXCe7HEOno/sQ0qaUeQxotaRxvTa9aCA6IZdvuZ5rltt6H1hTV9dzWcXF9bpocYS0d69LZXxCPrsReiytLGhI658fDI6blptjcA4pFhQhLYBSIqTNp1e9LwkaZHqSIDIksQ5Z1Byizjbewldq2xMDRXvHauOuYA/GHOknRfJOGiYbdokTgHbY43WN75R1AqYIZ4NXe9LqcGdFgrRaRQ6/ukL6DqbPuJkiwyHb3gFBb9IovTdx88SY9v6KNtqtxMk2nZfpAV+9Oi3nBvY4r1SOnqxNiv8m+vfzjaufvXJgIHmfHzuvV2+OvG7XkWGZDN9gdy7LrJ0HK6Q3aLRrGG0a2/vOTKc3thPzbQ6cJ/F65ZWtoe+7+5AcG8moT1he3Qr1pgPKTtejeQppjWjQlTGtQvT9yXW2PnNedq2OjoaQpnpmm/Quf9N9IlFl7CvCCu13UCrJ4xU9HgjdczayPnhBUbN3bDa7H2+cuNfleK1s37FOluiJnoxlLXGMZuiyFx3lxTB1KzTcN9rmPJ6NiRwzZx5jxI7XNTDKOVZK3APTsb1NsK8JX1wXK5Wj8lJouqO7Y71142LfKXOexPcPYfG6J76Le1sfiKwX9nYjWfPB68keX4+wiNVN+17D1N3jkX24t/6225O2btZRs01fGbtoVdeDoj1pC/G3HS30pH3qDXcvc2+455RgtRVVHc1kWXqdIvTC5z5Z+kZsH4auwz1pHaVAQDv+6fW2A9qs+6kWrqMtN+Wz8Qm5fNP1XLPcujwhY5/ddD6XVtLqmF8/R0irwy2PX5HZ8GNppWBImzUP56w+a75DwfNMmFeEtABKiZC2AL2a2z+xZYf7jZ1saPao8U7IRa9yz7vyPaRTDSEjchIoInbSJ8G7N2lmSGtUh0wj03y+njdMn1YxWSdwCvVWUrbHUtq8098gP/y292/bMOw4qNL3hz5bT3S6vq8dTjB8EkgD/OhQ2W7e8HDh72kbzBknweL3GnL9Ri6ZJ8sa5rDMxk+imef7n3YE2mGxE3pz0uJJvFw5dSu8fAKlputRmyFt/P5tiXXUqI/LrkbQlTGtQjLW+RZ6tmat2+n7irBi+x2Ui2sfansHBb3BY+uDLkeRC/dSefcobN7HPliOg5P62+R0yn4ouf/XZW+ZbEkMIes93v66hTxFjrH0or8lu/3XZB5jxEPa/GOlmYG10em7trdxea+JTTfv+DT++sx5EguLIuL1StQz+/gusl7k7aeMrHt4YpEJAlqz3Ca23QXuSetu9wXbcrMcxj809560eb1zk/LvSdsMmvXijt6DacNyZq9nhQQBbcELljwcQ5XBYgpp64UC0JpcvTQuo2PjMl75Qm6HQtofvv5izgGtFq1HmmJ1DEpVLl8Yl8lrruea5VrF1Ply1flcWkmrY379kiFt7dZ1uTrztfwQeiy1FAxps+YhnhyEtABKiZC2CNNA6dGehd6V1onwSkNcHfrLhnTJoND2aMg9oeudzFvSoatG7UmRlEaknrhIv0dC8n6k7gDQG65JG1wzGdMqIvMETrgxXD0vB3afSrn3Z3ojstg9Q2fl8GrXSU3DNrqbjefU+upyEL66Wt8X7rVi7yPk+Hwj/nvZv1NP7HpBevNkbtpvlJQ5r0PaXmYdJ/vsPdTMd0ud/7ETenPS4km8XFl1K9ibDig/XY9SglO7jsTuyxliQ4PM+wp6mkFXxrQKyVrnwxch1WVyaI8cHnNv5dK3lRn7ihDuVf1kci8XdRnd7fcGj4dBiWGHU+jxQ0+493Z4OTafv8PsR1NGFkns/+0wsc+YergLvbvnT+4xlrYTeuKjj6Rtr7zgvvnb6i00skJ2r40SmX7K9jYi7zWxOupFmpnH/HZZbn5e5jx5XCFtbi/k+LzGolUbl31mH99rtufOzbYfqKYO0e0craAmo/vX2ID2nPNDte2dMoKRbYO2fgG3d8HGef+vqPhFaPUz21Jf69Uta93JMTMsr6cFtPWKDO4+KqPO79ZOD2I8bosppH3w4Gdn4Bcpd70hhD+7+qVUbG/az21v2k4FtFq0HmkK1bFRfrSB8sWp7xzPBeU7+fxifpAbL2l1zK+foydtK6VgSJs1D+eqOnZcDpjt2umpFjfa6DhCWgClREhbhHfiY9PQKdne4zoZPW4eNw2YkxrSOU426EnnnCtIvXsYmM/o0Blde1Ik5cSHvYJ2pXvIO63H87HhW1MDQHuvnnWyfYdpCGadsMmRdQJn6mB/6AS/zufQsIJh9kSoqxHrNfLy7hlqv3faMIB6YujlZsho65sIUOv2vj3h71E/82a0EWzv0+UOM2zYGT5xak9ypTTK7YmqaDjY6ZC27WU2cRLNqJsG/ovLIqFyhH3PHE4AhLV4Ei9XRt3svCwQZAPlp+tR2skyr5eHe/32tr/9R0LbEdc2wgqCrp3yeuq0ishY5+tnzWc3A5JgP5nc7abfvzNzX9FQbL+D8kndhwa9wXe8KdEee17AGow84mT3t7oPD+9v48ux/zmOe7vH9//aUzN1hAcb4KZfVIG5yT7G8obwXBIZhlq3n8/I666RS+xIJNHf1h4rpi1L/usj00/d3obkvSZ+HGRHJEgbIUVHFDLLn6lD8I0y54nZnj6WkNbUS+/X6+wZaWhItSQ2r7EI2UBxhaw/Mu1cTjz+hVqJdVa30Wb9TCzrszL4Rp8s3aAXc/sPJXjHHP2OC6iD45SWl0z/diyJbb3ub+IjKmgQnNI+tetG7jGPW23sbelf3i/bE/e6DQSjBbgCXL0Qlp603W4xhbS//vrQGfhFSnhoXn/Y4/FPr3QsoNWi9UhTqI6hkt9LVnvbXpDKjOu59JJWx/z6PZ6QNmsezoUdaVCPw2zJGUkO846QFkApEdIWY4PNnmWxkysBL8R9/sXe9B6qpuG3fvky6XvjuExWQ62g+qycO7hRenv6ZddI507oZjfqdHjdZdIbqUtdZsYO2TrG7xeTFQA2DkbaaUD6nCdwgnvSmgOcXWPN+WWn17NO9o3NNhrQ9ap/1XPsvkGWDTvz7hnqnbyJBAlhsZ60MnXI/F7rQuFkTSaPbJT1r+r38K9E1kbwqnjIOi2HX15mG+qTjcfNfNf7HyYO5PwTsqv3yLnQ/WJrU8Pmc5PfteMhrWpnmU052WeHCU85AZA4ATgXLZ7Ey5VaNy+YyutNBzwZdD1KD07tBRs9a8z2oLldltq0DO7oT957LWUbYdmgy2vcdjakrUvN3pPW7MPDox340+vdOhy6f3ddpobMvsds45NDFubsKwKF9jsoo6x9qO0Nbk/MxJfvWbPcrJAlq96UY5VqaN9t9v8j5rhrpdnP7o732nItx7Ny4g0NfKMn+yP7/9wT2xowcAHBfHEtH/VaVaZGjsrr5tjNFdQEx7WHK83fpD5zVrasWiP98d6dfqBvj99D26yZkbflpdU75djB2PSztreBvNc4joN0BJ0liW1+RY6Z5TPe4zvzuPOxhbTGjHm/acf1m3WteVhtjt9NW6N/w3E5VvA4Gk+m6pmd0tfTJ1tOzkrVdW/m0DLttWm85d97flZGTbtoafy4oXrWa7NtPSUz1djn2RL6UHPcoG3B1wcq/vTNdmPIq1O4HVycd8GE1470pzczLgd0X+S4p66OehRtc+p2ZY/0m3Um9SLbVF67eOlz6+TAWDX0fZulMRW73zTzfSh0D8e6OX60+7q0e/+iWyymkFa5Ar9wmfn0QvP+rbXv5cbli97Qxx0KaLXkcb0nrXx1eUJGK186n/OK1zP48i3Xc+kli+v1zfJ4Qtr54V10Eh65JvWCSTwWhLQASomQtiB7ciC9AW+HCgr10HGqz8rpg5ulf3loB97zgvRvPSqjHW6F2JMimcFpVc7tXyfP9jTrsnTlRtk3knxHdgDoBb5zDmmD+dEoK6R3w04ZdFx2XB05JJtWr2i+1szDV/afd0w/vTdURO5whHpSs18OT/l/GjMDm+28W7qyX559bq1sPzNrJjcu+1atkGdX9Uvvys3m9Y6DQG147ojN99Xb5Jjz8mo9ebQtsrwseW6NbBlIXuE9LyGtanWZTT3Z5x242uEg/UcaHCcA29biSbxcKXWzvaLbvLIcKB9dj7KD01rluGyJbZf7tx5P9hxJ3UZ4vB76cw1pQ9srv+i2c9NBx36ilW1yoaFrC+53UErZ+1Dv4ir3vS/1gqzYscvTy+RZs6wdHnPtoNL2Xd4xV7g3ZXj/ryN4PJWzbyp6OwO0znk8u7xPXnptjxxz/s6qLlOxYz3dBg3O6G/tOLbTMHTrGlnamIZZjl49ZIcMTSyfOdtbK+81KcdBzmPxHcPJEDprnXmcIa2qnpd9r74Q6umywuynhu26VPQ4Gk8i93FDuMSXjerI27J+ZbD86zqYbLPqMhX/nEiJLfvecVRz+Vy6erMccLTLi9O2/kbpDbYtKeuoRy9Q2ymvPGfa9MH0U84L5LLrqj/NlBI+xqvrBciJ9dJx/Iius9hC2gf1rOF6b8pn4+Ny8fK0VC5O2HB2dPyiXLpys2MBrU4/T3Ydo+XO9KSMXvoi/X6vd7+QS2MVuRq6t25eyatjdv00pK3I9NffyTftlOlKbkhbZB62S0c7aW7nlsnrLV/ggk4ipAVQSoS0C0TvT5rX+KjPyujIeTmXWUJXnrapHrqitRPqM+OOesZKye7ToFdNL3XcI7bumHGux1xamu9Flpf5thB1eEzrAIBOqUvavbfbU5Mp53ofLuOhnlFAt+v0OoInhR4XFl80dDnq7PF7W/TYsHTLc3IdPEdICwAtWWwh7aOHj5zBny3VKbmgweyFSZm8/KXc+vae+3VzKI8ePfJrki6zjvFy43MZ1zpnlQufyw3Xe1NKXh2z61eVK3ovX1c9CpYLV26nh86mFJmH7ZuVwa1rpW/VWtl0pLLwx2eLHCEtgFIipO1i1VPy+qp+s6PPKoeyr5BfANWTbzrqGSsHW+jN2RV0uMIXpG/HWfcV/5gfJV0HAHTKuBxwrvfh8qacYMMMAEgxc3KPHB5Lu6RvWg6vesZxn1EAQJrFFtKqBw/SeoL+KHfudD6YDYpOt6j0OibLD3fuuHul2nJH7rTSi7ZgHVupXydLK/MQ5UdIC6CUCGmBomoyenCdPPtcn6zfekiOnfF7cQ0dlV1b18krAzn3KQQAAADwWHm3qdgp5xw5bX1kJ/cRB4AWLcaQVntiugLA+S6t9ADt9jqWYR6i/AhpAZQSIS3QqrrMVPxw9siwHWpzqsqZHQAAAKD71GV0d78sWb5Wtg+cldGpqj2WH9y/Vpb29MuuMY7jAaAVizGkVb/++tAZAs5XefjwoT/l4rq9jmWYhyg3QloApURICwAAAAB4ktUqw3Jg60Z/qPy1smn3cRlluHwAaNliDWnVL7/86gwDO110Ou3q9jqWYR6ivAhpAZQSIS0AAAAAAACAPIs5pFXzHTJ2Ilzs9jqWYR6inAhpAZQSIS0AAAAAAACAPIs9pFXzNWxvJ4fn7fY6lmEeonwIaQGUEiEtAAAAAAAAgDyEtJ5Hjx7Jgwc/O4PCVot+jn5ep3V7HcswD1EuhLQASomQFgAAAAAAAEAeQtooGzTW2wsa9X2PI1js9jqWYR6iHAhpAZQSIS0AAAAAAACAPIS06XQIX+3RWb//QO6bEg4T9W99XJ/X1y2Ubq9jGeYhuhchLYBSIqQFAAAAAAAAkIeQFkC3IqQFUEqEtAAAAAAAAADyENIC6FaEtABKiZAWAAAAAAAAQB5CWgDdipAWQCkR0gIAAAAAAADIQ0gLoFsR0gIoJUJaAAAAAAAAAHkIaQF0K0JaAKVESAsAAAAAAAAgDyEtgG5FSAuglAhpAQAAAAAAAOQhpAXQrQhpAZQSIS0AAAAAAACAPIS0ALoVIS2AUiKkBQAAAAAAAJCHkBZAtyKkBVBKhLQAAAAAAAAA8hDSAuhWhLQASmkxhLR6AEmhUCgUCoVCoVAoFAqFQqFQKBQKZWHKfCKkBVBK9KQFAAAAAAAAkGe+QxYAaBchLYBSIqQFAAAAAAAAkIeQFkC3IqQFUEqEtAAAAAAAAADyENIC6FaEtABKiZAWAAAAAAAAQB5CWgDdipAWQCkR0gIAAAAAAADIQ0gLoFsR0gIoJUJaAAAAAAAAAHkIaQF0K0JaAKVESAsAAAAAAAAgDyEtgG5FSAuglAhpAQAAAAAAAOQhpAXQrQhpAZQSIS0AAAAAAACAPIS06X799aE8ePCL1O//LPfvP5Cffqw3iv6tj+vz+rqF0u11LMM8RPcipAVQSoS0AAAAAAAAAPIQ0kY9evhIHtR/joSJRYu+T98/37q9jmWYhygHQloApURICwAAAAAAACAPIa3n0aNHtkenKzhstejn6Od12uOs488//yz//ve/bdF/F1GGeYhyIaQFUEqEtAAAAAAAAAB++OEHOXPmjC3677j5DGk13Pv4449Tp90tdKhdV1BYtEx9Pi3/+McpuTA+EXn84cPoEL5ff/21vP/++zI6Omqm+av/aFKlUrGvu379uv1b5+NHH30sH7z/T/m6+m1kGnMt8ToGWg1p5zoP00pa/bA4ENICKCVCWgAAAAAAAABB4KdF/x0315D2xx9/lE8//bQRKIYtdEibVbfAL7/86gwHWyk3Zm/akPbM6TNS+/6HyHP6+YHgt8gKPjW81RBXX6ehrvrpp/ty7tz5eQlptYTrGGglpO3EPMwqrvphcSCkBVBKhLQAAAAAAADA4hYEbSMjIzYodQVucw1pNQAN9/rsJnl161S4qMGsBrRpIapOJ/gttD7hADYu6Pkc/FbzHYAGJR6EBvV1LTNhC1U/LA6EtABKiZAWAAAAAAAAWNyC4XU1pAx6ccbDwcUa0nZ6eF4d6lh70+rQx67na7WaDV8/+eQTWydXr2YVHhL5wYOfnZ81XyU8tHCRkHa+hjhOKwx9vPgQ0gIoJUJaAAAAAAAAYHHTIDAYajgI/+Lh4GIMaR89euQMAedS0u5LG35e66LnS/U3SbsvbRCmf/nll87Pme+i80blhbTzMQ+LlKB+WBwIaQGUEiEtAAAAAAAAsHgFw+YGYWAQugWhbSAtpNXXjI2N2cAwKPp38N4gTHSVIAh2BX3B+7JCXVegrN9BH4/XSe95G+8dnFe3cA/VH+7+aAPUf//7QxuyatF/X/9yNhIOppa7X8vVykX56KOPZXBoWN77xweJ+9LqND46/7H885//tD1q9TeJ/w4quB+tPvfdd3ca7w+GU47f8zby+MwVGfvkEzlx4qQMDg7a8r8n35crszcbr48XrZd+z/B3//DDD+X27du5Ia3OQ70X78cffdJ4b3je6WeHpxWE2K6exvrac2f/KX8f/l+57qhvcM9fDcB1ukrnldZTh/IOfludb3oPYld9W1EdOSq7dh+V01M1/xEsFEJaAKVESAsAAAAAAAAsXq5epK6A1BXSXr58uRF8aQimQ/QGYVjwXn2NPq7BmD6u/9e/tehzyhX0hYfzdfUkVUE9w+Fr8H206DQmJiYa046/NrNun11uhH9BeKoBoN5PVgPHkZHzjcDx0qXJSFiYKHdvy+WJcRmd+EymZ2/L2ff/IYODf5fRz6IBbxCm6rR++eUX5/dTQbD+r3/9Kz2MTXm88vGHMjj0nq33v//1H/P/9+Tvg4My9L+nbMgZvCco4e+uRb/3+NiEnQ9at6mpqdSQ9peffzHz/2LjvRrM6nvDYa9+djioDYLW+ONa9D6+75981wbL//n4kvwQek5LMJR08D10HuryE/y2Gtxr0X9riYffragOrZMlTz8jT9nSJ/vco1LjMSGkBVBKhLQAAAAAAADA4hTukRkOrIIQMByQxkPaIAzVcO7HH3/0H/Xo3/FgMXh9OPgNuELatLoFgjrGw0GdbnzaKpi+K/R11e1BvdmLNgj/Ll/+PBIcfvvNHRt8hoPBRAkC2jEtF+Wz2Tvm88blf4cG5cx/PpZvQq8NAkrtRarT1++h9dKwNix4/OLExci08kJa/Wyd7r8/Dr/vS/nnqQ9sSOsKRoPvrs/p9w0/p/XV30Dr4gpptX5p79W/9XF9Pjz0c9p30BLMn3+8NywnT5yUi1PfNILaIEwOv+/q9NXG/Iv/5t99911iuS2uKsdeDQJarzy/n5R2IRHSAiglQlqUVr0mtVrd/wNYCKbhUDPLIYshUHp1sy6zKgNAcbWp8zI6w5YTTxJzbD8Pi3S9JI0FPRZauKrSrlporjBWuQLScEgbvC/8fJ5WQ1qV9Z6s51yCabjq7PqseDAYDhLDJfN5P6Aduzgtt+7ek6+mKzI2dkE+mvhC/jH8dznxj3+ax5uhaBCI6mfq38F8js+XoIdt8LqgJAPO6zI5Ni6f/HdUhoaG5H8GB83nnfUD42YJntfevec/+sh7vHLd9lzVHrOuwDQowbyL11HrnvfeoL76Op1W8Hh8PthS+0bO/ec/8t5778kpM73hIa3rxzJ5zQt/g7qGfwf9t9bNFdrP1eT+3lBIu0y2jLAhW0iEtABKiZA2XW3suOw6Mi7OOwrUxuXw7j1yYsr/O2bq5B7Zd2bW/yukNi2nj+yR7a+tlb4N22TXweNyriP3LJiVE6Y+uzLKiRl9XU1GzfQPj6VN03vee61nxnyXXSen/b+SamNH0+dTAfb98foeGZbRlPlSHXlbXnluWfMgqOcFeeVgePrjcmBVv/RllANj5nNOvul8rlHeOCVV/xM7qTZ11iw7O2XTy2tl045DcmxkOjHvvHnuWH58+nz4N7Svj8xD87lnKhI/b+aa14eHxiVzEWxlmfXXi8g0HL9lsr6xkvHdM9npn5Lm4utYL0z9T1dmJfuweVy2Nw6y18mxxIJQlXP718rSxmuekaUvvy3n5mOBARaAc7scLsE2f+aU+Tu8zsXo8+H9g11Hj8po6jbHW2fD+6DWuPaF7u2hVZ+WY1vXRNfl1dtkMDT9YvuKYvsdlFvu8U7m+lCTqTPm/Ts2y0urNsoWXS4d+3+PLsfu9cTe72r/cZn0n4sfD0RVZXKEEO1xmdvyUU6jO56RVwY4+METYGZYtqxe0TgWeGr5GtkyMO1oL9RlamCb9C8PHzdsTtkOz8pg5BhjhfRvPS5Tjk1yvH275Ll1st11LqGoxPGNmfZracdf+p3MsU5P8Foz/VVvyjFXRYuqnpd9r77QHP5T2+s7zqZs/2hXdYsg7HMFnUH4FvTiDIe08eeKCN7jmlZaSBuElEVC5DxZ74nX7ddfH0aCvkRgGCpB0JjohRoJaJuv/3Z6Uj4ZHbeh6Lsn3m8EmK6eoHpf1Xidg+9x+vTpSLCpJahLPBj9/OKoDL33fiIMDUow7X/8439ldOScTF7zHs+6P2xQ9EILV5B87doXOe/9UW5fvSIffnhO/v73Ifv/ycqntvx3Ysq+V+f9D1/fkCuXLvpB8rvyz9NnZXziogz9fVD+8+F5uXLTm+dBWB6env47WE7Dy09nzMrpHRtNm29tyr4DjxMhLYBSIqTNMHVU+p7eLCccjZn6mW22AeEexqIi+158RracCe+aTeNj9xpZog2UrUdlcOS8nBs5K8d2b7aNvKUbjjobbMXVZMp+plcGd/TLU6t2+tPxipeTeUNxpJ9Q8Z7fHjqZrCdgnnp6jRxOCaSrA+vkqVePm3e2x75/w6FGPc+NDMvh3dvkJTNfet+Insyqndxs5uE6OVxp/ij1mbOyZeUz0n+kGSTbq4BdpXpWtj9nvot+qO2J6y5TR9bJkq3ncw+u6rVZewI0qPvkTHZPrBnzXZcsXyvbB8567xk6JOtN3ZeY+Rf+nnae7xj3/0qKnxTTv/t2DDfqcXrgkGx/zTTMe/pl11izRol5PXRUdm1dJ8/2rJD1Q/ETAW0ss9Xj8srTG+VA8Pn+b6knHZZuGG58R+150azDTrOe9cv2odBjmalxBjv9nTLq/+mFreHPNvU/uFM2rV4hS1btkdGMH8suQ5Wj8lIipK2b+d1nls3h0Pc3B/1Dm+X5ldmfCZRFfWa8uT6OmO2U2d+tPxj8bcqYf6HD2E6zfwivczH6fHj/YNdRs83bejZlW+ldIBHeB7Umvs4H28N+sy1bI/sq4amafbXZ/vaaujQzrJpM6va/Z5ucDh4ruK8otN9Bqdl9qF4dHzm+C0lZH6oje6S/Z5k8++o2Oewvm6cH9th90VPLN5rjq/jn6XKcvECobj6/V4+BQq/PDMnM6+0J8tdOpQeH6Jh2l48yy1z+gLKoDssrPX1m3Q1dxFk7L9tj7Utl7zto26JV77X1qkwOvCm9ibZyVQZfXZY4xjhn2hBPrTZtKP8RVR/bY94fnn5dZvz9Rur2JJM37SWvHpXJqv+J1YoceyM5baXt06Wr344EuLWxt83018lgO6t3fVx2xY6v6jPnZddqU6fE8R/tqm4RBKNpQWcQkAbhWzikDcLdVnoothPSpgWrQd30ubTwTYez1Wl9+umnifvOxr9vvG4ajmrI1wwvvfunZpVIMJoS0Nry9bRc+O+onDh1Rk6Y9wXhb9ATNBz2aj3idQu++8cffxINhU1JC2lnK2My9O7JxOPh4oXR78pHH47I5VvhxzKGcjbl3r0fnb/dxYveUMfp7/1SJscm5Lz5HhrS/vP0aS+kvXxdZuy8eF/+/c9T8l8zr8Yr16Ty+Yz/ebNyvTIug4NDcvb8eOPztK7xENrOjzNnG7+7zsPOh7XoBoS0AEqJkDaLF7ZuH/H/DBndsUz6V6+Rp158Wyb9xxrsSehwuOs1PmxDyXmWrCqnt5rnVx1Kflab0oPT9kLaPvNdlzgadSp9WsXY97sCybppHL8YHipkWg6vekbWDzlm4shO928RUx/ZJks2DOecrJyVw6t7M272r71h9GrnF6TX71l6euS8DNrepmvk2edSrryeOSr9etI1fqLefs/o99J53mpI6/pN9WICDRvO+ZVJnddTWrdwiNDmMpsISQPmt1utJzocV4Tb97h6q7YhMX33iW79fqe36omCnCDeVbepQ9K70rWs1WRwwzOy6WT20gWUT0Zwmhc66POJkHaN2X+mnXjsREjr3p7oSUg9ORls5uzFVs79xqwce7nIupy3r/AU2++gDOw+1BwP9YdD/DDH+tAIVkMXl4VVzXLY29MvByLLUXI51pP4fT19Zt2ITjg9JKvLObOf69u6zaxzG2WQBXDetbN8lF368geUh7brnRdem3V2Sc+e0Dqr5wbcxy861GWkXaHvdR5jmO17zzLZ1TjOqcmJ15JhsKoNbYwctxRWeVued26H/PqHh+GsnZLXl7svStfv1M59FfWialcYLLVhWR9pbxq0q7pGcF/TIkVfuxAhrXK9L3jMNf3Z2dlGIBsUDWknJyft40VC2vr9BzbkC4e0//73hzIycj61fPzRJ14AmhXQfvOlTI6b5ypfSuVzr5eqhov6nKvXqtYj+J2CXsvB3xMXovej1ZIW0t66PCFD756QD/JC2pMa0n4k03ea3z2t921Qfrh7L/HbaRD68cd579WQ9lOZ8HvABvNByw9378q/P/iHDWIvTN2wj+l80e9V/fyS/Pe/F+T9f51vBNpBXcMBd1DufPe9DeqDZUGL/t3+/WjRjQhpAZQSIW02d6NNG1emgVE5K1ue7k/0MLUNk9BJaXuC9sWdjaDMbdaGo64GWjvSg9P2QtpXBiqmAbnMWb/0aRWTGhwa5yInf7S38Lh7yErt9RxpRLtoYy/WMHXRhm1ag7hekQMvvyD9u8+766Fq3pXKveY7RV6iJ+dejvaYDdiepaHeozrPOxHSipyX7U83TwSkz2svlHhlyPuMtpfZ1JBWA5K1ZjkZTi4nCxLSGhrs5y0zjrpNHemXvrT1tF4z28qc5QsoHV2POhnSmm2L2c72Ok8gZkyrkIx1fua4vBSqq+0t7Oy1rxdxNLeHqbL2FQ0F9zsoBW8fel4m9/e5e4PH14f6ednS0yvbc37/4AKC5uFkbDk2y6728ooHtCp1/1/XY1Q9Ge6d6E4/7kOntLx8+GqVYdm+oV+etUONrpDelzfLgZHk7zV6sF9eP1mV+tRx2bL6BTsKi31V9ZS8vuqQ+VwdMnSj9PrDsC5duVH2NT6nJpM6RKs/nOoSe0FhxTzqoLe5MJ/T579WP2f7kPfaoA6B9ONPoCy8i4Cdxx1+O6DRm9SOsmWOYfw/I2ww2mxXaHvB3eby2+LBMYbdVq9NXsSraqdkU3j6BXnTPu//FWXD5N3NetkL1lzbK2VHEqm7n0vlHUO9NOAaqtkLpMPHV7SrukcQtGpoqSGmqwRhp752oULa+HNB71rXa4MAU+sdr1tar1wVr9v9WEibF1Q2SsGA9lvzd7znrKsnqNYj/v2DeX/jxq3o55uSFtLWPr8kQ0P/K6fyQtr/HZZzH34i18KP2d6r6T1p7zpCWnXhQpGetO6Q9ttrn5rf6T8y9N4/7PuD30Ff88PtGzJz654NbYP5FczL8GcEReeh0t9ff99gmXYtBy2Z0WMx/7hpg3tYezw+hLQASomQNpttuKyKXQmqjTD7mN/QiJyc8BomzcaGd3LM2YMwxgZjPRknu1uQHpy2G9Ka12tDUcPpWCidPq1i0oNDry5FrqCdOrImv1ekhgK5vW31N13m7q1bH5ftK3UoqiLfVAPMFdG6j+2RJU+/6e5dEaPzfOFC2jkss4mQtCl1OXEEoW1LTD8jsGkrpPXWeW/9qMtMRYdP3tPBe0sD3SgjOG0zpNXXu4OMjGkVkrHOm7q4e7XE6AlT3ddlpq8Z+4qwQvsdlEVzH6pDZTt6U8XWh8K9oGyYuyy03IeWYz+gfT3lXu1p+//wtINeTbn1wJy0unyoGfM7LTXbm+0D4zLjD5E+M3ZUXtehQs1nhT9Bf+uXtm6Tl1ZtlgM6bHYw7Lzdrm6UTa/1y+sDFRtq1Ovmc/zhUl8ZmpbR3f3eBYb+c9XKcW8au2MXFNpjXfP4hkNyeqrqD9k+Lad3r5FnNwzLscLHn8ATIB7Katshrc3rB6r57Rk/FA5G6opdQBblj+rV4jFR9CLnqPjF5BraBq+tTY3bkaF27T4qg5XQ0M8t8dqUaXXW6TXborSrukU8+EsTDK2rr7tyNdmTNQg1i8h6T159wqFwUCd9LC4rPG4lpA2HfEFQGe7h6iwtBLT6WDgAvnXrtjNc1RKut+6jg4DaFbamhrTXP5OhoffkZF5I+96QfDgyLrfCj+V8dw1Ig2Uk/Nvpe7Lf64W0n8Rf980Xcmn8gox9eqMRvAYhbPizbnx5VYaHhuXK7E0b5OpnpAXCYTo/g+XEtQwV441eowFtUDg2WliEtABKiZA2h+MKVr3iM+hda0/IRO71NS7be8LDH2pIlj8copV1JW2LUgMx80jbIa1h7wkb6e2RNa1imie1QvT+Pkf0/jiHZNLVQqxNe/cbPHNcdr3WL8++nPK6Bu/AKTd41CGJQ8MDN2n4vsLMh+b7Gz0Z9ECsR3sWzJo6r232MNCGfeSkqAa3y2SJ3it4yr+PUQqd5+4w1RM/KZZ2kqw+stMOd5U73LGeBG4MPzWHZTYRkgaCXreO+Z8IQucgMf20wMYsDztiw5K5JOqm64eZNyMV2Wd++/7Xdsqu3Xoyw7uHcvi+u8CTQ9ejlBNucwhp3UFGxrQKca/z3r3LNehybWjqMjPm3Sd08IhZl5/ztueZUvcVYQX3OyiNyD5UA/h4b/DY+qAnyosNFRnveeQvxxWzPzbrSPjYI869//cutmpcRGD31cmRX9BZrS4f3m0wkhc/Wv4tP8IX+9ljQ9coJ3a7qstBcjmxt714sVf6dziOd/Si08jtWbyLT9LuGT4zoIFyseNP4EmgFwGH2/lem9cxKpCV1uaIMe3D/vB6p9uF1ItGY+1y27PVXZrrrN/WTxsNJHZcpuvwpqGKnHjDtKdf3ea3a3bKplXaZjX1Cm0MUu+9H+ntqvMhPJxzVLQtSruqWwShZF5IFQSE+tpPRi/4jybvV1tEPAgNywtpgx6yWt/gc1rpKauCOruej9ctHPAFAaBrKN1G8QPa0YmpQgFtUIIQ9PLlz1N7gqqgfsGQzfo9XXVJDWlvXLYh7Ym8kPbdIfnPyLjc9h8r8t31fVq3+G8XBKuu4NkrX8rEfy/ZOunr9PX6+I3PJuy8qvrfRacdzJ/gNVqC3sHnzfS1DunTSR7hhJen9uh9wJsBrZbUEQLwWBDSAiglQto8XkOneRLZb0wE+297YiR0EkaDuUTPwgINNmuuJ6ebvEZk50Pa4ARO+ERQ+rSKse8PHdA0DmxeyxgmZOyQ9K3qN+UFWbJ6sxx2DAsXYe+Bk39PttR77+jJtlDgau8xt3xj6B5zeo/WtdK7MjzvxmVXT/weP1U5d3CzN9xcjzZG98ixoCdEiD0R12JI27dj2AuubRmWw6Y+S5+ODo9o5/WGQ6HXnZVjuzebZTb0m85lmQ3Wh0ajfVYmTV32vbwi0dBvaGl6OexnhQMjrV+/bNceJ8F3HjoqW0x9nlppXpe2fAUSddP1Y62sf+1NOZxYOGflsFl3OjVkOdA9MvZN8dAhLnYyMLGO2p6m4dBhrvtB7/2Jfcpza2RX6n6iak9O6j6ld3mvvLJ7OOVe3E2F7tNWcL+D8oieXNbloE+eD4dfkfUh73grKrrf1+V4mSzpeUZeOlhxBmaB+PGAZcO/8LLnXTBQLDBGu1pbPrztSOowo8aMBkShQEh/6/AwpQ1Zx1H2YlOzTQ167UXEeunZ12aF+d7r48efRZdxoFSqw3YUg/BFq/F1PMrbbqeFkx49kb9MesPb4vhxUoS/H/EDVx1u3Gv/JsuBxnSTbfkInV4oFNZ1eP2GbY6Romr+Ba3BNmpcDjim6xUdbj2g8yG9XWfnYWO7RruqG4SDV1eP07gg0Dp99l/2vYGgN6J+Vvz+nvp3/LODz9HXhz9H5YW0wfN6n1Mtrs9QQZ3i4ZvWR9+vz7lC2njdwgFf0ONVw0oNA+Nh5Q93bsm5f52VT8YutxTQaglC0KC4eoKqIGDWOmrR0Db+Oi2pIe330/Lu0LC8dyo7pP3fob/Lfz6+1Hgs+DzXd9d/a3iqz2md4r9d8Jn6vM6/b7+503ivlm+/uSL/OPG+vGueb/SQvXtdKuY9n93wXqPv13BW7wccD4p/mJ6UEyc/kLPnzss5U/S1wXP2efPaL764bv8fFw/l22HPDwbtzuXmGDxlG4jHg5AWQCkR0ubTnrNLggaZngiJDEmsQxY1h6izDY/wCRd7wqNo71ht1BTswZjDawDNR0hr6HfqMY0v/zulT6sYZ4NXe9IOvCm9RYK0WsU04lZI38H0GacnunJ7TdrhBtc4h7jUexM3g3rt/RVttFvOQC+9kVqvTsu5gT3OK5V1nqefBEj+Jvr3842rn71yYOC8xEeKsvN69ebI63YdGZbJ8A1257LM2nmwQnqDRruG0S+uk31nphtXoSdknVxslf2s8Prp1e+VraHvu/uQHBvJqE+Y8zd9xixr7hMGdnh0hjbFE0fXo5QTfrHQISF+8jGxjsaDjIxpFaLvT25P6jPnZdfq6GgIaapmPe5d/mbsApuQjH1FWKH9DkolebyixwOhe85G1gdvGEf3ffmS7H68ceJel+O1sn3HOlmiJ3oylrXEMZphw73IKC+GqVuh4b7RttaWD6/XRWbAGdu+un5ry7FdbXJvEz2xY357W460z1H+/bpjx5+Z3wEoo7pp32uYGhsO3GvzttuTti5TR8w2fWXsolVdz4v2pC3Ee08rPWmfeiPlYpEpHe45fsFxHp0PrfSkpV210ILALy0QjQsC0vf+92Qk3AyHvVpGRkZkYmLC/t8VgAWfo8/p9LVX6OXLlyPPZdUpCGBdnx0Ih5nBNIL6fPrpp7a++ng8pI3X7cKFCbl0abIR+AW9QoMwdWTkvIyPTci//3VahgYHZWj4hMx8Gws//YB2/NPrzoBWSzgEjfcU1RLcTzVcPy0aKutz4ddqSQ9pr8t7hULaQfnwv59FHo9/948/+sSWoM5ffVV1/nZaPw1Ig4Bbi4atdr6Z///jH+/K3weH5JyZz43wdeYzGRu/IrP+tMMhdmLYZL1v7b8+kv9NeT6Y9qlT+nuNyNjYmC3B8qFhf9qyVlh9VibHCp5nwrwipAVQSoS0BehwYH4DwQ73GwvPmj1qvBNy0aEbvavOE/elcmmrIeTmNSLbCWmT95FxnYCpDplGpvl8PW+YPq1ikie1mgr1VlK2x1LavNPfID/8tvdv2zDsOKjS90eHpdLvnvi+djjB8MktDfCjQ2W7eUMBh7+nbTCnzBMVv9dQ0ZNkWfO6aQ7LbPxEoXm+/2lHoB2WCELnIHGiMu+ESY5E3bwTlK+nzZvME6VAWel61GZIG79/m2sdqY/LrkaQkTGtQjLW+RZ6tmbte9L3FWHF9jsoF9c+tD62p9kbPLY+5PWUbPLuUdgc2jZYjoOT+tvkdMp+LLn/12VvmWwJgsEG7/H21y3kaW35yDseN2LLU+qxXuaxR9ZxUCwAytueG+0efwKlEQS0Zl1ObLsL3JPW3e4LtuVm/Yp/aO49afN65ybl35O2GTTrxei9KSFp9vYjTf49aZsjAtCu6gZBL8JWhnrV1w6/+14iHNWg9vbt240gVIuGYBqIxnvXKg1HNRwLXhucEwxCyHjQFxYEsK6QNUynq2FcuD5axyBUTnt/uG4a7Gkv0XDod+e7mg1um4HlSXlv6O/29R9fuCK3Q71of/j6i9yAVks4xIz3FNVS90NaFYTUwTzS58Kv1ZIe0t40dR2Sd09kh7Tv/n1Qzo1Gv7cW7QU7MXHR/95e0b/18R/u3nP+duH6adgaBLtB+fijM/LRh5/ItdB0areuy9WZr+WH4G//+7gCbA1pz398UU6a55zPm6LT/eTjTxrLghZdVnU5dvXERnkR0gIoJULaIkwDpUd7FnoNiUR4pSHuqqMyZUO6ZFBoezTkntD1Gy1vxHo+tCkrONUTKun3SEjej9R9AsYbrkl7Jc1kTKuIzOAw3BiunpcDu0+l3JsmvRFZH9lm76Ob3elpVg6vdp3UNGyju9lATK2vLgfhq6v1feGrf+19hNyN0PjvZf9OPbHrNX7j9ykrcpIsc16HtL3MOhrT2ktOv1vq/LfvafUEQIrE9Ns5uRDiqJuezEjtGZV5ogUoK12PUk642XUkdt/FkJmBtdEefY5thGoGGRnTKiRrnQ+fOKzL5NAeOTzm3sqlbysz9hUhxfY7KBv3clGX0d1+b/B4yJUYdjiFHj/0hHtvh5dj8/k7zH40ZWSRxP5fP8usQ4khv/1C7+750+ryMbp7WeLCzzB7QUjo2DD1WC9lu+rJ2ibGQlod3jXzmMm7mCBch6LHn0Ap1MZln9nH95r11bnZ9o/zz/l/RoQu6o6qyej+NTagPef8UG17p4xgZNugrV/AbY+9zHdwiV+EZnurprzWq1vWNsFNQ2J3W8m7oD3chqVdVV5Xr9/0//Xke/Dg50Tglyh3v5TJsQn57OqXUrH3o/3cDndcNKAtUrQeaQrVsVF+lKuXxuXi1HeO54LynXx+cVwmr7meSy9pdcyvn86/TyMhbUvl2qcyeuFz+cr1XKhkzcO5qo4dlwO7j8rp+HB2eOwIaQGUEiFtEV44u2nolGzvcZ2MHjePmwbMSQ3pHGGlnnReGb2Pa5x3DwPzGR06o2tPFLnqYtgraFe6hw7SejxvvmPz/oBZJ4X0Xj3rZPsO0xBMmVYRWcHh1MH+0Al+nc+hYePC7IlQVyPWOwG1fij7QMl+77ThlPTk18vNkNHWNxGg1u19e8Lfo37mzWgjWE/aO5cfP+wMnzi1J2xTGuX2ZNyayFCbnQ5p215mXScK66aB/+KySIM8wr6n9RMATonpZ52cLMBVN/1tVh8V1y3bplxDTAKlp+tRWnDq9fJwr9/e9rf/SGg74tpGWEGQsVNeT51WERnrfP2s+ezmRUjBfjK5202/f2fmvqKh2H4H5ZO6Dw16g+94MxLC2eV6R19j5BEnu7/VfXh4fxtfjv3PcdzbPb7/19szpPUC9wLc9IsqMDctLx9Zx3q6bbXLRfi3TTseT9uuqqzjoFhIa45eBjc84+5BaGiYs8RsnwvVCSibmWF5feUKWX9k2rn8e/wLtRI9P3UbbdpyifV/Vgbf6JOlG/Ribv+hBO+Yw3Xv1eA4peU1TNvFrjan7m/iIypoEJzSPrXrfO4xT1JwoVqirUS76omymELaX3996Az8IiU8NO/d23J5QoPZKx0LaLVoPdIUqmOoXKuYel2uOp/zSlUuX7gglRnXc+klrY759Xs8IW3WPJwLO9Kgf0HkU3kjyWHeEdICKCVC2mJssNmzTJY4GwpeiPv8i73pPVRNw2/98mXS98ZxmayGWkH1WTl3cKP09vTLrpHONUGyG3U6vO4y6Y3UpS4zY4dsHeP3sMk6AdM4GOl0SBvck9Yc4Owaa84vO72edbJvbLbRgK5X/aueY/cNsuwJsGjonOSdlIoECWGxnrQydcj8XqaB2TjjWpPJIxtl/av6PfwrkbURvCp+4m1aDr+8zDbUJxuPm/mu9z9MHMj5J2RX75FzofvF1qaGzecmv2vHQ1rVzjKbcqLQDhOecgLA2WBvV2L6WScnC3DWTa8Cj68/Zhnwl1cOyPHk0fUoPTi1F2z0rDHbg+Z2WWrTMrijP3nvtZRthGWDDK9x29mQti41e09asw8Pj3bgT69363Do/t11mRoy67LZxieHLMzZVwQK7XdQRln7UNsb3J6YiS/fs2a5WSFLVr0pxyrV0L7b7P9HzHHXSrOf3R3vteVajmflxBsa+EZP9kf2//Z+yVnDbGvAwAUE86X15cM71ntqpS4bzd/Eu4e2bq+i4f78h7TGjPks097pN8tk8/DTO8bp33BcjsXqQEiLJ0H1zE7p6+mTLSdnpVrTkY9iJbTN9do03jGP9/ysjJp20dL4cUP1rNdm23pKZqqxz7Ml9KHmuEHbEK8PVPzpV82xiFencDu4OK+t4rUj/enNjMsB3Rc57qmrox5F25y6f9oj/WZbkHqRbSbvIhOvreRNv5rShg3qSruqfBZTSKviYV+8zHx6QcY+u+n9Xftebly+KKNjnQtoteRxvSetfHV5QkYrXzqf84rXM/jyLddz6SWL6/XN8nhC2vnhHU+FR65JvWASjwUhLYBSIqQtyJ4AST8RYYcKCvXQcarPyumDm6V/eWgH3vOC9G89KqMdPr+RHdKqqpzbv06e7WnWZenKjbJvJPmO7BMwXuA755A2mB+NskJ6N+yUQcdlx9WRQ7Jp9Yrma808fGX/ecf003tDReQOR6gnNfvlcOgS35mBzXbeLV3ZL88+t1a2n5k1kxuXfatWyLOr+qV35WbzesdBYF2Di9h8X71Njjkvr9YG6rbI8rLkuTWyZSB5hfe8hLSq1WU29UShd+Bqh/vzH2lwBqFtSkx/PkJaZdafyHxZJs+m/o5A2WWHtKpWOS5bYtvl/q3Hkz1HUrcRHq+H/lxD2mC9bBbddm466NhPtLJNLjR0bcH9Dkopex/qB27O5VsvyIodu/j7jcNjrh1U2r7LO+YKh3fh/b+O4PFUTq+norczQOvaWz70wpCd8spz5lg6WDaWu7dXjyWkVdXzsu/VF0I9QlaY7fmwXebidSh6/Al0L/dxQ7jEl/HqyNuyfmWwPTfb8leTbVZdN+KfEymxtrN3HNVc75au3iwHHO3y4rStv1F6g7aKtpd3DKf06E1uh9LOCxRWq8ixrWuax1cp2zUP7aoyWmwh7YN61nC9N+Wz8XG5eHlaKhcnbDg7On5RLl252bGAVqefJ7uO0XJnelJGL33RuN9rotz9Qi6NVeRq6N66eSWvjtn105C2ItNffyfftFOmK7khbZF52C4dGS/Yfuo27PW2LnBBpxDSAiglQtoFovcnzWt31GdldOS8nMss03M+0Vav1UzTrHPqM+OOesZKye7ToFdNL3XcI7bumHGux1xamu9Flpf5thB1eEzrAIBOqUd7h8xZTaac6324jId6fAHdrtPrCJ4YepzVVcsGyyoAwG2xhbSPHj5yBn+2VKfkggazFyZl8vKXcuvbe+7XzaE8evTIr0m6zDrGy43PZVzrnFUufC43XO9NKXl1zK5fVa7ovXxd9ShYLly5nR46m1JkHrZvVga3rpW+VWtl05FK8fN8mBeEtABKiZC2i1VPyeur+s2OPqscSu2RtFCqJ9901DNWDrbQm7Mr6HCFL0jfjrMpVwBjXpR0HQDQKeNywLneh8ubcoINMwAAAPBYLLaQVj14kNYT9Ee5c6fzwWxQdLpFpdcxWX64c8fdK9WWO3KnlV60BevYSv06WVqZhyg/QloApURICxRVk9GD6+TZ5/pk/dZDcuyM34tr6Kjs2rpOXhnIuU8hAAAAAABAiS3GkFZ7YroCwPkurfQA7fY6lmEeovwIaQGUEiEt0Kq6zFT8cPbIsB1qc6rKgCYAAAAAAODJthhDWvXrrw+dIeB8lYcPH/pTLq7b61iGeYhyI6QFUEqEtAAAAAAAAADyLNaQVv3yy6/OMLDTRafTrm6vYxnmIcqLkBZAKRHSAgAAAAAAAMizmENaNd8hYyfCxW6vYxnmIcqJkBZAKRHSAgAAAAAAAMiz2ENaNV/D9nZyeN5ur2MZ5iHKh5AWQCkR0gIAAAAAAADIQ0jrefTokTx48LMzKGy16Ofo53Vat9exDPMQ5UJIC6CUCGkBAAAAAAAA5CGkjbJBY729oFHf9ziCxW6vYxnmIcqBkBZAKRHSAgAAAAAAAMhDSJtOh/DVHp31+w/kvinhMFH/1sf1eX3dQun2OpZhHnajn3/+Wf7973/L9evX/UcWJ0JaAKVESAsAAAAAAAAsXhruvP/++4ny9ddf+6/wdGtI++uvv8ro6Gii/vMZWgXT1KL/RvvKMi8rlYoNQzUUjfvhhx/kzJkzzmUuCFH1/fPxXQlpPYS0AEqJkBYAAAAAAABYfIJwxxU8aUCroVLYXELaYFrx4Heu9PNcgaw+3mpolVZH1+PdHCzO17zuhMc9Lzs5L/QzdFlzfZYua/qc6zsEAa6+bz6+a/AdCWkJaQGUECEtAAAAAAAAsLgEwU48iM0yl5A2HFR1ShB4tfIdsqTVcT7qPp+6ub6Pu26dnF5WGKrL4CeffGKf19eF6eu1DlqX+UBI6yGkBVBKMzduyuzNW7bcuPWV3Pzqti23blflq+rXttz++htbqt98a8vX337XKN98dydSvr3zPYVCoVAoFAqFQqFQKBQKhULp4lL59DP54IN/2nN/ruc7XfQc5D9OnZLpa9ecz7dTtO76HT7573+dz7da0uo4H3Wfz9LN9X3cdev09HRZ+/DcOXtePHgsWA4vTVac03K9p5MlmL6u067nKY+vENICaNn3tZrU7t615e4PP8gP9+7Zcu/HH+XHn36y5af79225X6/bUn/woFEe/PxzpPz8yy8UCoVCoVAoFAqFQqFQKBQKpUuLnu87+69/ycWLF53PZxV9z6n3328U/Rz9PNdrgxJ/j5b4tNv5XC36vn+ePi13vv/e+Xy46Gv0tcE0tOejnuvU59LqmPZ48J74Z+jf33z7bWQ6V69da9QhKMFvELxGX1/9+mv7WPz18ToE03eV+Gtdr4+/pui81u+p3y/8Xldd0l6XVTf9fzAvw/92fW7wXNp0gtdnTU9L1vKQVvS3iS9vt776ys5D7SmrnxGeRvA7h3/T+PcL/i6y3MS/c9ZyoyU+D+K/dbwuWoL5Ev68YLrh7xb/7PBzi7UQ0gJo2Y8//ig/mQ2zlvv370vdbHC1PHjwwA6VoOUXs4HRokOIaHn48GGjPHr0KFIAAAAAAAAAdK92hoANhlSN30tTh3ktMpRr2jTn+rnB+9PuBxoIph8MCauviw+VnFbHtMf1veFp6t/xeuh74vcxDT4vPO3w94jXMfx5+rqpqSn77zRp9Z3rvNbPCw+pG3xe+LG07xbUuci8dM0zFX9vK/VJ+6z4vA7X28X1eeG6h/+t8l4f/N3J5UYV/a3188N/K/2ceH2Cz9PX62P6XPz5vOVyMSCkBdAyQloAAAAAAABg8XAFRyoIhoISDmHiwVJA/9bHw8GRS9o05/q5gSBYitdbpX1WPKBKq2PRuuvf4c9TrmnH3xcIphOEbeFgrBVF6xtImz9FxD8zbRqBInVLq4/Ol6zPVvHpu6aX9vn6mvjvFxd/b/B38JvFP0Mf199Qf8tAvI76d3y6rjrG3xcIvmNQB5X22vjnBstY/L16f9dz58416q3fK/ge7S6XiwEhLYCWEdICAAAAAAAAi4cruIoLhzxBKBMOcsJcQVSca5qd+Nw4fY8GteHQK+37xh8v+rpAPAhLC8aKzsv4c/p6fV/4uxThqm+n5nVQpyAQD4fiwTTi8yms6LyM1yet/ln1Ua7ppdUh7fE4rWtQN32P/lv/r8LzIKibvj4s/l3jfwfCj6d9fxV/Luu1Kj5vdTpBHfUxDWe/++67xvdQ+p6gLsH30nkVfG94CGkBtIyQFgAAAAAAAFg88kIcVTQgUhrkhEMfF1cA1onPdQk+N6h/MO1wkBcuQZ1cdVRpj8fDtfjfgaLzMu05fX9QV/13nvma10E9wp8R/m5p8yms6LyMv85Vv7z6KNf0gseCeRovWfVX+ry+Xz9Hpx2ul05Xp6/1yPo9w3WM/x0IP571+8Wfy3qtis/L8N/672CaOn39jOA7ub5HMM/03yCkBdAGQloAAAAAAABgcUkLhgJFAyKlj4dDHxdXWNaJz00Tfq9r2i5pr0t7PD4P0+Zp0XmZNz+CemT9bmo+5nWReZD2mrCi81KFH9N/awkU/RzX64rUM0t4XsbrpYJ5eevWLTsdnV5YvI7xvwPhx1tZblr9rcPzQ6cZvE//1unXajX7+vj3CATvd32HxYaQFkDLCGkBAAAAAACAxSUIVtKCnKJBkv6tj+vzWcJBUNhcPzeNvi8IouZax6J1T/su4ceDurhep5+vvRLTfhOlr9G6aJ3SzMe8dn1m/Lu0+znKVbfgu2rYGQ8Ji9RHZb0uq5559L3j4+O2XvHvotPUxycnJxPfScW/q+u7q/DjQZ1dr9Ppx5ebtM8MPkefDwSPTU1N2aGOg/kcfA+9P63rs8KC3yp472JFSAugZYS0AAAAAAAAwOIThDvhwEYFoU04mAnCrnhYo+8NwtAs+ry+Lh5AzuVz9bmPPvoo8RpXaBU8pv8P6PsuXbrUmG5aHdMejwdh8b8D8cdd8z2YD+F663Q1OAtLm0ZYWn3nOq/1NeE667+1vnnfLfw90urm+l76b33sk08+STxXtD5p0yuyPGTRz9P3u4LJYJrx+RCIf1fXd1fxx4suN6rV31rfOzIyIhcuXGi8Xv+v749/tr43a7kM3hef9mJASAugZYS0AAAAAAAAwOIUBCoaxISLK3xyvbaVICYImbSEg6Z2PzcchoWLq+4qPP2ghEM6lVZH1+PhYMr1d8D1eDhc06LP67nZcKDo+n5F5ovq9LxW8TprPV3fzVXv8HwuMi8DOo34+wNF65M2L8KPB8U1HZdg2mnzTqeT9nnxOqZ9d9fjRZabgL5Pnw9eG7zeVd/gc+Of4Zr/ectlMN20aT3JCGkBtIyQFgAAAAAAAAAWVhB+FQ0KAXQXQloALSOkBQAAAAAAAICFpeGs9mbUXo0AyoeQFkDLCGkBAAAAAAAA4PHQIWTjw8pqQKvDxsYfB1AehLQAWkZICwAAAAAAAACPR/y+olroQQuUHyEtgJYR0gIAAAAAAAAAALSPkBZAywhpAQAAAAAAAAAA2kdIC6BlhLQAAAAAAAAAAADtI6QF0DJCWgAAAAAAAAAAgPYR0gJoGSEtAAAAAAAAAABA+whpAbSMkBYAAAAAAAAAAKB9hLQAWkZICwAAAAAAAAAA0D5CWgAtI6QFAAAAAAAAAABoHyEtgJYR0gIAAAAAAAAAALSPkBZAywhpAQAAAAAAAAAA2kdIC6BlhLQAAAAAAAAAAADtI6QF0DJCWgAAAAAAAAAAgPYR0gJoWfeHtL/IT9/fk5/9v+bVL/fk7uOa1kK7f0uujH0hd/0/ke3nG5dl4mrN/2sRuveFfHhyQr7z/yzqu7EP5MOr9/y/AAAAAAAAAODJREgLoGXzEtLevyVXz5yUd479zSvv/keu3qh7zxX1y4x8ePiP8pvdb8lWv+w6/IFcd+Q93439TX7/u+brtv7uoPxlZCYUtlbkL43POShnb/sP+366+oEc2ht6vylp03pi3P5Afr97wMwZFFE9eVC2Hl2gufV9RU4E65KznJQr3/uvnSffvW++v1kv3vnUf6CQy/KOrk9/ONNyuAsAAAAAAAAAZUJIC6BlnQ1pv5crg0fk0LsVuXnvF38Kxi/35ObFk3LoT+8VDJOqcvYPb8lvD38s1fv+Q7/UZOLoftm696Rc9x9SP3/6N/nt7v1yaOSW/KST1GmN/U327H5LDn0SpKzaG7cmd6+cNI/HQtobH8he8/4DJ6eavUrv35JRM63f/OGMqckTipC2JQsa0tpezxMy4Zf/OfCWbD3wXuPvibHLzfVk3tSkeqPWci/zn2/fegx1AwAAAAAAAICFRUgLoGWdC2l/kMn/7y9y9ob3uT9//4VcGflAhk9+LFeu+uHOLzNy4k9/k0peD9WLA7L1d0Nyxf+zyesR2+zNV5OPDrwle96d8f9uunvmzzbQven/bdlgMhrSVo6+Jb/962X/rzAvKP7LRf/PJw0hbUsWNKSN0WW2W+oCAAAAAAAAACCkBdCGjoW0lb/L4Y9/sJ9Zff/P8pvdB+UvJz+WiZEP5C9/eEt+c8DvlXpvTN4ZnLKvS3P93f0pIZQXnO59/1vvz/tjcmj3H+WEHwxHfP8f+YMGst/4f6tESDsjw2+lB7EazP32r+l1/W7kHdmz9z256v8duH7yz7Ln8Mfy3Tcfy6G9f5TheNp8/QPZu/cdGf1qSob/oL2A/e8TMPPoL28dNO+7L1ffPSi7zGdF7x17z/Yq3vvulFTz6uD/nRAKae9e+Y/85cBef2jpvbLnT+/J6I1Qkm7r4/gevp/H/ia7gt83gzed/Y0hrH+794j8z1jV3Tvzl6pMDB5pDmP9O/N9j/5HrsZ7Yn/zHznw1ntyRb6ViWN/lt+a10Z+z8Tn/FH+MDgh34U6ejd9K1dODshe/7W/Cb02LaSdl++UIzWktfPiiHwUXuYbvpWP/rRfDpxpLmvfnTkiuwYvm/dNyEDj9zff2yybZ+P3kW3M5xDzvv/5U3NI8t8eGEjcf/bKYHSa1vczMmp+q12N+fxn+csZrye78/UAAAAAAAAA0OUIaQG0rDMh7X357//5u1w2/5brJ2XP7wZkIpLVaKi4txF4Xvnr32SirSFQ/VB1zP/zxgeyJ7U36JQM/C4W2CVCWsdrQmwwl3k/zVtyQodlDge5dhp/bgRl9jPeGgqFqF7Q/Ac/iPppbEB+G3q9SF0qoXkl9ybkL6aOwevVzxfNexqfmV8HJz+kPTtyRHb94W8yerUqd3VI6NtfyOixg/Kb3fvNfAl+xLpMHH5Lth4ec4SP38qHKb2Zw7zg/o/yl5MVuanTMUWHwD5gfs/fHq3IT/7rrHsVeUcfP/BerF5/FHtP4XAob7/HETl0eK/8/ugHMjo2IdeD0NN8zl/M5+z600mp3PCmefdGRYb/tN/8Jma5iSyjt+zvsnWvmScXb3mv/f6WVN418+etv8nZd5Mh7bx9pxypIW1i+Q7zlrvfn2xG6XbZPPBn+cNbR+Tslar8dL8uP+l3HtTvtV/e+TR0H2l/eWlM9Z5eIPGW7P1r8N2rcvXkEbMsR6evdQ1PM/hNXPPhNwf+I2fjrwcAAAAAAACAEiCkBdCyzoS0n8nR/3PB/vvqX/fKLldg98s9uXvPD33GBkJDFrdAA2ANH4MQTodF3v03x7DIyjFccSLESh8uWV0x32XrHz7I7iF6Qz/zjzJsb5T7rf28ve+H3+GFqME0dBjm6L1uvQBbA1Ab6l0Zkt++Zb5TKMT2gtx3ZNSGilMy8FYsQMutg4OdF9rD2f39bIBnptkI0z819QrP+8A3/5G95vEPswJh+7sF9YtJhNDNQDgScvoSobf/PX5/8pb/QOCejJrPSYSlVnOeB6Hz9Xf/mLjfceAns5ztMtOIBKPz+Z1ydDSkNa939US3y/6B/zR7cMdDWl333orPr7o3z0MXDERDWm/ZTJ8PGg4T0gIAAAAAAAAoH0JaAC3rTEg7KYf/z6T9t4Yyhz4JBYguFwdSe6+m80KmSI9RDYpSQ1Tv9Y2hkZUjxPr5k3e8oOp6dPzbu2MDsufAn2VPXkhr2IDPvO7qyDvyG9frbaBnpnHlYzmk04+HYrZX4l75y9hlGd4b7sEaCALHCblipuUKHnPrEGfnxV4ZSA3LL9texs3fcsbUzczP2FC0N3W6obDTRYP7rNfYzwh6LNthqve7w09lh7gO3Zc4+E3jIXEw3LUzsDTMb7JLg28bQns9qtOXW6+3cDgYndfvlKOjIW1aT3G9WCAcysZDWvu8O+ANi4S0efPBX+YIaQEAAAAAAACUDSEtgJbNR0ibG7K0HNLek+s63Gysh+nce9Iq/WyvB99v3/qzHDrq3TP0N394T66MDclviwSetnfrW6m9EtXVv+43z+u8iff49GgPW3tfz6MTzl6G2mP1D+b5rYmhpAP5dYjwQ7cJ/0+XCfNbhntF2zruPSk3/b+9cDMr6FXfJsLBBPs7+gHgp39r/tspFjbGw8OA/Zw/y/+MTciEq5zR3rH+svDNGdmbWC6iovdJnufvlKOjIa3rc1R8vibm8z258tc/mu+1V35/+KR8eOWW/OS4z29ke5A7H7yeuEXnAwAAAAAAAAB0C0JaAC3rTEh7W878n/fltvm37ZkaHibVd3fkHdnz14rteVg9OZAZiEUFAe1A7B6iRoF70kZ6J2aFWPe/lesXvQDv6o17Xg9JDdoc3yXJv59pRtDnDS2bPgyxDqn7Ww1pj11298707+WZCKob8usQkRZuhmjAFum5bHt8hkJZHQI5Etq6FAggw4Fm+N9OBUNa+zl/lD8c+5u8k1pOyhUdvjlrufBVT/4xFGjO83fK0R0hrefn77+QiZN/kz/s3esNVXxsItIzNxLS5s4H78KAovMBAAAAAAAAALoFIS2AlnUmpH0kt08claEvH5lP9MLCPccm5OY97VpXl+rY3+xwv94wvzMyfLRI8KlqXm+9twZkIn4vVGtC/rL7j+6eo3Zo1dg9VB0h1s83LsvE1Zr/V5QGc87768ZU3z9o7+364dH97lD3tvbU/LOcOKNBrKlTfGje+5flnbf2y8CZD8zrzP8TXYPrcuXYfvntX/9j728bCU59uXWIs/Mia+hZ8zu9pfdVjc4be69SO8yvd5/V+PDHLleOpYSKPttDN+ixnNur1RsSt9FDOiU89D7HcQ/dwC/35O73fhhvPvOd3bFe1xFeD8/wd5jX75SjvZDW+z07HdJGfD8l/6PrfmidiYS0ufMhWUcAAAAAAAAAKANCWgAt61RI++inz+T/d/B9L5SSb2Vi8Ij8/q39ssuU3//pPZm47Y2FWj15RAY+zblnrfplRj780375zYGTct05vK/ygsJwKBTw7rcZG6rYFWLpvTV/N+QYMlnvwZo3lK9hhyH2P/PehPzldxpshoPLb+WjA0EP2nsycXRvIkTVoZCDHrS23m8NyVXvKY/WMehBe0O/QyzIza2Dg50X6cMr/zSWEijb++u+I6O3HSF4Gu1x6/osyxumuRnMefd/dQXRyoafvxuQStCbODU89D7HtWwoew/f0O9gw+e0oa3td44Fo/P5nXKkhrR+7/EDI44Vxv8OnQpptXf7rmMTiV7ftsdx6F69kZA2mA9mms5lzt4fmpAWAAAAAAAAQPkQ0gJoWcdCWi2z/5ZDh0/KVWdwV5Or774jh86478ka9vPtj+3Qvr89+rHc/KYmd7+PlXuhkFcDzN375cDJKfnOPl+V6/Z+o/vlnXgY7AppxRsG9rd/+sDU2wuSf/5+Ss7+qUiPVC+ADd9n1gs335FRPyeL9KhUfoh66BP/BTYkDt9n9pbtLdsMFzXw2yt/GWsGbzZc23tSvE6w+XVw8kO3gcE/yq6j/5Hr/ndv9nx+S/Y675/rh597o2FctntS0R6+bx2Rs1dqjff8fGNC3tn7VjIcvaE9is00jk1INQgufzHLz8kj9rf+y8XQF0sNaQ37Od6ycTf4eo3PMctBuAe2P5x0eDkI5sXv9w7I2cF4oDmP3ylHekhrlo33TT3NdxuO1OljOfTWH2VPrJfqnHrS2tB3vxwaudWczvdm2TbTCA/pHQ1pjYz5sOvAB3Ii/Pr7UzJ84M/mu8TWYwAAAAAAAADoMoS0AFrW0ZDWFPmlKhOD78jeP73TvPfn4SOy93CzN20eG0LtziixAOzulQ/k0N69jed/s/eI/M+YoyepM6Q1fpmRj44etPfU9D5jr+w9NiHf5VTX9vyL93qVe3ZoXNtD9Z7ewzU5fLF9nw1mtbeuo9erDcAO2mGc4z0+Pd77NJjNrYP/SEIjdLtnJveO7Gp8d1N+d1AGxqqpAay973D43rSFmOmcGZDf/y40Hb1n7GD0HqYN30zI//zpj6HfxPyufxiQD6/GwsyskFaZzxn4Q3PZCD7no+uOH1fD+cPxab5n71vrDjTn6TvlyAppbZ1iv+dv9r4jH16f6fg9ab31rjkdXSZ+P3g5sswlQlrj59vJ32TX4f/ITfOTRF5/Xe85rT2D3cORAwAAAAAAAEC3IKQF0LIgpNWAtiMhLUrr53vaSzk/SLe9g/eelJv+363yplO0d2Rdfvq+Jj8Vy/cz6OcE96DN08prPQvznbL8YqdR5Pecs/vh+/u24Jc23wcAAAAAAAAAXYaQFkDLCGnRGm946L1597wFAAAAAAAAAGCRIKQF0DJCWrTEDsX8jkwE9xMFAAAAAAAAAGCRI6QF0DJXSKsBLSEtXK78da/89q+X/b8AAAAwF1//X/931xQAAAAAQPsIaQG0jJAWhf3yhXz417/JR9f9vwEAADAnrrB0oQoAAAAAoH2EtABaRkgLAAAALAxXWLpQBQAAAADQPkJaAC0jpAUAAAAWhissXagCAAAAAGgfIS2AlmlAS0gLAAAAPH6usHShCgAAAACgfYS0AFoWDmk1oCWkBQAAAB4PV1i6UAUAAAAA0D5CWgAtywtp4wEtIS0AAADQGa6wdKEKAAAAAKB9hLQAWhYf6jgIadN60RLSAgAAAJ3hCksXqgAAAAAA2kdIC6Blcwlp4wEtIS0AAABQnCssXagCAAAAAGgfIS2AlnXyfrSEtAAAAEBxrrB0oQoAAAAAoH2EtABa5upFS0gLAAAAzD9XWLpQBQAAAADQPkJaAC0rEtIGAS0hLQAAANA5rrB0oQoAAAAAoH2EtABaFg5p83rR5oW0AAAAAIpzhaULVQAAAAAA7SOkBdCydoc6JqQFAAAA5sYVli5UAQAAAAC0j5AWQMviAW3RkDYe0BLSAgAAAK1xhaVFy/3L/ocYD//1/zpf00oBAAAAALSPkBZAy4r2oiWkBQAAADrLFZYWLd+t3ii1/+eP8vP3hLQAAAAAsLBE/v8iinVgR4BncAAAAABJRU5ErkJggg==" vertex="1" parent="1">
          <mxGeometry x="280" y="230" width="1897" height="893" as="geometry" />
        </mxCell>
        <mxCell id="48J_HxQhAaGGOyNuxUYL-4" value="" style="rounded=0;whiteSpace=wrap;html=1;strokeColor=#FF0000;strokeWidth=5;fillColor=none;" vertex="1" parent="1">
          <mxGeometry x="610" y="797" width="1510" height="60" as="geometry" />
        </mxCell>
        <mxCell id="48J_HxQhAaGGOyNuxUYL-2" value="" style="ellipse;whiteSpace=wrap;html=1;aspect=fixed;fillColor=none;strokeWidth=5;strokeColor=#FF0000;" vertex="1" parent="1">
          <mxGeometry x="1985" y="807" width="40" height="40" as="geometry" />
        </mxCell>
        <mxCell id="48J_HxQhAaGGOyNuxUYL-3" value="" style="rounded=1;whiteSpace=wrap;html=1;strokeColor=#FF0000;strokeWidth=5;fillColor=none;" vertex="1" parent="1">
          <mxGeometry x="1903" y="561" width="117" height="40" as="geometry" />
        </mxCell>
        <mxCell id="48J_HxQhAaGGOyNuxUYL-5" value="&lt;font color=&quot;#ff0000&quot; size=&quot;1&quot; face=&quot;Old Standard TT&quot;&gt;&lt;b style=&quot;font-size: 20px&quot;&gt;2&lt;/b&gt;&lt;/font&gt;" style="text;html=1;align=center;verticalAlign=middle;whiteSpace=wrap;rounded=1;shadow=0;glass=0;sketch=0;strokeColor=#FF0000;strokeWidth=3;fillColor=#ffffff;" vertex="1" parent="1">
          <mxGeometry x="570" y="810" width="30" height="27" as="geometry" />
        </mxCell>
        <mxCell id="48J_HxQhAaGGOyNuxUYL-6" value="&lt;font color=&quot;#ff0000&quot; size=&quot;1&quot; face=&quot;Old Standard TT&quot;&gt;&lt;b style=&quot;font-size: 20px&quot;&gt;1&lt;/b&gt;&lt;/font&gt;" style="text;html=1;align=center;verticalAlign=middle;whiteSpace=wrap;rounded=1;shadow=0;glass=0;sketch=0;strokeColor=#FF0000;strokeWidth=3;" vertex="1" parent="1">
          <mxGeometry x="1860" y="567.5" width="30" height="27" as="geometry" />
        </mxCell>
        <mxCell id="48J_HxQhAaGGOyNuxUYL-7" value="&lt;font color=&quot;#ff0000&quot; size=&quot;1&quot; face=&quot;Old Standard TT&quot;&gt;&lt;b style=&quot;font-size: 20px&quot;&gt;3&lt;/b&gt;&lt;/font&gt;" style="text;html=1;align=center;verticalAlign=middle;whiteSpace=wrap;rounded=1;shadow=0;glass=0;sketch=0;strokeColor=#FF0000;strokeWidth=3;fillColor=#ffffff;" vertex="1" parent="1">
          <mxGeometry x="2040" y="813.5" width="30" height="27" as="geometry" />
        </mxCell>
      </root>
    </mxGraphModel>
  </diagram>
</mxfile>
